<mxfile host="Electron" modified="2024-02-05T05:50:13.668Z" agent="Mozilla/5.0 (Macintosh; Intel Mac OS X 10_15_7) AppleWebKit/537.36 (KHTML, like Gecko) draw.io/21.6.8 Chrome/114.0.5735.289 Electron/25.5.0 Safari/537.36" etag="w7F25QRdpP7dC280p4SX" version="21.6.8" type="device" pages="3">
  <diagram name="integration" id="ZZu6i4v2K-H8nIZnbSRO">
    <mxGraphModel dx="1434" dy="854" grid="0" gridSize="10" guides="1" tooltips="1" connect="1" arrows="1" fold="1" page="0" pageScale="1" pageWidth="850" pageHeight="1100" math="0" shadow="0">
      <root>
        <mxCell id="0" />
        <mxCell id="1" parent="0" />
        <mxCell id="oQB2d7SRe4JEm-w0o-bS-38" value="" style="group" vertex="1" connectable="0" parent="1">
          <mxGeometry x="969" y="197" width="120" height="171" as="geometry" />
        </mxCell>
        <mxCell id="oQB2d7SRe4JEm-w0o-bS-37" value="" style="rounded=1;whiteSpace=wrap;html=1;" vertex="1" parent="oQB2d7SRe4JEm-w0o-bS-38">
          <mxGeometry width="120" height="171" as="geometry" />
        </mxCell>
        <mxCell id="oQB2d7SRe4JEm-w0o-bS-35" value="" style="shape=image;verticalLabelPosition=bottom;labelBackgroundColor=default;verticalAlign=top;aspect=fixed;imageAspect=0;image=data:image/png,iVBORw0KGgoAAAANSUhEUgAAAK4AAABaCAYAAAAhD23hAAAAAXNSR0IArs4c6QAAAGJlWElmTU0AKgAAAAgAAYdpAAQAAAABAAAAGgAAAAAABJKGAAcAAAASAAAAUKABAAMAAAABAAEAAKACAAQAAAABAAAArqADAAQAAAABAAAAWgAAAABBU0NJSQAAAFNjcmVlbnNob3R3BhVRAAAB1WlUWHRYTUw6Y29tLmFkb2JlLnhtcAAAAAAAPHg6eG1wbWV0YSB4bWxuczp4PSJhZG9iZTpuczptZXRhLyIgeDp4bXB0az0iWE1QIENvcmUgNi4wLjAiPgogICA8cmRmOlJERiB4bWxuczpyZGY9Imh0dHA6Ly93d3cudzMub3JnLzE5OTkvMDIvMjItcmRmLXN5bnRheC1ucyMiPgogICAgICA8cmRmOkRlc2NyaXB0aW9uIHJkZjphYm91dD0iIgogICAgICAgICAgICB4bWxuczpleGlmPSJodHRwOi8vbnMuYWRvYmUuY29tL2V4aWYvMS4wLyI+CiAgICAgICAgIDxleGlmOlBpeGVsWURpbWVuc2lvbj45MDwvZXhpZjpQaXhlbFlEaW1lbnNpb24+CiAgICAgICAgIDxleGlmOlBpeGVsWERpbWVuc2lvbj4xNzQ8L2V4aWY6UGl4ZWxYRGltZW5zaW9uPgogICAgICAgICA8ZXhpZjpVc2VyQ29tbWVudD5TY3JlZW5zaG90PC9leGlmOlVzZXJDb21tZW50PgogICAgICA8L3JkZjpEZXNjcmlwdGlvbj4KICAgPC9yZGY6UkRGPgo8L3g6eG1wbWV0YT4Ka5QDSgAAGSlJREFUeAHt3QeULUXRB/AmShIFETGAqIACIsmnIkmOAZAkKiAgSBAVAyCKikRRQAmiYCAHMUsSlCA5m0UwS0YRFEEFyXCd33xf7+nbO3PvzO6+x9t9U+fcvXdmunt6aqqrq/5V3TvbQw891AsddRyYZByYfZL1t+tux4GSA53gdoIwKTnQCe6kfG1dpzvB7WRgUnKgE9xJ+dq6TneC28nApORAJ7iT8rV1nZ5zoljwyCOPhAITDg8++GB47LHHwpxzzhnmnXfe8jPPPPOE2WabbaJu1bXTcSCMW3D/85//hGuuuSb87Gc/C7/61a/Cr3/963DnnXeGhRZaKLziFa8oP9OmTQtrrrlmWGyxxTqWdxyYEA7MNp7I2c033xw+/elPh4svvjj84x//qO3QM57xjEB4d9xxx/CWt7yltlx3oeNAUw6MWXB/+9vfhg033DD8/e9/D08++WSj+z3rWc8Ku+22W/jwhz8c5phjjkZ1ukIdB6o4MCbB/eMf/xjWXXfdcPfdd1e1OfDc05/+9HDEEUeELbfcMsw+e+cbDmRWd7GWA60l59577w177bVXrdAyC172speF5z73uZU3vf/++8Nhhx0WCH9HHQfGyoFWzlmv1wuXX3556YzlN5x77rnDxz72sbDCCiuE5z3veeFf//pXYE58/etfD7/5zW/6iv/hD38ote6xxx7bd7476DjQlAOtTIX//ve/pbY95phj+tpfZJFFwmmnnRZWXnnlQIAjPf744+G6664Lu+66a/jlL38ZT5ffyv3ud78Lz3/+8/vOdwcdB5pwoJWp8MADD4RLLrmkr10CCFmAGqRCqxAs95WvfGUpuAsuuGBfvUcffTRcdNFFfee6g44DTTnQSnDZp3/+85/72l5xxRXDaqutNtDR2mCDDcKiiy7aV8/BFVdcMepcd6LjQBMOtBJcdmtOz3nOc4LPIJp//vnDS1/60lFFfv/73486153oONCEA60Et65BTtswqsJ655prrmHVuusdByo50EpwTffs1pT+8pe/BJ9BJCx8ww03jCqy1FJLjTrXneg40IQDrQR3vvnmK3MP0oahBmeddVaQZFNFEm6+9a1vlfBYfv1Nb3pTfqo77jjQiAP96nNIFVGvN7zhDaOgrZNPPjkI577//e/va4HQnnnmmeHzn/98gEjkpK0m9M9//rO8589//vNwyy23lFUEOl71qleF17zmNeEFL3hBl33WhJFTqEwrHNdzX3bZZeF973tfuO222/rYwAF78YtfHHbZZZew5JJLBhE2AQbC9u9//7uvrIMPfOADZQRt1IXkxMMPP1y2oR3tSZmMml2ug3v6bLTRRuGAAw4IhLmjWYMDrQX3iSeeCHvssUcpUH6PhZ75zGeWaZA0ZRVx9qRGvuc97xmFG1eVj+fOPffcsPrqq4/Ck+P17nvqcKCVjeuxabqPf/zjYeONNx4TF+TkHnnkkbW5DBr9yU9+UpokebBj2A3f8Y53lPa0hPaOpjYH5th77733b/uICyywQBl0MG3/4he/aFzdVH7IIYeUU/vTnva0yno33nhjqdGvv/76yuuDTuqP0PJyyy0XIBaz2qoL0Uiz1ayQddfaVEgFh8N1zjnnhE996lOjbN60nN/rrbdeOPjgg0uByiG1WBbjv/CFL4TPfOYz5fKfeD5+s2ff/va3B6bGeeedF/70pz/FS33f66yzTvjGN75RrsLou5AdwJaZJGl6phnlRS96UaW9TCjkXwzDn7U7o4Tn1ltvDccdd1z4wQ9+EPgEaKWVVgrvfOc7g4hl7Id3lWfkCcMvvfTSGVcmyaEVEOP9FMnkvRNPPLFXMEwkYuRTvODepptu2rvyyit7BeOG3qcIJ/de+MIXjtSPbRWauve5z31uVP0LLrigVwhZr3g5o+oUA2pU+fw5C6exV8w4fXW1d+GFF1bWLUyXXpFgNHLt6quv7hWDqLf22mv34v2KsHhv99137xUZcCPlipUivcJp7S2++OK9IhGpp9/XXntt713vetdIGc99zz339I466qhekV3XK5KPegVqMnI973uBtPSK2auv75Ff8TvtQ7GkalTZQgnUtp/fb2Y7bm3jFkwZRWAyieEf/OAH+67BfbfYYosy0abJigdr1nK0YuGFFw4HHXRQ2HnnnfvadrDWWmuFU045pTKcfPTRR48q3+QEDVXVV9Ae5KIQuBGUhAaWUP/Zz362XJakfSmczJWzzz67vJ0w+f77719qNpi3NM8lllii1NyQkpS0R2sWgl+mjp5xxhnp5ZHfTKJiIJdppCMnx/DD+5msNCGCGx/eNJpTG+ShKlsMTrvJJpvUTs+rrLJK4JRZSZySdXCEbaJI3ziWkBDCG0lU0AJRNrX7SRx67WtfG775zW+WAu6aeptvvnkgKCBDcCH7mx0POfGBVUcisMVMUAsX8itOOOGEWHyW/J5QwR0vB2nclDhwq666ahncSM+nv2nH17/+9YHDmBLNldqu6bW2v9ms++67b9hss83K5fYEN9qT7lFMo6EwlcJ9991XwnyvfvWry4T6U089tbymb1V2MVta8j0Nm6Z98gece/e7313Z1e985zvlvfKL7vvmN785mAGnOrWKnI2FGW08+zz7TH5vHdab9gVaUeXwCVhMBHEEaVNa1Kxyxx13hO23375sevnlly8DMg5ECTmMX/va10pBFTghZMwZSfPLLrts4IDqK7OAgMV8jVSwLe2viwYaMAZInrQkOhnNKQGf448/flSZieDFzNLGuAXXi/zb3/5Wvph0CvWAXrbImalRWuMwm0p6ZJrvy5aLId5BDLM0vsosGHa/QW3GawQNriyszVtHFntKGnrJS14ygkcziQRACKk1d4jtq/877LBDiZYwe/7617+Gwpkrlzel6/IIsNnj2c9+dqm1aWsbqmy33XZlW/GPVSh5+Jy2Fj2MZCB/5CMfiYdT8ntcgkvIaBebgdAo+d4KNN5XvvKV8KMf/agUXLaoabBKO+Kuqe6qq64aYTShYT5YAl+ViK4gzUMjSnLPaViecF6+7pjwpJrfMduWkEXNq+6HPvShsMwyy4w08973vrcUsgJNCDQz6Ir9GyEo4fFIoEJ2uvwNmhlFKCuW8W2A5NqWYqjDxdO6U+n3mAUXdnjggQeW0xYBqyNTG0/bh4MjI4wmsqAyJY6KLLOc5EY4bzORKm/fLjrWu+V9gPem02/ebtNj5gqHKiVTuQ8iNEjf7NyTUlrO8+bPnNrlFpkiyUo+bUg7VULepo3JVra14LKfLE83JVahCIMYoO73vve9cPvtt5e5DqZHAQDQFc3MycmJuWCxpW/OkZfEbnZsMIDgcnOCwNY5Nnn7U+G4jR8xFZ7XM7QSXPYVmGa8UAybcdttty1tP7YcO3gY8b6/+tWvlnuQ0YJCw7RxFdHq1sJ1NHU50EpwCRkAvY44CJwwWpFGZANfeumlfRhlrAvfpEnbEM2aa9e8PhuT7chB6WjqcqCx4BIYWGbEL1OWENj99tuvdGA4CeytGAWyrIctLJLUJBghH4EXDnpKQfn0fnW/CasZgQM0K06fdXyZiucbBSAInFTG3HOHDhAy4DuvmeDwjE3lBNix84SQYA+Cp2Ca4CapjDLI7HZDAFMHpu4FuBfHxxIhdnAdalFXvzs/+TjQSOMC1X/605+OejpbhoqZNxEuyedgHHH7nAg3KGmbbbYZ8Y61+cMf/rAUet/6wK5NCRwFOlpjjTVKZyzFRdNyU+l3N5P839tsJLhFtlSJW6YCQGiaCm2sJyYvlp8niFs79ra3vW1EaGN52ptGN0AILpuZ7WwGAM7DdgmubZxmhJYV5Li1wGJz0h9YLTMnJ1g2qA9sZxaJ5JkFIiKma1C7nkJ4fke4TT04+U033RQ4ySlBY/QrTdrRV22n7aV1hv3WXh7UYf6Z3TxrFfzGnPSckozi7AxLl4gEo499gSQJosRBiH+COfH6sL65PlRwNSpKlNu2YKgclxx2Q3m0b33rW0cJLkcN8+s0twwxUSefCL5XMW7Y/cd73WwhzzcnzyQnOSfZYCJY8mAJW8pDiTQiXnIL1CX066+//sjL1JagRxqQUYe/IPiRElhQH6IguEbIirTLvsBJWmfQ7/PPP7/MocjvA5e2eqVIweyrzhfBGznBntNgJTeIMDIlvVsmo9wT4WnYe0qeMw3ypNeqfg8VXCPDA2BESmNZWo6xNKTRRXNEMkKb5hU8FQLrZRAYod6UBB0sYfroRz/al9jiWSAwNrGuI236gBaZQEUebhkhTMvnGW8GbR6dVF7wRXQxpyg8+fm6Y+3bjZM/k4belRcUIXD+JUIk5UU2oTjeYRXR2mYCHwPTIgGJSXkCVNu+DhVcTMmjUjoYI0dVnR10Lo0mDSo3s1yjTazKqMrvFZ2TK5zOPAa6YAozqikRFuHwp5r04xOf+MSolSV8EEIr/zklJtAgoU3L+s18qJqZ8nJNjocKbpNGpmoZGpHQCm/nUT2ZWCKIaXiWBhLWJrhVM4g0Ri+fiWBAwLglKCG5HsOobaRyWHvpdeYBTcuXSEkoGspj9XRKhLBOaKFJr3vd68qEeeYRbcwc1P/UDk/ba/t7qOCCtnxyklqX2zp5mapj9XwmAzEPaNpcaNn38GIvKCUvhTmRT4PKMAX8zwy2HhMjvkTtf+lLX2oUPpeAY29iEUT2cyTZaDRlalqYetNBFctWfRNaQihdMyUOuEFo3+M8T0S+ieSqnAxMgs6pJDcGM/7Z5NsqmYl690MFF6NpCPZpaufK+Ippfnnn647Vt0Njat8qaxXDIIw3bQ8j0PSydT0nTfvJT36y0qa1CHGfffbpS/yO/ZPWmcOGnotDU/U/L2DXTA3fXjbEZBDxD2yiLe83JQJKqJsKaqzrfXiPktZzoYXYmD0i6hHr+FYWZp4Tx0tCFMQnJY4nBMXKDc5oiq6k5dr8Hiq4RprpwmhONQ8t4SWm9t2wG0sUr1pH9fKXv3zUw6Zt0WQzCg4zBRK01JuPfZHCSAsbyFX05S9/ue80jbPTTjuVHn/dQDNQ/Bci+RrSM4cRYUsVyLDyg65zCgWG8jA6DUuzVwmt9uDqEqZSkjB1+umnD3yPljBBH+xi1DYqmt7L76GCq9Ab3/jG0jhPBZd3yyYybdXBWOqmZEVAjuG6TkvxrmG2tE8k9hEIZUYGIEzzcOucTMWCKHUzA4Hn3KQE/tt6660HvkzlaSimRxPBTdsf7+888V97tKaByyGrIiaOQZbKgnKQlWH5zwYpVAKmK+l+PNQo5CtxBWCek2mB8OYZ+Xk5x4ceemg5HVZdM3VYQWs/hLhLuTbtC6B9D5lHzbRj8Ch/+OGHl9Ezzs70IH0YJLTuCbDPySxlc5ImJJsttVGb1JnoMjTiSSedVNq0dTMEM6oKHhW9bEJQJb5RbjM3qZuWaSS4bgLeSbWhRow+4DJNyfg2fdCS4DP2mmPnt9pqqxIGqfK0Y2dcU1aURXsGiyhMk0HhXqIx7Ej5vnnEJ95jrN9svSqcNG0vB+td41k3fUHKGahPJZk1ij0fBjqK3lOubZkUTWddWpdvlNvBbZ+7kamgUVAOrbjnnnv2RYBcs5uNT5u0RvXqqMrwryubnjdQ9JE3zBnApIkgToXnZsOK4lVR1WBpG4ZuE/Ks6sN4z9GmUAQrPiiQpoOOENZp6Ko+tS1f1UZjwVVZEgytaAVpFUUBrrqWnzM1clyE/i6rSQjP6xg8bCROD9Ohqp7zbDSjmo05UcQsMuNwSt0/pyrbt8q8yeulx3fddVd6+JT85qhxoORVi3DmRJhzgTbbVQWp8rrxmLPdNlIW68bvRqZCLAzWELKz/qutNolt+GacW2TJJPDtP03mZkha3m9wEceOPQtDlDNgWqvyfE3tbTbjS++lHzBXz5jTd7/73VEQWSxTlZlmV54qTRzr5N9MoxlJ0CLL5ymElOSm2IEoQo/pNQM0H6QQgnxrgbRO/lvEbZDZmJevOm4luBoAutM6QoCM+SrtU3WjWFe+LKSADWsqN62DRzALxpeTbKQvfvGL5W7n7seWMoBM2cBuU1vOeMJycrGcfCwEv+RRe8bcs2ZLm214//lLlTGVv1A2o2VKTcjOO220VpM2h5XxP+jkWhR7mI1aJWxmNXhzexb/4cWpaQCei1tODbun5fkc2UGQHt7S4vIgzKqwf2ZMSq0FN1Y2zdOAIi7sSQJYRTxlOK20RS+dM1eF/YJSaOKcODjSGvPpKZaTbC5nIB9ATJA22i62l37TRrnwWtFB41eZAelSde3QQvDQYdEiYV+rS2Y0xekajmyLqJyYfiDMXDuyf/MZEk8on0HkfWizKuIW6xFaQRHtxTRW2L9+pNjxmAXXjWg6ALZYvo+RmxIN5P9CuObGQp6DTIz8gQgjMLxuTwX3MvJlHeWMdK0q9Op8U1qyCFsSKJvUpQR3NmBp1JRMryl5CTSpsG7+8mM5Qit6RsM9VYTPBCWf8Wg5s51nSGcYfkbOb7OFNYRpKDp/HrAmMyznW1qONqYU2NnFLpelsHL6RVeZiZHGJbgaIYimSaPQf5hMiZdsOuIo5dNoWi7+zlPpmAm5GRDLpt+0fZVHXicsad1Bv2l5G5hYkZxjrIIN+UAVks3P0bZseDMO4D7OAmBDJgdNJwVyWLh3UD8n4hrTix+R484GltUppu5IzMVUiOJ5ZpGAi6BU1I60Opze5ij+dwhhHEQGsLxceC8BZk5yGM3qhDryb9yCO6gTrg2yZfK6eSKxUTzsf6hpA5NgyjkN0u552bpj2ggUFjfsSMsRXtlj0TZl/21X7HLDfk/JALqssNVoKuFicJAXI/mbMD/VQhv7CkXwrHyIlMxcnivVlGzjdKmV8rQywZT7wB/xnHhi1uSEN3HgomYnsAaNKCZzERlc8T1Pd8Et79jwT74XghcKHRgU1zaiTWV5oILQVnn6DbvSV4w5IrElt8EJJDOATRbtRWW8uLb3ztvu68AMPDAt638+w1hNIY0zalJdsm2UGcnM2JQItE8diaqZjXzM1MwvmhZCI1JqMKAJFdwqDVfnVFV1nEbK6cc//nH4/ve/PzJF5Nflen77298eFRSx9Wh8yLzOoGMzRBz1aTmeNO0aN7SL1zBU0CM6azQFTcQp04dhRLtx6gyAsVIcNG3rV9UjhKZ0s0FO9tTQzzhD4Al0SW5yE1MQNoyHHOo6wl8yg3+0OudYNppcFnyO1CoAESvl36YQ641ASCnRSDxzixmrcjrTsn7TuDqepr0Bq6UY0qgcopTkKVT9zzVl8t3R03rxNyFzPzZsHGDst7romL3B5FxUZbhBMWgkRENLTPLMpjqOT56grZyBamqeNm1aOciErFNNl0/Z6jBd5AXQ6PqPoDRVNn558f//EKy8/RwxieU9P4F0/zg1x2vFdv/ls0TTiYaU5slWF/ihRHLSP8gFKJQ/QnPGVFllmVrxWT0/J946PXg8uXIv7zlFo2b4Py8ZtJqT4Q2XxYhohKdM8HCgLxExjk2VMCjf9J+XpG1P79/sRHum8dQJkTTAugEyvfsyPdunrDhT0byjtKAywwZW2z6NWXA5TbxlKr0p0WbqFP/QZGSE5XUZ97QlZ6aNYxfbMSppfrZX1EjxWvc9dTgwJhsXNCL/so3QYhnDnjYFQudTUGSpBA/YcFWcPJap+zb9yGvlhXZCW8elqXG+tcY1hRNaxnKVcd+ELTQvED8H9mNdmhYUEqNz8fywbwB39y9Rh3FpalxvpXEJFIeIgORCy/5kRIuScUg4ZbxqQpoTzcuQryPa0pTPCeKFwkXhninswpmiYUErdsiRWcW25bx0NPU50ErjwtZkh+VRE0Jmxxbh3ZRoZ/gn84BjkhN8bthyD3UA14B6IeG4PsqA4I3DP2nuzjTIuTu1j1sJrlUA4tl5XB1cZePlVCNGthFeiTVszzxIAEHIE1Nive6748AgDrQyFWi+FGPVsOiG7K0qoXUdDAI/rErqrlo4qU5HHQeGcaCV4MLmcttWfkGeY5DflC0aAev0Wp4Nll7rfnccGMSBVoJbZUc6V3U+v2maeByv1WnpeL377jhQx4FWgls13YsIDct7FS3K/+W8Doldd9RxYCwcaCW4PPkce5U4bGOJqsSU2CEbelQt77ZtUEcdB8bCgVaCK+s9FzYJEuAu9mrMS40dER0DY8miz/cd4LRJROmo48BYONAqO0yQQVBBYCBNCpYxZKNnkBgnDK7rOthMKpwds3OyIqDJ6oa8XnfccQAHWuG4KkAWRKpEz6qIOSHlTnRM2LaKLCmX/pYvE6kq253rOFDFgdaCqxGaVCCiym6tukl6jtaW62mnxyqkIS3b/e44UMeBVjZubEQCMo0rT6AJFBbryT8VGragrhPayJXueywcGJPGjTeyQbMURIk3strrKOYV2GBClK2jjgPj5cC4BNfNoQW2DoIq2HnEXv/ydWVzWeriIxnGMpVBi+TG+yBd/VmLA+MW3MguC+hs12PphsQaCyctVvSxjqiNSRHb7L47DtRxYMIEt+4G3fmOA9ODA2NyzqZHR7o2Ow604UAnuG241ZWdaTjQCe5M8yq6jrThQCe4bbjVlZ1pONAJ7kzzKrqOtOHA/wDVcEPXvKEUvwAAAABJRU5ErkJggg==;" vertex="1" parent="oQB2d7SRe4JEm-w0o-bS-38">
          <mxGeometry x="16.5" y="17" width="87" height="45" as="geometry" />
        </mxCell>
        <mxCell id="oQB2d7SRe4JEm-w0o-bS-36" value="&lt;font style=&quot;font-size: 16px;&quot;&gt;SS_...&lt;/font&gt;" style="sketch=0;outlineConnect=0;fontColor=#232F3E;gradientColor=none;fillColor=#B0084D;strokeColor=none;dashed=0;verticalLabelPosition=bottom;verticalAlign=top;align=center;html=1;fontSize=12;fontStyle=0;aspect=fixed;pointerEvents=1;shape=mxgraph.aws4.topic;" vertex="1" parent="oQB2d7SRe4JEm-w0o-bS-38">
          <mxGeometry x="21" y="63.5" width="78" height="67" as="geometry" />
        </mxCell>
        <mxCell id="oQB2d7SRe4JEm-w0o-bS-26" style="edgeStyle=orthogonalEdgeStyle;rounded=0;orthogonalLoop=1;jettySize=auto;html=1;exitX=1;exitY=0.5;exitDx=0;exitDy=0;entryX=0;entryY=0.5;entryDx=0;entryDy=0;" edge="1" parent="1" source="oQB2d7SRe4JEm-w0o-bS-22" target="oQB2d7SRe4JEm-w0o-bS-25">
          <mxGeometry relative="1" as="geometry" />
        </mxCell>
        <mxCell id="oQB2d7SRe4JEm-w0o-bS-33" style="edgeStyle=orthogonalEdgeStyle;rounded=0;orthogonalLoop=1;jettySize=auto;html=1;exitX=0;exitY=0.5;exitDx=0;exitDy=0;entryX=1;entryY=0.5;entryDx=0;entryDy=0;" edge="1" parent="1" source="oQB2d7SRe4JEm-w0o-bS-22" target="oQB2d7SRe4JEm-w0o-bS-12">
          <mxGeometry relative="1" as="geometry" />
        </mxCell>
        <mxCell id="oQB2d7SRe4JEm-w0o-bS-22" value="" style="rounded=1;whiteSpace=wrap;html=1;" vertex="1" parent="1">
          <mxGeometry x="740" y="50" width="100" height="110" as="geometry" />
        </mxCell>
        <mxCell id="oQB2d7SRe4JEm-w0o-bS-14" value="" style="group" vertex="1" connectable="0" parent="1">
          <mxGeometry x="550" y="61" width="125" height="88" as="geometry" />
        </mxCell>
        <mxCell id="oQB2d7SRe4JEm-w0o-bS-12" value="" style="rounded=1;whiteSpace=wrap;html=1;" vertex="1" parent="oQB2d7SRe4JEm-w0o-bS-14">
          <mxGeometry width="120" height="88" as="geometry" />
        </mxCell>
        <mxCell id="oQB2d7SRe4JEm-w0o-bS-13" value="" style="shape=image;verticalLabelPosition=bottom;labelBackgroundColor=default;verticalAlign=top;aspect=fixed;imageAspect=0;image=data:image/png,iVBORw0KGgoAAAANSUhEUgAAAQEAAABvCAYAAADsZXVjAAAAAXNSR0IArs4c6QAAAGJlWElmTU0AKgAAAAgAAYdpAAQAAAABAAAAGgAAAAAABJKGAAcAAAASAAAAUKABAAMAAAABAAEAAKACAAQAAAABAAABAaADAAQAAAABAAAAbwAAAABBU0NJSQAAAFNjcmVlbnNob3Q+d2zkAAAB1mlUWHRYTUw6Y29tLmFkb2JlLnhtcAAAAAAAPHg6eG1wbWV0YSB4bWxuczp4PSJhZG9iZTpuczptZXRhLyIgeDp4bXB0az0iWE1QIENvcmUgNi4wLjAiPgogICA8cmRmOlJERiB4bWxuczpyZGY9Imh0dHA6Ly93d3cudzMub3JnLzE5OTkvMDIvMjItcmRmLXN5bnRheC1ucyMiPgogICAgICA8cmRmOkRlc2NyaXB0aW9uIHJkZjphYm91dD0iIgogICAgICAgICAgICB4bWxuczpleGlmPSJodHRwOi8vbnMuYWRvYmUuY29tL2V4aWYvMS4wLyI+CiAgICAgICAgIDxleGlmOlBpeGVsWURpbWVuc2lvbj4xMTE8L2V4aWY6UGl4ZWxZRGltZW5zaW9uPgogICAgICAgICA8ZXhpZjpQaXhlbFhEaW1lbnNpb24+MjU3PC9leGlmOlBpeGVsWERpbWVuc2lvbj4KICAgICAgICAgPGV4aWY6VXNlckNvbW1lbnQ+U2NyZWVuc2hvdDwvZXhpZjpVc2VyQ29tbWVudD4KICAgICAgPC9yZGY6RGVzY3JpcHRpb24+CiAgIDwvcmRmOlJERj4KPC94OnhtcG1ldGE+Cqu3ZBwAAD79SURBVHgB7X0HYJzHce5cQ+8kwN4r2KtIiiqUKKpQorpkWbKtyFIcy36OW+Ikfk6RX/ISO24pcuzERW6SZfVmiepiETtFEuwECwgCIACid1zL9+1/e7g73B3uwDuAEP4lD3/bMjs7Ozs7Oztr8SKIGUwMmBgYthiwDtuamxU3MWBiQGHAZAImIZgYGOYYMJnAMCcAs/omBkwmYNKAiYFhjgGTCQxzAjCrb2LAZAImDZgYGOYYMJnAMCcAs/omBkwmYNKAiYFhjgGTCQxzAjCrb2LAZAImDZgYGOYYMJnAMCcAs/omBkwmYNKAiYFhjgGTCQxzAjCrb2LAZAImDZgYGOYYMJnAMCcAs/omBkwmYNKAiYFhjgGTCQxzAjCrb2LAZAImDZgYGOYYMJnAMCcAs/omBkwmYNKAiYFhjgH7x7H+Pb5TvaLdqFosFuEvXPB6PYKY+IQ4+Mer4DlS/HB5mO9MDAxVDHxsmAA7vu78Vqsh4LjcTjnXXCpHa3ZLY+cFqW0vkyZnpXjEqbq53ZIh+akTpTB9vIzIGCOLxlwpOekjxQoeQJbg8XiCGIHJFIYqmZtwR8OABR1nyLocN0A3Rnt20HZns2w/u1E+OPuUXGg9Kw5rDjo0+ZxXPGQS4sY9f1oi4NWGOAbToBTg8nYibqdMLVgiN0x/SOYULgcjsCoGo5mAviKxGUwMDHkMDEkmwM7PX5e7Q3X8XRVvyZulv5S2rhZJsWaKaE0H2Fs8HZZ5KvagJAGLeD0u6fa0y4TcWXJr8Rdkav5cSbGlg7mkoeG9oiWOIU8FZgWGNQaGDBNQoz46tQf/6torpbW7QV45+nM5VLNZdXyr1WbI8HqQT1CzUn6g5OD2dCN/t1w37UFZOn6N5KeNkuzUAlVKrIxG1SEArljTBSQxb00MJBwDQ4IJ6M5T3VYm55pOyNulT8nphhKMyhkKIQPVmRRDAE9we7tk5YQNsnTctUpKyE7JjwkO1qOtu1lsFpukOTLjklIS3vJmhiYGfBi4pJmA7vxt3U1y9MJO2XHuDTlWuxtjs9biD047oi8DBo9kpmTJwtFXy7Jx18mU/Hlit6ZE7NisC38flD0rRRkTZE7RyohxB6dWZqnDFQOX5OqA7vwceataTspbpb+V43X7pKmzDqOo3Zi3D2KLcaXRAsVDR3ebfFj2qpxpOCzzRl0u66Y/IKmQTiiZhJNOutzt8u7JJ6W4cJViAoNYhahFa/yrSOR4OviWWAPrFmtcf7zA/HS+fV195fqjJSIPZhZvPn3BEQY/fphDbvz4CIUjoAzi2R8vFNYwZcUTNxCcS44J+CsCKPdUvC0bS38l1S3l1PApBhAI/KDfAyYrRPvKltNS31ElJ+r2yqcXfktGZo1T+gndWVSd0Ihbyp6T+vZaKa3bLa1djZKVmheWWQx6vQiAyyWeivPi7egkx1P4t+TlirVopCJMXTcFK/DgPnlWxNmlHrG8ItaR0JeMyBcLl2vxXeGgrU085VVQ3MaouCH/SU0R+9RJKr0XS7bemgvibWxSeRqFxfAX+VjS08QydpRYHA6VwFteKe62DoAWwOSiZYX2s4woEEsB6mQzNM/uYyd9cCAPfLeOKhLJy4m9TYnj6lrxtrQa+QBvlsIRBu4IC7NFHC/jNCOOxpvLLbZZ08Rr7xkQWQuFY+DIc6wUi17QkTEgT8nLFmvhSH/djQ89fy+p6YDBAIAILMn9cu8/yJHqndLuakbdLzle1YPBgDsPFIdZKdlyz7yvypKx1/m/sF4NHbXync2fkZbOZtgijJBPLvhLTCWuip1g/Lkl/4bweiurpe1vHpPuvUcUgbIzOxbPlqyf/ZsiMM0EjDYTaV5/p7gq0Tk9gM/VLekP3ydpn3tQLNlZqo4eELNr4wfS9rXHxJOK9kQZfQYwj7RJoyXjlSdVfO+FOun47r9J52vvA4Y4aALt4lheLJmPfUusE8YreFq+8FVxbjkAMAhwXwGSnatL0j99p6R+4RGRnGyR9g5pvmqDuF1kaKDZLrdkfPVzkvrgXSJkOH1kSbx5ztdK+9//K+DYKV4yFpdTMu69TdL+9qv+Tuzt6pKuH/9SOp/4g+rPzNbicUrmt/9GUu5c76cf3Q5dv3lO2v7/D0QcqYwJxuyS9D/7FNriAbFmYuUsTIgDk2FSJ/CVQRPGvPm7mx+SiuZTik6GCgMgKigVtHW3ym/3fQdGSsfktuL/o7gzO8xLx34MaeGcfOPK38j3tz4kR+t2yILRV6KZ+iKXBCI5jqw46nrqW8RbXw+C5EgOGv3oiLj3lYht6aLgnFiFmgbxXmhEd0DELqd429rRN4I7mLerWzy19eLNANn1NQIjqZcSRGa6wpBiGR63eJtaUQ5gIiOJNTiRjnXhqKgDnt0NDehQsBsxBnb9JeyVsHtbOxQz0hE81agv606L0w7kA8bAzhhzi7LsZkhHxEkaRu52rEBRKjA6g2K+kpqqGJcXTNh7AVIQqwC8dD39oqTccROxbZTHD3jv/OXvAGc74rUhHxF7YYHYZ0wWS4ahRNewB15jqH5g9OTdU9HG0fJ7Wz4n5U0Qs1A1Pdokr9TE50wpxgVO/d6p5+WZku9Ll6tDDpzfLCdq98iqibfLpPxiKAanyvnmM9LpbFNEk3goEpEjyQsBFy9HOw9EfhBo9/s7FJHqkceIpP+S/PHzJdVvg66Mgry8XhA1rx6b78r7gB/bH1F7Z2XkHxSXDAOxIZDjx/x03kZ+CiZ0kNDc+Eql88MSUH4gLLhXeeAvA58Cg5ecgKK6KqMfbB2VtIAfAJigoEu1r14utpkTwIURiWXh59p/VNzHIfYjqGQo27Vjt3QfxjvFeylZYNqwbIHYliwIyjf0YdCZABmYB5y0BhZ+v9n3/6Ss8RjwOehgheIprmcyLze4/OayV+T5w/8BQ6bfqFHt3rl/ATK1yfLxNyqGd7bpWFz5DkpkH32rsru7xXWgxJifRgCGhNurlwTGZQQ0OuahGIUhZODRpv4RM8E/K4jd4vXNbZmH6mRWxPLFA51wuZUdiHlZ3DDz5g95B+bF+BZ09HDBCvqzUoeBqw1xwsOC3MBYjGE/OBdWR9U5+HXcT9HysYwuwlRsoViysKxssC3xdnZJ9/MbgUpIIaiv1+2Wrl9hyqDsZYhbj1gLcsSxcqlYx0AXEgWiOGSqKLlcxCdWora9XF488mM5fuEjsVkNxc1FZHlJJCUjQNvIVjCCdEeG3D3vK5KOJUWS2WyYIm8+8zwknqMya+TSSwLevoDwQnxnZ6EC0HXgkDiuXNlXksjfVWcG4Xa7JfV6TInSIKqG6aOqY4wd0TNApqVLyrLFYoPUTMUX0Kukxa5d+8R1ngpHFgk4R4yU1EXzxZaSSqEDrzxQpE2IKBJzmmCD4ix1wXzAktpTHrNDUB0I+1Ds82eLpAwsfWq5wn7V5WJ5+g1Ms84DIuAOehfXzj3ibWgSS36eeE6VSfeHJQawZHjQg1jHjRXHCh99KZyr6vT6M6hMgBysBZZ/fzz2Czl4ftvHhgH0YNmLqWuqXDX5Dpk/6gr/6kZB+igpwIalqpYy6XC1gUlAedaT6JK8IzEq0bmqVty7D4h91TJMOPtHPqpfopYWl0dS/+5LEHWnRa8zuSnjQ8noeOST4oDS0R+6nSJff0xcT58TC/QEXsz/HXNnSfp3/1osowr90VTv0Nr1gLfqFqOmfcEsSfvhN7ECMCL0a88zOxJ/Pnh6PiTxzkcY9nnFYpsyHnqBGmxsQ0u4wZDPVoh7x15x3LRWul9/WzwtYAiqlQBiSgrwMEes06b0CVwY/ttnmouOoMQXINLp7oKo/ITsq9o05KcAoUghndigzFk8Zo1cMel2yXBkq1GLEkI67meMWAQmcEJqW8sHlqhCAY3xmXCTHqnwc5UcUUt1MSaNHI19m/N5diwuaYX7AYe6bJUR4+KdPy6fMQXoCXymejIgHuNHYgBMSCUloqsOHph3IDx878NBT1kDc6fqjxWJlA3Xot5oB4UDCxSKDeLatAvLrufEtXWXSCeWPDGFUlJbFqSmG66G9APFKuNHCajZYAWv7K54E+Lyq0onoBpgsEBJcLlkckR7McT+9bMeljyM/OqFr5w0GBRNyivGakGN1LaBCQyVAGKiXsp16Jh4jhhKqUSBrvogMut11QSMq+oM+uqLq8pnosAQ8Kzy02l0XoFxA+4NeSMMDIijyx5MOk25ca1Yc3IIjMKTt7tLnAcOS9dvX8Q0rVzpBtT0BwzPNnOi2K+8LKB2kW8HnAkoKQDw1LSdk98f+A6YdvCe/cigDo0vigGgkWYVLZL7FvyV5KePNggogAtws1MebAVSsNZd31GNgcw1NCqHHkV7AffZ8+I8eFwpp1hfMwwMBmiMlLIcy7OwJyAzptGSs+SwtP30t+I+X6P4E/mcxesSx123KUViLJANOBMgUFZA+uPtX4PI5kDXIK/+eAQqOd1eJ+b/q+TRy74vOamwLvP9C61hftpYGZs9W7hC0NzVEPr50n72dIrr+BHxNDSqUenSBvbjAZ2eAqR/9pMiba1qBkP+SzsHq5uaUgTFGTB9Ss+WtJvXqVex9K7+aXZU9v3/896pJ6WlqxpKszRsA86SbvgF6HTDuAGBBjdDLqAxuMXZgTnkHbO+JGum3Imub/DXcPMxvstNG4kpwSzZVbVRmrtrIDEUKonhkq8759awRnNv3i5yukwEy1dqCIoXcAoQpFAwTmWizCFMB1I3JA4L8BkOfzpa4q6Y5nANvhU0mJqm+lJP3qwvugmMdgYGlp6Sg+6AE0pd1suXi33WVKyG1IHoDJwpnQqGVOo9aGGYcsfNasVApQ/Ea1CGPQ8DxgQCxcarJt8LZdldGDXdUt54HCsDH2KD0E549XGBOTRhZLyAHXk0e7z0A20cUuBkpCCjUO5f+NfYTTgXQBuNE41o7FgKzUsrkvauVuwjaEYTUo8Q0BEu1aqzg+K/u6JenPuPSOpiGKJk0MlKfIE19Tqs0r1tr1hLMZ/FC8OIkEyhW2zYL2CfxyW5lPgy7kdsZeBVckw6/ulHwv0RqoLMB/UkA7CvWi4pt97IN4MX0JkVzgBB+ucflhasiAisKQki7SKM/gWLCLxIf/QBBWc0+gusSMKZQGBnDyyo290JRyCNIPgmZUVHoqdRUJo9Q66Zfq/cUvwIlstaZfe5N+Vkw36paTknZ5uPYldeplHRwMwuiXu6LPNIAeb8XP67Zuo96p4MIFbkj8gYq1YKqlrOYLVgMSSj9EuiZuGAYLuyk5LoOPJ7HTZxvfeBpN59c/xMgIyEFG23Svs3/hEcxSgRuRr5Y00+47P3ie3bf4lNL2ACjJvMgPpwatP12ru9S8lIkXQ7togPNhPwQcZ2sN+4RmyP/UjcnAaoNiETQARYqjrWXi7W4lm96xHlTcKYgO78qn3RaPT3dwgbgCpbjqKzsHEt2DzTII0dF6TDCftoiM8WiP7ZmDfnwbknDWlIBCm2VFkN81pKCQerN8tRmNtWw5owxRb/aBOl3v36RDyzI2DmD3gc2CR0IxjA5TD+WaHgZqaxMgDGJQMpgIeiExf2yPJx16s6xpOeeQxEYL1JZWDbWH+GiI69ARbYCDi37RHPmXKxYWdhXIEiKv9zxpQOiS+gk/PW24UpIXYPBr6PK/94IwMOWhzS/DcAFF/5BDLobby5Jyy+pg1lQXjbWnE98xKmTMATGogo9Tq7Je1hnxQQR6kXzQR052eZLrjgKjm/VQ5Uv4/Rvlsqmk5JTUeZAtIGhxs0yVQINeQ+A8wWdn0q1LCtEko1OuYYnz1Dbce1Q4u+etJtWE8vhYTwjkqrEWEkHpi/BgujKTB8Drpb5frpD8qUgjkye8RybAfOV0D0B67ctBGYRoyW0gt7xQll26UbQGGgMgu105cvk+4nX4DyKUU8bcDH+x9K2jJuKIq9oyimwsoy2z4qraYJfcRJyGcygrDQEMK+oEwIBDFnQh1AyprV0vmbF0WyARuMh2grkTprtjiWLlRTA7WFO8Yc+80EVOdH2TRMYOf4qOod2XTmOYz0GO07sVzBf2D1KdZQEddPAgaISM+4dgvNMQ2TzMrW01Lecly9O9tYio6WBXdeN0Mq2KHW1m3WfoMdI1pQL4x8iiiA8E5nI6YtOXA2+jko82aDSU1XvgAU2ZAF9yOQaTgg9RRmjsEGI2zMwXRJldnP/PoBQlxJCK8de+lT110lzjffVTvVMJeRrldek7SvPxqiTIsta4683ibszIPdu9HRDNrw0p+j2oUYQiuxZRt3LCW9OiFm02FNCrmBDw5evA6xYimXt/1r6bjBiZrAoEugrPI8FIE+/BAwKgUxjVISVNQcen/sV29SDAB5cYSkqP6TnX+B+X6zdLs4mhmONnoXFd8bG5gCq1gLe4K6dpucbTyBJbWp6CxO6A5a4sssYmzKID5EIg43mvAfiaLD1QRFZYcsHXMTnIveJ0VZE+BOLK9fYn/E4vEhF9MBj7jkQnuFjM6arKCIFn9Qv4GpW6dMENvc2eL6cLdSmrkOlooHZsScIpF/UdkfS6AyC84iJPt3PxQrzIa5muIf9ZGJlc476IsglswuNg6YkGPNSsn8B2zwUorBgAxZqczI23ADYg7IrcIHVjI6fv00plIYYIFvvuOQ5TxZKu79h8W2amlcA0rcTIAMQDEBcMunSr4n7576rWQ64EWG8yk1yUssLjgCqa6Kyp7FSgK5NEcQmuRGCtRBEDHGSK7YEu6x5MRlJzYqghfiE12Wd2Np0uWB5ZW0ooNnyYyCFXLtlE/IvNErldLOYAoGo0i4i3GAMjJzPPA3Ar4T98q8otUKtkv5jw2bUuyzZ4lz8y6MkMAL9ka0fuufxdNoKKk4iBrYilwLg2jxHTb7thlTxTp7mqIf1WhMxgxUAxptxVfJDSiQ/gmKCsQ7Mox+w0dPyYUhxtxBv85X3hRXaSmchGAlg7hiV6BU5YFk9utnJDOZTICd3wXRv66jUv7zwy9LE4xcMux0u43GSnZ7sQggwBgxgsmMRjr06pOKTpwOL76AEiP5BZhZp0BsHyUZKTkyKnOyTMmbKznwDEwx3AGFCt2AZWN0V/lCSam2MKOOBhNBgb6hKeGdX7c3qlGIFQI6LK0HTvW2UM2odLRL5ooebsnJFMeSOdI1Ch2mHhtWsITmKjkK3gwipA2Bj8n2CbOfXniDVvW57OozXZIiqAFDQWLQWVAxsdYpKFHiH9SJWPAU1P6DH2NPAMyH2el8Y6GSrKBk7X71TUn/1781rAVBy7G0R8ySABkAHWQcgdff5w7+UBq76o1Ok/Te34PMnoYyKIjKRAcUiYVZEyEZWGRCTjE09mtlWgG2kWIdnp2aHYq4oNzE6YvinDpLxVT81KjeUprBHo2EBSU1+XLr1blRTqYjB788OCuFBR4ApeqUaXrFTRhEF5kRUMj1e/vUqeKEQlMhi53fxzDjI4cEIvoiqzUUkhNbrg+2wlS4VCy5cBVGhaBmULyCbtyd7eJ+4TVxfOYTMVcpJiZAoux0tWO33/vy+olfwiEGvP4OgHIuUi3osIOdnj76RmSMkhXj1yt9ATswO7pmFjq9gScwBL5Qf/SX5F6JNyr8CBeZVWggnGRWmZBUurHmu+nMM1AUTsDGoxVKWmH8S48ZAL+TxmODyhRxfnQAIiiWeskECOtAIleVOHz+qMEEUkDHz58Rgc8DxQCAb+V8lbgHjXGAs6RnSPuvn5XcT9whXiyzxkLufTIBFs4tvyVwkfUGGEAdnBoMGgNAJbuxlLZy/E0yNneKrMIBIFkptPBiAAmGGdmNb4P390JrpTpopADMKlIoSC+CVGeVpw/+QE1b5o9eLZOxCrFozLXKdoDpLh1mADynpYl9yVyxbMQqQR32DygpIBZyi4SBj8d7kCeCT2eGu0S1Gfsgf54jx+HncT+mYJQXEahTGTsGKxp2bOo65xfG3CdOi/vgUbgVm08gjLhR/kZlAqpgzLdP1u/HkV90lFk/aAyANghFmRNhN3CLLB27Drb2sFlHSBSio+CoX58082zAcukIKxoqSmPQYMoGm4g0WzZMputl0+nn5QD2Fhyq2Yl9CHfLZJoiGxQWNZ9+AdrPRHb4rbPm5Yu7rsHHBAhg3wQXtjgfkfvmbf4oCmfAG3EZDX/+BIN9Q8UzFdZh2pp1UG0IFPWnLkzT/ezL2LkJZ6aop8J0WoqkrIOzGrhC7/jZ7+BUhEZ4xJdbul+DbmDpgp64UXATkQkQaP7j5p6nDvwrGACnAAPrWknDTUlkVtFSWT/jsxgh5yhRuT+I1PkNxJX4Owdbh3ZXg0xJRSeOEnKxh0A1q68PEc/NOJdgf9UmOVW/T26Y8SeyYsJNmFLA9dUl0iFs0yZLypxp0lEOu3+IqdAKhqP9sLVW/IwdRdUXT7h3N8EbMM8UgAWi4KwDWr956SnHbZHURx64ZOodtkLsanbYk/wEW3qf/qNasxfufSlKE8/EseikeWIbN0psC+aKfW5xXGv5inmgUE/pabgm36ZWtVTPxh/bSCxZr12NsyCKpPuP8Cx0DEvnlMrw63pnq6Q98imctTBa4Tc83MbbiExAJ/rZnm/C+Kd20BgADZHmFq2QBxZ9E1tzcTAD5j5DgQFwX0EV3KZzGZIm0ZECG5n1gkpHadj1YMo6kgk3wdT6uUP/DhPsrfL5Fd/DVJD2rWxXH8eIlHGy38Ns2L7mCrG8uRU0x25NA4FYYUJ8/oeb7aZr74XpKx7c0OdgFPWmYyTlaMq8kG/q2PGKCSS7OhedP/QinqZ66WqCZKTwAPhPoV679osTDMLrdknahuvE+q2vi42HlMQcDEnI+cbb4qrizkHkyQAc2aZgk9XqFcpewzJzsnixq9PSDYaMpvDU1IlzzwFxwMkoQzR6IbZ7Bc19dpa/ISVVaGRfub0iJvkFCX5S/mx5eNk/Sm7qyCHBADRKKpqPy+nGEpmWvwgkEb1zOCwYNdgr1E/nYFyp8HFj7newZpf89cYbcQ+HEvw3WI3iA4/Q2tddKVYctBFvUDwDidRJ0thJ6MVUyOsAjqyg3g7sS2jDSUZtMDzrgDQA7zlJC8AhV2QY+k3ivmZTbczepKz4YAGJwYtbpAk/T3HytnaKp4sSkyou9j+Aj4eudG+BG7FGjPRgNqpDY1OTY+21yn0YfT2mrF0j1hS2BSFBIVglcH2wJaZywjABo1bcAPTsoX+DUsvwjRdTbgmM5AESCzPHyueXfxd2HJHP90tgkQnJip2zCyspJdVblEJ1XM70qPmyQR0wuKGLbEpy4QLj8FM7COqfPvg0pIMLKtqgMQLCg591JCSzldhKzKHH15nCwR/0DuRF23cyAuUUl+k4uuGHdQbQMPCgaotUeB1LoIYcDgEgTYCB8Io5cZ+JeRhHLrw/w0LQApddFm6HBlxxBaxSeeHlhx2eJrt0cuqF81TVLmAG6lQh5hlvvj4gmA9tR1ybdor7yGk1CPK8BXACceCYt9S7rvcPBilgyDYaOqEsL3AocEnuKjkonqMngIroiOw1HWB8Fk5f+U7lsYQZxImcuDDZOzLLT4Xjik8t/L9qlyFjKO7XO+ol9cZoNC/OTjiKcxTfkQ2zP6cUqX3BzkNWIRNHrYuRB44zw1mGv9v3T3Lfwr+SEeljoqZJ5kfCw86Xuu5acb7wltGJ0JEjMbJAWBDLWFqEQ1Dc4Imd1tfG2DpsycQxXvAjYMHIZuWcNlrAyGibNAkbm7BaYVhZiL14EtJG1l+xnVI23CAOuCVXAc/WyXBJTjPcWAO6hH3FAvHAbTpc+6AaeOFCGwIBFiUNwICtE8vDOH9RSQQ4nYj14kjuDyhXMREnGAjes8OHMj4vHJ24dn8kHp4+RIMqdkduGb71GrGACfsD3I47rlkmrifK8B3RIF25y2vFtW033K1PV306Eh32YgLMtBZ27PurNiMv8uYAoP0lJveGY8JtxV/wOegYGgxAY4Qu1F89+hPJh5ORWSOXG40WEwrZun0HTpFO4RTkd3C68fqZD2OJdHAPNVUjUEGWuCHqsnMZozpGR8yBQwmao62teIrYaZ+PTTmWdOhKYOVmySIZsv6QhzJxeCYOzbDnQgKFh1035rQq30iowQGjKd/8oqTIF3vFCEf0inmRCdy+vld8vgiXJjSiWgGAJJH93K9QTzABO6Yz7Mg4qoxn/wmvOKjFU1ElUoXNdF2YCkBzb5kyEYygZx8CPQE7rgCN4IxAL6Y+AkWoddokAuEv0nP0uHRv3ioeHoHGw1SxwckKE2fH/XerOLo+QBI8Ct2CPQUvAJXAJX4eKFvpGTqlqdlwlhKQr78A3IRlAvQC3AIHIIMRPBCxpo1YiKXA2xUDiqVRBgPO0DI1oT5/6D+xx+GQPLD472HCDCLvac/QJP5nMj22WyyB+OBqyb6qD2Ri7mz4IbghJmkjlrzDx8EwQOKhiBlaGby3QCx1XH+1WN76UKyTIJlMwHLoqJHwdLvKMGrxZcqOY8PhHZnf/gas3SB+02MQNgkJT9XJxk8XzrJ0GtyHJVAdAVd/JwhI1xcy/WkC8uGtqmfIu0iPHBw5nRGf0ZwhuQQbhNlgVKU7tKYPnZ8CF6N36qMPSgpOR1YnE8OxCU8+NhSjRkwLTnZOu/9OcdfjfEFIFtLeIjbgzzZtss5K4Y5TLPv8OZCCposT3qCV4RwGDCcOinEfOyG2lct7cOxPadwE4ZiANuI8wBMwB+W8dsD9/ZGB4d+NMz6jNOXaEi0E5kvuUTfwxtKfy96K92Rm4RLlbYhEFQthGd6GVeV79bNwlWUD0w3b1rKXZFzONJkAZpDwQHDgE4LHgMOnLZROGL3JCMJwq7SvPSpC77YFiIOjudXx3NgBSIWVrr9iAuPGYKlsDLLom+PpdLHUq1fcQIYQIYNeaSLEi/iafDFit+qdqnd5pA3EU9MeMI984G7iOJVQxyWebNOwwerRKZAsIGlAupD2dghMIb4XmRHi0kIw4xtfkI4f/pe4th8RS2ejePYcFBdWKGyLoLuJoMQNYgKEoKypRBqwJKjMEBVIA/eH21HnwVPv+NzpfuIZuNL7VxIbij9KTx+cfhnm1U1y55wvx+EqjLYYXZCi45t6can0DKYFdOJSmDERClxDedq/WvROZcnJkoyv/Jl4v/5Ftc5tgScliq30uaeJlFfCzZ2AXvxI0+ob8IGb3pn63uj0ESMMow/RcKG/qSs9LfFH5hoGtxrbPK4smzqABthdQFlJt2nckk3dS6TgZwKaO1c0n4b2uS4uLhcp83jek26csLNfNOYqtYVXIyCePAY6rsbZMbgH++PxXyjXaetn/6mMyQH3VuJzLBDByER5WqZsGV+wwqho69mXZfHYa2S0fYq/c8aXS+/YJCgv5uP2tVcZBAdRnu1BKU2NfhzIfVSn66mJUOUWhkh7l2K+iQsDfeEU37mTUClEJ4wT7wS0IQqwKoctaC60YaQQ9KXd2QIHHhXKSjBSgmS9B5lhRBuHZUHsCKS2fAgEjoIn60vkhSP/DucnFXAVNkrumPMFYD+oS/RZk+rWMoO56wX0PlP0RKhrr4Ivxg8N+wFy0kQEEBS3T1uhiLJCpOc9mYDq8CTG+KqXCIjMPGLBgGobtg8YgmovtBnbj9OymJgA0tZ3nMcGoRrMAQe+E7oxFRifNxOedgKWPWKp+CDEoQTggqh1uuGgvITTlMubSiH+p8pnl34bezog1rMxYgwcXTthk8GFsv70LvpQ2F7+Chg3lEZmMDHQDwz0SAKgwUYcidXcVWtYcvUjs4tJ4vZ2Sz5s6NNA1PF0oospsz9pyQDoCbm0jpuqfgpJ4IBym37DzIdkPAyD9KgZS97Mi+J1ZTOOlVau2WJJFRzHCze5lS1nlZs3MhQzmBiIFwM9TAApu0CIHU5oHwdB3mNnyMPOQCq4LsXADssfw0dV78nLsAU4UbcPUxeH0mNc5nMZHi/s6jwGZwMkAawv9yMQb3SQub38NWMS2I88zCTDGwNBcj83u7TjAJDBCJyCZNihjBqknYp91VmN2pDy3zj5C9l2ZqPUYy6OGZdMLZgna6fej9OECvvKIux3GmY1d9UpBhPHLCIoLyoID9d+mFAJSjM8fQ0qsI8HLcnxqtPrK5MGfg/NSscz+G2PZMM0Oh3j6Hih6cM963T8Fniv4+q89FW/j+1KuHryDQdbIOyheeoy9VV/13Dqq37Pa2DcwHsdV18D00S7D2ICtBCksktrfKMlTPg3TqNjn0onvPhIGWok08Pxs4d+hD0BW6XLiU0h+Dcqa7zcPOsRGQMvyAQ+XuSzzHONRyB9tV0kzr1Q6Nag7VxgS1xDDhLwIlUt4nvW2Q2tcnlFNTx/QzKEorOnO0ZM5vvglVz4IRxdVIglcMN0t7q2TmovNOA7G9gLG6EcKYKRkZ0KqzCcrwN27+Vwqd2NQ06YxgZ/b2PHFEkul7p84ey5KmmDW3JPNCUsFK15WOospJ09jZMQdHsGlks9Tl19o1TX1it4fAKfr6TolxQ49JgA0+Z0HqKCwA1JJ06V4eBgWkximADsI2HwU4hfYJkaji5YF56vvSAtrQaeLYDZCW/CM6ZOlAys6wem0ZAY7eORivPVKh2lQYZp8ASdxmXEOIOfCZCo6baL18ELlxYXIENkONN4WF46/Dj29h82iATMMjs1W+6a+xWZmj9fdeBwjRUNj5oIzjWfxMlMsM4M0xmipQ/6hiZzYpmxrOmoTM6FDX0C0NgJ4nxn03ZF0AaNxZYpO9SCuTPllnVXKybADrUPXm7e3bQDGmowE+wvWLFsgVy/5nLJAhMIF+phoPTyG+9Jra9TpsF5xh03XycL585S0Ynr97Gr7tjJM6rThcuD74hj3S4jC/JkPc5MmDOTDDv4mwudbv/h4/LW+1qaiq2uKEBGIN9P3rVexqcbW3bZ+V949W1pbKZE7cUxjalyFQ4RXbMa5sEhoQvGP5u275G3P9jug5PM1yPr1qySBXNmKnyFJPEzsSaYIT/x5IvSgQNIGZju9puukVXLFyqdnq53aPpwz/5WIDexYROL5irhIif1HXkPKeYSCJp4eN1S9jxWAH6CTuZSDWV0Xrc8uPgx7A1YhnfG8ll/wK7BmQr0OUClKD0jX0yAXyK1uWgyDM8SElD3Zmx+qafdeRwZkgm0YVTjVYdOjOzs2FSaqu/YTKNxrOMEXimFNDW1SgPLRodP60yBwRys5QJCSztha1JMJeB1xNtGxP2P//6t3HrjNbL2qpV+KYUJOPAZMDaDocdTW26BwEYdnmjsD7C6bW5GfYk32IDAFZvuqIxi0A8kBuBnDw50fealjSol6+lCvVctnS/XXHEZcGVMpSJ15n0HjkjZuUpsJ9AbpSzyLhjjssXzJAXbsyOl84MZcONnAnzH+gducgqIl/RbN44ga+ioUR6NB0s5qBtIuVXHXP3Vo/8jOyveUG6/iFS6NYftpnx59U/g0XihauR4kB2IRBLemYYDUoXTlnhE28UEOvWwwqKvtRueeOIk4qjlKsaMGL5+wce+OgnLj2buHQubjyWOgjsgYihTUZ/UoGIAb3wXef6P72B6kC+L5xdjmhFifutDhs4rFlwa+AjDOAiAet0DpKYvD6ShY6Vn5BdPPo+2x9ZpwMlYK+Gy7b4718Mo0+iW4abljOuCn4J3t+xQDEDDSlZ2qqxcTp+tkFnTJkdlsr5q+i9BTICabjscXLjQIQc6cERt6KrBeQFtg7JCQGSyk/OE4LOYp/9q32PYsJWF5T9jHspvOam58siyf1Y+/8jlYyGScHhkWW04selU/UFlZWjHOQgXE0hrhIWHqCQrMP8R2BcwelShIthI5VDcHzt6lJrvR4qT6PfEJ+fPnHv3dDmKyG7xQEy+UN+AjoOpLj4SV+9s3ikzp0+RHGxeihSy8W3ieOxziBTB9555pKbq0Th6ZMLJUAoPQD+CVKIZgB3MqBinMN0KcT7Lt8swHG3p9EeOn5LK6lqM+Ea5fM/4ZB4b391ycUyAB3dkYq5Ll1bkLAMZKA5XtZzGaNYATfvIfnewWGHWiOOVHfxc0wmpaD4B898n5EJbpTqNCHg1AuJMhoeje+Z+TSbkzWL3j7WYsPG4b7wcjOZwzXashlwcAwgsgKsVyQoU5Zcsmit337Kuz9oPLOVw051V5mL33Oc+fQ+qz9J72qcBYvmzr2yUXR8d9o+OJ0+fxXSjJSoTmI4tvZ//zD0GHfo6byTcxlJfZsGOevjYSflvuAQnRyLtURqZjX0Xt9+8VkYVGoZy4RiALpvTiNff3qw6PNPbMR0hPTohHTDdwSOlUHDWqbw0jeu0ka5BVGMchJED4Hrmc5ESJvo9Oxznx9UwfOGuOkNASnQpxL2BfF7pNOUUjH3eOPGE/AEHqvxu37/gVKV65eab8BAPKbZ0WTjmSuXgZEKuwQCI7GgNFQ1qltsGsX1P5Tuw0KwJpNdoyfr8xi3YqYA1mYHKJ4U/FELCj/RLJgyR8qYEQoiA3qA2zsXqwE3YA0HFINuUgVLBeXQU1iVSoASh6oo4keqp3zOPWOiBI/jTL74OP6o8fNZgXtPhY2DDDVdjhSG6L0AN65mzlXICTIzlsfyxo4tk6uTxmA72dOW33t8WEzy67kHTgYL0sXDlPUrOYlQ0TgnW0Qbmyrn4gepNMrtwqWRa8xLWQTQC2ZykAxro7Dy3UY7X7VZm0mebjuAtFtd41jsC45EBZEP8v3bKJ2XxuGvhxcfwcBNLY6tMwvwhHFxxOFa3R/ZWvQtxMDYxMkxWwa+wFOX2dklWWq6C/WIlleDMe56oL2L9LwYHPbkl7s7Xt5EhYevJl/gmrKlYqqQWn9MC3XG74QQkWmA+iaorQTqOlYyXsOLBZUgN1+QJY+XOW66TKSFbiKPB9TZWbCj5MA/Wa+6saTIGUzQuwVJRym97Sw7LTdddKSO4PZntFS1DfAtiAjlpBTjRZ4xa8uojXVI+81CT/ec/kMsnbpCZI5aqMvpHcOzEBojs0Azs+PSW9OHZFzF3dmIuXo8t01VKK28N2LCkOir3MWAn4L3zvy7jsmf4twX3DxYfHACIeXdC5/HykZ/CTNgJJhDdpZiRMoa/qpUt6uASVd2+Wj2GLEOjUAw9ikMtfo+RzBh1Q2NwZLMIR7alCw0X6xeDr965R37DFmaViV/+Qsvtwl78OjAAHWzoGDncFh0lnIOdwu9ffAN1DS8Vk0nkZGfLzVh2jBbYKSvP18pRSAFl5RV++EYXjZBP3bNBxsH+IRzM4fKsqKrGsuhpVT+mycNOzznYNlxUWKCUnWq1hDTW2S074GlYwYZnMoJowc8EiDha643KmoQRMA8ia0u0dEn75oZY94eSH8g31/waZi84Fz5Mo4YrnPEY9JX1pvJtV8Vb8v7p3yuDHAucULXBRJcdhZ5uA+fjqhyQUrurUf50+b9g+W+p5MHDMckrlKhUQXH80TCRUh/f8RVMA+jCPUEMQMFBCceGMxnHEdo4IIstqoa/Aq6yquHK2sB077QOzG/tcBummUDvGMl7Q5jYTqFt1Y7lyI3vbpVaHJKiviNeKuwORsP7UWhcDR3f03hoy7Y9EetK+hozulB1NEU7fBEmtMLYag+OCycT5c9gV/QR4pZRYAQMCq4I6VUEQME4W3Z8pDo4CZjMhVOBafCNSOZbDPuHMhhQcamT5ew9cFiuXLUEeo8eAysjr95//UxAf5qcNw9a8AJphnJwMI4bIxHXYFvu/+z6hvzZZd/DkyH6hDaYJkx9JQ65sYfHpD1z8N9l+7nnoNnPw2Gf0BjjPSUCi6UTUg46X0B7KUkB4nQ7nIFcNu4m+fTib6q5tfaqFFquxlOsVw0fr4/v+AIUgicDi481m6jxLF4b/DHCuAQ9IdryXNRMonzUOGAdqICKFPjdFWHkjJQmEe9ZLsXtH/30N0Ejdyvcdp04c1Zp0VWTAz/sIMuXLZQs+PeLFpBl1LoyP64+9BUYT+GMbQMiJawMtFt49uU35b471qvnaH+4pFhbVy+HT5xStgQgZTgJSlU2AVQMMk8ueW7aBo9gMPLicyNsLA4eLpXLL1sULWv1rRcToFcfmsFyqWwwgiI4VLLk/A55Yu8/yN2wyqMzTc7ZGajJ50YnnozkxLmEHO0/qnwfRj0vwEFqOeKOxNJeGnQbE1TH58Yc5hk6QtJEmh09BWv03P3HcugeXBO8vqpC+/mHjcF/dN/+1P7vYMPRUZVTIvL2g4Qyuj0d0FvcANjDM0x/3Iu84ejj8BFd76ywRIUz8igNhAaD7I23Afw3NJr/OZY4/si+m+aWNqV5D32f5jMXZucngyzC6HvNlStg5gvPvxEDBwzQBrwoRVKSc39+j6FOxIzwAbXxIYAd1kWFI2Bhx96196DMwAEiSxYWq5E9HF2oQQpZHIDfwGasaAAgRaMZcNo6HVJAGyQdhhyYVFO5yM5PuiMD3H/wmMo7LTXVT9cqcsifICZAIJgBT/s9Dm85ND4JGjZDEifrkXBQafZR5SYwo1NyezG8ydrS0Om70Pm75HjtXtlZ+SZWEk5IhmMk5uzGzsPc1NGqs9NNmdHtg8mJdaNRUm5qoeSmQ/+ROUpumv6w6vy6LuEaQn+L9cpyGKh7qGkrh8nxf8ixC/sUbhORfxAcZHDYTjx/1GqVPztqMgJFTmqhF8yZBRz2nicT0zScmTDGUKAGwkDNNVGi8UKdgr4PjKfvtaZfP/Mar1SqWgASHnFDGs7EyD8B/g1vuf5qmYT1fwIU0dEGEo8ePQImuIuwUtW7roQHNnnwthZdmmA8xQGAF04/Lls8X3bs3i/VF+rVlxZ01Nff3SwjYbykYMLbXvQBWJphgkx9TDsOMdEUTSvEn/3uuR79DMpoboZLMdYL97xWVNfAJuGszJs9Q5UX6U8QE9CRZhdeBt3ABGmtb9avBvzKUY0Nxb32j2//mhpRqVRLhfFOqtVAfn4aRnvKwD5WG4xAvjd84FFznu0YIRPzijGSWWU6lI6rcaKxwTwYLwzy1dv4/hgNQLDBiWHvcKB6i2w58yKcjhxXW46D4Ysv70ixOcLNKFgiBVi9SEb+uly2B41naNeuCVF/C7xqGHqu8KEJBZYxohpSQhOIlZuEOHrpeIF5cFTnMp7+xms+HZhGCTScoaENR04uZbbCXz+lPdIA00/HhpwH7r4F/jyNfCIyAKQgRRTCp/+6q6PXleDoTsf7cIF4G4P1/zvWXyfzsaciExLIs6++pTYYASypqKpVewfu2nCdHzadD/NmKD1dLufO16i6aZzQNPtU+zkdVV0ZX8PDePXwL8hlyRlTJ2FjUWR7lLBMINWeLtdOuw/+7f/e13hBZSX1gZVwQcwfnTlVNeIFiPg0qyUy7VwHB16Mjm+AwRFfBxIAn5lHt7tdKThnjVwhIzHi56eNlvmjr0RngTYWCXQ6xWx0Bv24siwdDAJ0+ZcfS6q3YTWgXUk1Ok6iryB5uXzSbeqw0kTn3Ts/A2uaEHt/73mjiZFvxquzAwxGy7TlFeelBuv03FkXKrnQJPYk5vFUqOnggFhOTbiv4fRr/5UUMA6i8LWwuecuPg/m6u9/uEfOwraegbDQaKgWI7BmAupDlD/MU/3YU/sIRl3DR+JOyYVwtT5/zgxISiJXrFwi5yqrAd9u0LOxl6IER45zlYCbjDjXD8RvB0b/E7AwbPTtRdClKKgCaI/vDXgNNPGZjLT01FmphEJ3CtyfB+bL7zr0YgI6YnHhSlmETrMbJ+kYJ+ToJMm7cg19NCSQlRPXy5isaYoBVcO2fnfFu7BdOGaIhGHaxOjUPP6rBdODXLls4s3wyT8dDksz4Y57rozEST26XryCTaASYTKKsWo9HZ+cl0j3KtdsW8pehK/BMuwJOIFDXKuw+oDDNgKWH2PMPuZo1I/w2PKpBfOBm/B28DFnFkNEivsajzFEV1GIq9FFI7G9OBviLOaveG6EJPDO5h3YTjxCacg1PjlPPoDdfNxY041lPR2oRc/B2QSRmowwcU18BY7i1iEfPv1//PMnlRae6Sox4m6G4mwEzjpQ6+c6YoQr9Qfx1DWkP/pzZUdPQ8fWzI4mwhtuWCPnsNx3Cicws4yO9k4o9XarOX0x1v1pTsxAvHBF5vgJ7JaExIeoCBZlF6AHPL7RQVE14tTVNQJ/3SrvCkgQp8rOyXhsd9Zbu3V8fe3FBPQHrp3fDqeZR2p2wJ6/Zy6ivyfjmoaR/rrpD8iycesw5zJEx1kwHErHeYivHP0ZRGzuKjNKJhKIEDfW/zlzWD72Rlk09mooBvNx+s8Yyfct7xnx8JfRETTBsevGF4z4FCMx1sDasEspT3fB6Ki0fjdGICv29FcrRmRD5ycDSHagYnMVGGY+HJrEQ7D9gYtEePDICexfb1OKrWjYG4VOfzk08DTQIVyp2OO+EtuHN773oRr9WD430Dz+i9/L5IljQaCjcGiPU+2KO1teJZwusL3Y1tSsX7VqGQy5+tZ1sCzdvrOmT5Yb1l4hL74GoyykdcGict8hbLVGeVeuXAqlnuFANRIuzmAjzi+efKHPumZCQbcSdZ0ycby/7Eh58j1hzMPpSg/cdbP84L9+rRgj68klyZc3vq8kgnyc0MR6cCQ/BTi4T0DVDZQ3GYe7fObe20j64QPwtn3XPnn9va2gQatipjRV5tbkIkxLwoWwTMAQ+uAcAj7//mTJY/LDbY/6d9KFyyQR7ygFTCooVkePcfRkpRks3hScSLQYNvszcTz3NjW3JoLc0PrPKliKo7geUkd/22FoxCXC5s56KcO+/3Kkz8EeBE5tMnASEO0CaHfA7dKkLvVPlWHcB9eB3ZyMAypGWDE24gDQIzU74cvvDKZIH0ltx0noJXKxlJitmAFdhnMpk7u+bGovQLQuElxSf5/IhBaNuVpmY7qTMMvDKMAQ5zS15VIV+WfkGnox/54ki+cZB6KwHfm7csUS2fPRIWlsbSUnVvP28zW1sOKrV5pv5k9GYIx4TMOVIK/MxcYaLn8xqI6Ad9GCjsPR9IZrVsuRY6eUcoyKTUoXb8JnwFSIxhSPWSbj9wp4x70Fu/cd7KOuOGcFHXq2z0dBr3xCXuiyWMdxmCLdfev18sRTL/hWBuC3Ah3+5Tfel0/fu0G945bkg0eP+3HihK+CNatXKEbBvHR+gcUQZ1dhWvHeh7vAROjYBAwXy6fVONl4BKdfYdKFZQLMVBWADGeOXCJ3FH9JXjzyOIgex0WFQ1ogFP2+90iaNRPmypz/BzeMAysF/BmjuoJOHGAUe6uwMaTyJdgCjFGGP1ZqgznxomjAAKZA3RDPimRasg7a2Ksujm9OKAzpjcfLk2wDAg+/skMPwQ7tADzUTHPJiHBRBLdKFjo/2JAHW3fxL5kifwBY/lsSbxG8Gq2YcCMsPJOoEAxuBiCRnTd6JyRstLsPDoZnoAfvv01+8sQzSlRlLtTpUonXAYamg257VUcQ7de/+BA+hSkz4FXArcqGeTA9d9U99Mnb5e++8zjKMRSNdQ1N0MhvkQc/cTtWDNJUPF22vrLaTN9XXRmf+UayoNT5hV45NaAHoUXzZsnV6LAfoMNiCFH09d7WnWpD0WVL5inDLDIxPZWgDmV+8TSVncZTr7zxgvqThRj5d+07pPKkAdH+kmNgfhPUbsvQNBGZACOyIHaAKybfJvWd1bKzHGaUQE4kAEIzj+eZ049zLcekrqMC4nwROJYxHWCHrcY8uxpLbYH+B9nwuWnGkVaKVv2Mg198Rhz8gGwMlsAHVBf1IWdANSTFYiwt4kXYYFFLTCp3xUCYhoENhr4/aIHLpSvG34Sl3KuTBgPbOB0aZXYUNHjM5ZA+jDlwTxqOwhz95sLE9c//9H556fX3YEpbg/m6Uzi6MQ3L4OjNtXkHbOKXLiiW26FRV+wb33VH0ICwDBr8uPkNaUPdamka5arC3RvWKVFb53Hk+Gkpwbr7SnjhYTxCynJZ17gUxSg7AycZc/2/J1jUu65uY2ChZ6EUe/g9IlzNuApTE+LifPUFhYMM1Omp51/DFKlIDkGM5zPxR2bJaUxqH2v+xCPhWbFskRzBlIuB9Tt8/KRc3355WCaAQ0vYApGD/sz17leP/QwHXWyDwYOhdIicqn9faN+/YvwNcvWUe5QBDwGrhJ3Ae6d+D+Xg22p07l/OH59UbFAqTu+a+2VIR72lpkTUlG3OufgxrE0r7z5xZMo249IfzVlJ5LozMgtNS1QAcv2aWnGuFHSBGXAqRR+C0+EnbzEYgNbiM43uvIF5HDpaqjTmlO/YjQswShbPmNKrPKbnrr3DGFE7cTUCGA46yuWwA+B3juZUwJWVV7IPxRW4NDkFdeUozcDOumf/ISXt8NkGM2rqPCaMC5bYenDhUUpC6kICJR7ikHYB9DbEEYt4nV88QylYFeOKAqiqM9KWHD0BP42GRybaO3DLMn07BuKTMPbJBBhJA1zVekbeLn0SJ+K+B3HYGYRwxktEoCXgJJguLx5zNSruVWftnWrYr7b0JiL/oZyHC2Lzyok34azDP5dMHhBK8o+TaGOtv25zfY01nY6nO7++6veB+YV+Y5zA73wOH0fFDIqr4+krYzAE5hd4HxovNK5KHOOf0LwCy2EW/B4aR2et4+qrfq/jB77X7/RVxw29Mg3j8BpL+piYAAvRmdFF9vbyV+Xdk08ryzFy4cQHOEnweclxDJCiLfF1SGyOHigo106/T9ZN+5RiAH0RQmJLN3P7OGMgZiZAJGhG0IEzC49e2Indft/HEdk4Lx3z+UTzAkMAUmPdxxn/fdaNisyc9Hy5cfqDsmrSBuXnwWQAfaLNjBAHBuJiAjpfwwTUApdcx2Rv5QfyxxP/g404hjFHciQDXfLwuRLHLqxeLBq9Rq6Zei8MghYoZWk455PDBytmTZOBgX4xAQKipQIq887Dqu/Fw/+FU3C2Q1kFjTuWP5QGPRkQf8zzJF65bJmRkiW3zn5Ulo67DjYa6ZjjGUtIH/Pqm9UbBAz0mwloWLn0o4R2qAaoyX/m4HexZfaAOOAH3wNmoJmFKcJqjAVfFX6AJ/oEoIGSx9uKXZNflXUz7jdwB7UwcWfiLxhv5lPiMHDRTECDQmLmP04H3BjJtp19XTaV/UFauxogHWRhqaNLKfvoR5DbeYdzoE2EA+7dHXaaF9sh9nfI2OyZcufcL+E6BZ1fM9ZkKF2HM+bNuofDQMKYADPXo35PQSRibqttwhHeJXDpXQp35rVqm22olV5Pmo/5HcT67JQCZZI9IXcmDjGZD7Nm7JBTgavBRsc3R34fSsxL0jGQUCYQCm0gU9BSgkncBpYCJSeNNxM3GhPmdSAxkFQmMJAVMcsyMWBioH8Y6Ht/Zv/yNVOZGDAxMEQwYDKBIdJQJpgmBpKFAZMJJAuzZr4mBoYIBkwmMEQaygTTxECyMGAygWRh1szXxMAQwYDJBIZIQ5lgmhhIFgZMJpAszJr5mhgYIhgwmcAQaSgTTBMDycKAyQSShVkzXxMDQwQDJhMYIg1lgmliIFkYMJlAsjBr5mtiYIhgwGQCQ6ShTDBNDCQLA/8LJ2ORR9CGltgAAAAASUVORK5CYII=;" vertex="1" parent="oQB2d7SRe4JEm-w0o-bS-14">
          <mxGeometry x="6.5" y="12" width="107" height="46.21" as="geometry" />
        </mxCell>
        <mxCell id="oQB2d7SRe4JEm-w0o-bS-18" value="Service REGISTRY" style="text;html=1;align=center;verticalAlign=middle;resizable=0;points=[];autosize=1;strokeColor=none;fillColor=none;" vertex="1" parent="oQB2d7SRe4JEm-w0o-bS-14">
          <mxGeometry x="-5" y="58" width="130" height="30" as="geometry" />
        </mxCell>
        <mxCell id="oQB2d7SRe4JEm-w0o-bS-15" value="" style="group;fillColor=#dae8fc;gradientColor=#7ea6e0;strokeColor=#6c8ebf;" vertex="1" connectable="0" parent="1">
          <mxGeometry x="340" y="150" width="100" height="178" as="geometry" />
        </mxCell>
        <mxCell id="oQB2d7SRe4JEm-w0o-bS-9" value="" style="rounded=0;whiteSpace=wrap;html=1;fillColor=#dae8fc;gradientColor=#7ea6e0;strokeColor=#6c8ebf;" vertex="1" parent="oQB2d7SRe4JEm-w0o-bS-15">
          <mxGeometry width="100" height="178" as="geometry" />
        </mxCell>
        <mxCell id="oQB2d7SRe4JEm-w0o-bS-3" value="" style="outlineConnect=0;dashed=0;verticalLabelPosition=bottom;verticalAlign=top;align=center;html=1;shape=mxgraph.aws3.api_gateway;fillColor=#D9A741;gradientColor=none;" vertex="1" parent="oQB2d7SRe4JEm-w0o-bS-15">
          <mxGeometry x="28.75" y="8" width="42.5" height="80" as="geometry" />
        </mxCell>
        <mxCell id="oQB2d7SRe4JEm-w0o-bS-10" value="API gateway" style="text;html=1;align=center;verticalAlign=middle;resizable=0;points=[];autosize=1;strokeColor=none;fillColor=none;" vertex="1" parent="oQB2d7SRe4JEm-w0o-bS-15">
          <mxGeometry x="5" y="98" width="90" height="30" as="geometry" />
        </mxCell>
        <mxCell id="oQB2d7SRe4JEm-w0o-bS-16" value="" style="group;fillColor=#f5f5f5;gradientColor=#b3b3b3;strokeColor=#666666;" vertex="1" connectable="0" parent="1">
          <mxGeometry x="80" y="84" width="120" height="156" as="geometry" />
        </mxCell>
        <mxCell id="oQB2d7SRe4JEm-w0o-bS-2" value="" style="rounded=0;whiteSpace=wrap;html=1;fillColor=#ffcd28;gradientColor=#ffa500;strokeColor=#d79b00;" vertex="1" parent="oQB2d7SRe4JEm-w0o-bS-16">
          <mxGeometry x="0.75" width="119.25" height="156" as="geometry" />
        </mxCell>
        <mxCell id="oQB2d7SRe4JEm-w0o-bS-1" value="" style="sketch=0;outlineConnect=0;gradientColor=#7ea6e0;fillColor=#dae8fc;strokeColor=#6c8ebf;dashed=0;verticalLabelPosition=bottom;verticalAlign=top;align=center;html=1;fontSize=12;fontStyle=0;aspect=fixed;pointerEvents=1;shape=mxgraph.aws4.mobile_client;" vertex="1" parent="oQB2d7SRe4JEm-w0o-bS-16">
          <mxGeometry x="39.879999999999995" y="18" width="41" height="78" as="geometry" />
        </mxCell>
        <mxCell id="oQB2d7SRe4JEm-w0o-bS-7" value="Mobile application&lt;br&gt;(&lt;b&gt;iOS&lt;/b&gt;)" style="text;html=1;align=center;verticalAlign=middle;resizable=0;points=[];autosize=1;strokeColor=none;fillColor=none;" vertex="1" parent="oQB2d7SRe4JEm-w0o-bS-16">
          <mxGeometry y="106" width="120" height="40" as="geometry" />
        </mxCell>
        <mxCell id="oQB2d7SRe4JEm-w0o-bS-17" value="" style="group;fillColor=#ffcd28;gradientColor=#ffa500;strokeColor=#d79b00;" vertex="1" connectable="0" parent="1">
          <mxGeometry x="80.75" y="280" width="120" height="160" as="geometry" />
        </mxCell>
        <mxCell id="oQB2d7SRe4JEm-w0o-bS-6" value="" style="rounded=0;whiteSpace=wrap;html=1;fillColor=#ffcd28;gradientColor=#ffa500;strokeColor=#d79b00;" vertex="1" parent="oQB2d7SRe4JEm-w0o-bS-17">
          <mxGeometry width="120" height="160" as="geometry" />
        </mxCell>
        <mxCell id="oQB2d7SRe4JEm-w0o-bS-5" value="" style="image;html=1;image=img/lib/clip_art/computers/Laptop_128x128.png" vertex="1" parent="oQB2d7SRe4JEm-w0o-bS-17">
          <mxGeometry x="9.75" width="80" height="80" as="geometry" />
        </mxCell>
        <mxCell id="oQB2d7SRe4JEm-w0o-bS-8" value="Web application" style="text;html=1;align=center;verticalAlign=middle;resizable=0;points=[];autosize=1;strokeColor=#82b366;fillColor=#d5e8d4;gradientColor=#97d077;" vertex="1" parent="oQB2d7SRe4JEm-w0o-bS-17">
          <mxGeometry x="5" y="110" width="110" height="30" as="geometry" />
        </mxCell>
        <mxCell id="oQB2d7SRe4JEm-w0o-bS-34" style="edgeStyle=orthogonalEdgeStyle;rounded=0;orthogonalLoop=1;jettySize=auto;html=1;exitX=0.5;exitY=0;exitDx=0;exitDy=0;startArrow=classic;startFill=1;" edge="1" parent="1" source="oQB2d7SRe4JEm-w0o-bS-19" target="oQB2d7SRe4JEm-w0o-bS-18">
          <mxGeometry relative="1" as="geometry" />
        </mxCell>
        <mxCell id="oQB2d7SRe4JEm-w0o-bS-41" style="edgeStyle=orthogonalEdgeStyle;rounded=0;orthogonalLoop=1;jettySize=auto;html=1;exitX=1;exitY=0.5;exitDx=0;exitDy=0;" edge="1" parent="1" source="oQB2d7SRe4JEm-w0o-bS-19" target="oQB2d7SRe4JEm-w0o-bS-36">
          <mxGeometry relative="1" as="geometry" />
        </mxCell>
        <mxCell id="oQB2d7SRe4JEm-w0o-bS-47" style="edgeStyle=orthogonalEdgeStyle;rounded=0;orthogonalLoop=1;jettySize=auto;html=1;exitX=0.5;exitY=1;exitDx=0;exitDy=0;startArrow=classic;startFill=1;" edge="1" parent="1" source="oQB2d7SRe4JEm-w0o-bS-19" target="oQB2d7SRe4JEm-w0o-bS-42">
          <mxGeometry relative="1" as="geometry" />
        </mxCell>
        <mxCell id="oQB2d7SRe4JEm-w0o-bS-49" style="edgeStyle=orthogonalEdgeStyle;rounded=0;orthogonalLoop=1;jettySize=auto;html=1;exitX=0.75;exitY=0;exitDx=0;exitDy=0;startArrow=classic;startFill=1;" edge="1" parent="1" source="oQB2d7SRe4JEm-w0o-bS-19" target="oQB2d7SRe4JEm-w0o-bS-23">
          <mxGeometry relative="1" as="geometry" />
        </mxCell>
        <mxCell id="oQB2d7SRe4JEm-w0o-bS-19" value="REPORTING &lt;br&gt;SERVICE" style="rounded=1;whiteSpace=wrap;html=1;fillColor=#ffcd28;gradientColor=#ffa500;strokeColor=#d79b00;fontSize=20;" vertex="1" parent="1">
          <mxGeometry x="555" y="280" width="245" height="200" as="geometry" />
        </mxCell>
        <mxCell id="oQB2d7SRe4JEm-w0o-bS-21" value="" style="shape=image;verticalLabelPosition=bottom;labelBackgroundColor=default;verticalAlign=top;aspect=fixed;imageAspect=0;image=data:image/png,iVBORw0KGgoAAAANSUhEUgAAAO8AAAD3CAYAAAD19QNPAAAAAXNSR0IArs4c6QAAAGJlWElmTU0AKgAAAAgAAYdpAAQAAAABAAAAGgAAAAAABJKGAAcAAAASAAAAUKABAAMAAAABAAEAAKACAAQAAAABAAAA76ADAAQAAAABAAAA9wAAAABBU0NJSQAAAFNjcmVlbnNob3TO5yNtAAAB1mlUWHRYTUw6Y29tLmFkb2JlLnhtcAAAAAAAPHg6eG1wbWV0YSB4bWxuczp4PSJhZG9iZTpuczptZXRhLyIgeDp4bXB0az0iWE1QIENvcmUgNi4wLjAiPgogICA8cmRmOlJERiB4bWxuczpyZGY9Imh0dHA6Ly93d3cudzMub3JnLzE5OTkvMDIvMjItcmRmLXN5bnRheC1ucyMiPgogICAgICA8cmRmOkRlc2NyaXB0aW9uIHJkZjphYm91dD0iIgogICAgICAgICAgICB4bWxuczpleGlmPSJodHRwOi8vbnMuYWRvYmUuY29tL2V4aWYvMS4wLyI+CiAgICAgICAgIDxleGlmOlBpeGVsWURpbWVuc2lvbj4yNDc8L2V4aWY6UGl4ZWxZRGltZW5zaW9uPgogICAgICAgICA8ZXhpZjpQaXhlbFhEaW1lbnNpb24+MjM5PC9leGlmOlBpeGVsWERpbWVuc2lvbj4KICAgICAgICAgPGV4aWY6VXNlckNvbW1lbnQ+U2NyZWVuc2hvdDwvZXhpZjpVc2VyQ29tbWVudD4KICAgICAgPC9yZGY6RGVzY3JpcHRpb24+CiAgIDwvcmRmOlJERj4KPC94OnhtcG1ldGE+CqtbshcAAEAASURBVHgB7Z0HeFvXefePRFLcohZJkaL23pItW7It7+3YieskTbOaJk13v+7dp3uvr0/3ftqmyZc0ezqOt7w1rGXJ2pMSSUmkxKEtUfj+vwNd8BICiAsSuMAF7tFDAbjjjPec97z7PaMiKiYsIQRCCAQOAqMD1+OwwyEEQghYCITIGy6EEAIBhUCIvAGduLDbIQRC5A3XQAiBgEIgRN6ATlzY7RACIfKGayCEQEAhECJvQCcu7HYIgRB5wzUQQiCgEAiRN6ATF3Y7hECIvOEaCCEQUAiUBrTfaXX7WqTfXLp6wVzqP2+u9F82V69dse+XjCo1Y0oqTHlppf0sGV0U4EgLduHD+QuBglytERMRkl4y3RdPmVPnjpvOc22m91KnOXe511y8et5c1r1R+ldWUmYqSqtNVdlYU1cx0Uysbjb1VVPMuIp6i9D5O21hz0IIGFNQyEuMxcWr50xb30FzoGu7ae87JOQ9ZnoudVnKC8WFCvNnhLyjR40yUN+S0WUWWceWTzSTqprNlLFzzOwJS03z2FmmoqzaIvqNi4V4jlE3Xg6vhBDwCQKjCiWqCLa4re+A2X1qkzlwOoq456/0mf5rV9MCJchcPWasmVw708yZuNwsrL/VNOt7WUl5rJ7eS6e1AVw1NWPGmdLRY2LXi+0Lm2DX+Q5zUPBmK5s5fpFprJmmb+Gm5sdaCDzyQm3PXe4xuzs3mbfbXjBHu3fb39ci10YEv9GjSixyztCCvLn5PjNv0k2mSkgdUb3b2l8xF66eNYsa1lgWe0QNBfhlxJLn93/e7Dq13o5iUf1q89j8T5nKspoAjyo4XQ802wzi9mgBbTz+nNnc9pI5cfaolFGXMwJ9qEqv2O1dpzaYMxdOmDNqZ2XT3VJ6XTSd59tM3+Vu01Q7S7LypCRsdUa6kbeVoFfou3TGbD/xqum+cMr282DpDsHlTIi8Ps1aYJEXxAWpXj/6LUtxz5w/oeWU+bwCKL6O9e43F66csxS9ZkydpbajRo0Wcp+2muuyImWd4U7KSyq1VFH/GekOovoDn9Zu0TcTWDsv2uM3W79jNhx7xmQLcZ3VAavcJWq7RdT9/OU+M33cQtNUM8NqtPldjAV0HV/ZYO6d9UGJFCvNwoZbzOqWR03tmPHFCI6cjDmQlPfclV6zRXLn+mPfE9t8WoDLPMWNn43SkjGmpW6eFulqM7FqstVY7+vaas1RmJmKsSDbrmy612rnR4sTmShN/RiXYq8YYeLnmAOHvFck0x4586558+i3TY+VtbKPuBWlVVY5tXbG+8zUcfOsaamust4i8Fmree6X2anEz3nLi7agviAwnEh0Aw21zH5OTKCQF5kWOffN1qetciobMm488LH9oqi6peVh0zRWJqPr8m2FZL2qslrJvFet1xZeWsMtKNmiDiTnDLJ0uby+MENhf05W4D6Qx2FT4z3D0LRj2z4rhVIJcqls1RMqGmzdyerjOu/1aTPCXFZTPi72KHC+IkVd36UemcbKzNjyCaoriqgo9rCto4PA2cW5DjJf6b9ivdrwYuPPXRgzIsdl1TtasjKwZJNMp7CRn1OfgEW/bPi0UVc5yVSWDtZ2X7l2SbDotuY+2onfaDEzXtM/4B5/L53++P1soJD3kryj9nVuNXs7N1uql01goYiBoqxsvsfMn7TKTKhqHDSxINnk2ulimzut2Wg4yNt7scvs7dpi7aQ9+s5CZvFjO2aRNVRPE6WfK/vp4usLO4owjH/jsWe1aHt0b4lZO/19lgJe7r9g9ndtMztPrjenL3SYi1Kywc6WipUdL+SdPXGpWdJwm56tvQF0tI3yb3/nFiFBpbl5ygPiNlabs9Kqb+941Rw6s9Mq7EAQ4HHbtMesp9q7J9+ypjOQGpFiZfO9ts2u8+3mjSPfsh5uE6ubzE1ir6eNm6/6ejR/W8w+jZvx4zgDLKuF+FPqZkt+vtlMrpluN4kbOnn9Alru/ae3yRFnm8Z5Qg4454W8/fYdRJgZghdmPOaMcW2QeLX75EZ7f1XLg+r/zRbR2ZSO9xzQHJ6Uzm2UvdYiBx1gH4QSGOQF0JgktnXIxnrlbNZgCxvYPHa2WaAJxrY7WYqpZF5WmInaeg9J7u5My94bXTT7zVut39VCflvcxElr4uJ6tOD9VaJFVGNNUVPGzjW3tjykRbnIXn9LnMeOE29Y5Gnt3qtNZoH1DIMjeVeIe/Jcq+UGIqImUU0wG0KZEHuL2XPqbSmZvl+OJ7NiVJJ2z4t6vXLoa5azgVpDucdLNHjl8NfM3lOb7W+oLP3Crs6mhintpYNfkjZ+n71+Vu6ncyeusEiwWyY2xsdcVY0BGYQcpRVmQ+uzZsfJN6ySEcrpsNu0CUKz+azSxrG48bbrmuwoRPiffh7r2Wc3LjYwNihcXS3cRPlBwFJxDQdOv2Nae/aaO6c/afu48dhzprV7jx0vzjb11S3WmQSOoWT0aGu7b+s9KGSfbDcO6ovqzwfazsdvgUHeqwoo6Dh72Bzp3pUxOLIQK8qqLIsKm9pUO0OIsMhO4CT5OUOhWFTJSrnYPChT3yU5b6Qx4bBwrx35hjaiV8U69kYXX1wjUTvzaWtLPXm2VQu13Xxk+a9alvWkXD6hKA57fPD0DlGXZ+VdttHan9GODxS7tPV8v5D6mOUUsI3jTAGFchbp5auXLBWLCEFpu7Vnj3lm72fMHm0u+INHkUz/q+7zQkg8zFj8bBR4sfWbq0IU+Y9rE+B9KBrfeR6RAIp+RfVsbX/Vwizaq4Fe8g5OH7zD5kC/VkhcgSo7hXG+rM0Cqov33OBx0kWx6pHLFqm3ta/TmMUOiyJ3nj1m+tVfAdra6IE55arY+qrSWttfNgHY/tJRElWubwT2oTz+LzDIy2TZhSRW0GuBxSPIYJwoyMTKyaa2fLx2/0or24wSUkKNkLNAXChutWy4uEaWjS4XJRlYNMna4zkWBIsbmcuLqyQLDu6BsTiICwWfqU2jvqaF6sRhnLQyPUgLkl7SIoTK0AaLHqTlOadsOv68tTnDPiL/1ovtRCPOGLvFVnb0HTXIfRTq2y+/76f3/Kd5avFPa8Oaaa9TrxsZLl+9KAeVjRYB7AP6D5jUCZ4L6ldZ1vqaFrn7nWjfQP5r1pnFAkfv8bvj7BGZ29ot0sHJIDdToPhnJbfyLgU5vlXUdafY8WniKCZWNdnrOOBgFtzdudH6qduL+o855hnMVsAf5D+htpCF4ULo8yWNxSlsNPSHwlrgWXQLsNt9slxcvnbRVI4aLDM77+bbZyCQl4nFc+fwmV2xSU4GSHZqHClmCBnmyv6IPba2YoKpKKmyCguoraWmYrH4x+Sy4HnPoULJ6o6/zruwguzqyG5ekPeykOiIxoHc5izY26a9x6yYfHdMSQSCIQ8ekasnrCSUCyrEJpOoj6fOH7dI1CB28Bax17MmLBdyjLdsIu/iMvryoa9Y5AGh6O/BMzusTPrk4p8UDG7kLugblIsyRpvUjAmLxRKvNI21ksPHzrcbXzw8+A0KOuMauE9dUQRiTm6SXEwACM8icoBkO0++GUNKlFlHRfkPd79rEROEs7L8iYFngENDzVSzfPJdmuebTJ0Ui6PFAkd93A8aNrSDYp8vShnlbCID/Yl+Y1zoAkBeNu1KUWGrdFPdQSiBQF52SqgUmuahCvIMSqbV0gwjH9ZqQtEgloxmcY58QmyQg6pBG+sUdnwWmxMj7FxP9gn7D3WwdV1/aIrkTxYinIBTJlQ2SiE2Q7LfGtV91S5OuIR+sZfxBeo3RXL6w3M/rmio5dYH22H3r1Vds2JAffUU84Xtf2VZU94nrnn7idfNXTOfMpN0L1nBn/vOae8zKyTjjhOHAKXD5o12OZ3CBoFs/p55n4pq7bEHqwrg1ihOgQ307eMviCpGx8fmRSgn44U1ZxNjA3dK09gZUtQ9aZY23q5NbUDjTr8aqqdKrp1intv3Ocs9OHU67zqfKAfZ6IErGw7wT7SROc/n22dq3jAPenxNixdXxKjslbhDaAjRaD6+4NOWSjUougWFT9SMMnLEZQO5IBnvimRDdxkn5C2RnAS7561AMwb3Z5cioU5InndvACyiqMZ5qo1qgjK45T93W7SPp9MCRUAhGjiIyzNwB4gEaHFB1IHFGfVNJqAjWUGDftvUx8zaGU9aBRdiBRtkfP+Tve++Dlu6dPIdlhUmhjoaillqQzFbtPEQ1DBWzzgFWCAGgHi4p6LtdjYMxjdHXMCyyXfqnUnX5zj6JghJv6fXLbBcCJrroQowZUxsSgOwGeqN/LkXCORFK4lJwJFV4sGHWWdB/S3m/jkftpOGImk4Cyy+Xvdv5DVsoKMtFR+4w6RfjVyRTOktIAIPJGyopUoE4JSt7S+br+38J7Pu0Jctu4iGNtlYnXfcn5iT5kjLO5S5CqqyRojoyJq8D2Lg8IJSJ74AP2Tx26c9IQQZsOvGP+f1NxzKgkm3DEI0511H5oT1dQqs/RUhMEolRAwUg05plIlujjiMZGIEz1Enpi44MTen5NRRCJ8D/F8ejwYWM5kPMZQF5wmoCuwSvzNdoKrIZiBHvFxbKSrCQkeZ5KXAcq5sukdy6B6ZmQ5Ydg1l3MEz75j2s4fM+tZnxEJPk8y+0CxqXG3HFN9mfDsgLlQx1YZVI+qNiQitLgVW8bSUY44yy10vsjzmoAlS9KWq1/1eou9Qt0qylciBIlmpkGOFdf5Qa47MjKkL7TeiBtyXU9BjkCgh1VxD4eFEygTz/qsD7zv1BP0zGMirXfic3XlvlLPQfq6a8qCUKPNSTuZwJouFtLdrs3b/bgXm35K0jRt7lrg1EGGWHCvuEiv60qEvGTTKUFnYRCgMf52i8ihbNre/ZCnq7dMeFxK3qO0bFUu0YpU1Se7F9wKFTKxIPrygjQOZOr6gSYfVjuoL4u+m95sxg2jJ2H5q435UxBlcN55P/eJs3JwITiTRaKbBzyb6hWYbtngokSvRe0G4FgjkZfLdyhw3YMcLeRfLm4bdNRsFJDrWs996OcGmxReS2rGwkiFW/PP8xkSBJ1KD5LHN7S+anR1viLJ3WS0w91GAnb0cVWyhtDl0eqf5gMw6LfJQGmkZcF9UTRK9EQMkJt5QQKZxLjb2hgfSvpCgEXcdQ94efDNRf91Vub/DESUSC9zPBPV7IJCXhVQm2TKqMR6gcSATpge3oiNzExGRPLjbbJJ3Tr00wS11cxNSBkwxLCbMDukUWLoZ4xeKok4xt099XE4N+0Rtd1itqrXpil1Ei4wjBA4T39z9b+ajy39FZq8BudBpL5qWx+2Y4dy58fO8XCoHStQlMNnGI1o48GiOvrFxo6CCasNCU6KZQKNmrFTdQmZ2a/ZTPR+k+4FAXmQ+HC3YfwdQ11gtKiaSZFR5uBMBq4x73cuHv2zNCEtkrqkU+5WodPQdsfIusmy6BUVKrZwVMHVg2ljQcKsVD7ADk9LnoDSsyNtWsSTPsi4p7apdAQNOe/j4Xpr5frGSbCCDqZTzDJ+Yh9p6D8cugRh15ZOsU0rsYp59YWMBtiCwY/Jp6zuscRy0osRQ47W6EokFXpWJeTb0lN3JvHYnZZPpPwBLbBUn2n3dhYlF/mERZqrAAu9XnO4ze/7LLvabmu+Xd9YUtTC4bdrjWageWtGRaDRhZdFao7CZXDPT3DTlfvOBJT9rcJJ3qCJIfEH2YbdHkzNmNpo9Mjdd7b9RdnWe4fOVQ19Vf7til+Bo5kxYZhEjdjHPvgBX4FIjxZNTTsnuGw2UiLo5Otfdn2zAW6QzIPDDuka6bxbI9xtXZB4OjAVsXRfdyhb1E5TNJOKi9SVa59u7/0Nucpfk7PGI1fomU9rAvmE+gvKXSzvrpeBY/+3d/26+uetftAB33EAVHETGeR6q7CBvtO7oiOPbgbJ8b99nzNaOdYNsxe7ntne8br2s3AsZB4z5cnVMKPS6X87ldw0ZH2wigZy5RrlHEkD8uZmz+ALikkF0vdwpO+V9VqglEGwzFAJPGPx13V42TFI0cmZk08OCtr6zMtNsa3/V1FSMsyFvRBWhqUxWTp47auWvmvI6a1dM9pxzHZPM+mPflSfRi5YdfkeKqgUNq6zCDRMO9l+QFSd5Fp91+lffKFAg4lQHKZycivVJUrxv7vpXuZC+a50XiAhCZu2VVxLuh/gFD6a6JTYr5niZgvK9YCPGXkv4IZwO5YzC+F46+EX5bR82S+RlRcpZNllCDuGctrStU97ugwUr7wKDQCAv9BV7HVQCf19QlgIrSZggstBgCmVvp/wPtve08g5vaX/Z5qfCEQMZGm8l2oKVTVagurtPbrDKshaZqRyqkOx5ruMhhAMGgQb0/eT5VnPm6AlLRWqFuFVSwFXLU4wF2KmTHnoUpeOwyU2ya46vakg4zlq9d04UiGiht5TXi/hb7M9QVEwkuJbiW+zAjb7Ok4cSoYGlckt0rg/V91zeY+NaNnmtTaBPiCLaeOCC7X1T2/Pm3VNvXd/YRlt/bKKemB/WBe+ywTPXFMxREINCKAFBXimnRHVmST5D9oFVpfToc6dyBi9vvkuLvs7zfIA8J6RoInKFP05VAPmXaoGsnf5eBYXPiWXMSFYpjvNH9IdnFxuLlwIVXzXlIYucnOhAP0AqEBmqiFwNZWVhstgcpKL+h+Z81CqXEm0Sq6c9aiOHkHuh2pf7O03PqOuyrTYMpx76yPtzJq0wBCTgQeUuMOUDCkH1Js6bLP5ZywXwUqzYEdg2SuIQhMcS9d15lXsWqWKdsFfsWzwDV7JGCQBwUd3c9qJ1nWRcwK5HirjeUdf9nq+Pl/mEIgNfuBEnMALxC2ebQd12OhGwz8AgLywRjgoL6m+W+eZ5uyCx4eHkACIsbVyblKVkkqFABDYQvE4gN0oeTDIgCkHYZI4gCJyAgFRUHNbtnY7XNNWjLKUe41HTbBFHpzDABuKET1B6NOxPAeWWMog6DGCPpRrIvvfN/pCZp3GD/G7/Z2etjR0z0dy68BHzhjJWkOGyV6Ft0fqcJ6KfOCwsE5wenvuDNlrHjUyk98FBH+QAiUDsITdElGyjK/TMOGXsOG8RkzqIgcaBolFeUFA9XEfRCeCn7fa5HtwzY6N6mIfRegenDBAMUcl5h77iQffA7A9LgTXewi/qMov5SDMspI2WUbYtKPVtcm4hIQARSU7BoQUzHXMX9BIY5AXYxObe3PyAZJ8NNmAb4JOS9dUjX7f3ptbNj1EulDjkWiZekyNQjvbs0vdWy7ZapY3mGmd/dmc8mIjgwasomUzpTDQsLeldiMddPfUR626YzkJgIbMIHxQlhZJwnhKmHjYT5FYoBFwGx62gpJlfv1LIPll9G/CFdvoS+xQiEa/8+PxPK9zuPovAZMxAP8CaHifb8CKZu+ZLhp8m2RGkc48TxCBs8r0Lf9y8IbabIIJH5n5CziTJ5X3eIWHBEwt/xLyw/wt2Y7lH5iqQHuQHeU5IJ8DYiMuFoxnKzbN2zAQFltxnwx+PKxAB7y42U7fXFewvsjywI0SSeGPkWzZA2GSo6iydMeUEQMCJoBR0TEzAi/4RqFEIJXDHnZAy5tl9n9Ui+3aMurDjE24G9WSnJgqFrBGwxsg/Ufe6qIGfBQQFJ8cR4XbNtbMl24K0Q8tBUG/k4zeOfksnNDxvXRwfmvsxvT9T62B4uzh1QiHJv0RmCr5DP0CMaLIAyWd4QLnqh/L+39d/yrDAHer61OL/Y+6Y/oRl9bkGtetX5gxHmcf7JQqEgBIOJe9hF2XTg/mFm0gFExBg4B0pUARHh1JCCZFN4Y6gpthqh2qbumzf9TxhgPSV4A1n7LC+aI/Z3JY23iG30eVWJ0E7UbhFU9dEWf1RNuPKc1onmIoc5AVx37/o/5hlTWvVl9w7oDDmkZQAUd7oMJmANZLxjvbsttSKSajSjntOmQi/IfOLdYezSIDcGJ1QqN1keUmBsHM16dPl2YR9mIWWaoGyOMiuwGFa5HiCBRuvxGaEo5EgbriIy2hYmCDp6BIWUvpOHtQRXxhP2ahyIXL8ndS/oXJuSpf6jagCKNE7UHbY/KG09fH1277zTtwNOCiC9dcrRxdz+o7MXgSjELuMln6SMmngRIMTCqIQ+bTRsKOAdBAXWK9ousvOfSEgLiAKHPKye3ME52PzPmm+vPNvJVtNlUPDz9mdmsRszx/4vKUGsMBT62aa5Zow2E9YVcLERlul0MDKHpCVBlYMFAtlEqlb9in3EkotcjJh6qlXBogHZ3/EsmZoasOSfQgg5qCIg0OBW8Fl9LD8vfFEg0tgTWivsAVFn1X22Q3ckYONtR7crAAWPPUKpQRy9UFJ8Wn++IrfsAnVJlQ0avJGWVsg5h12WULG8Fayh2tLloxnbGGfy5Uah90etuvytQuSmy5aoz9yMiYoFo1dMNcXArmS7pEZCa20k7/Z74XAONDk8uksTXJIM+ZCLaSFRTeBTZfkc1DYqMiBKNSveUo+cuaXVDnIyZgBCwlOgURepgokRRHSKArJukWRhA0YmQjzATLSYe3MyUqipR5dA4lXAoj7gCguSpShgt6TtZep67B8cB74917TWBEjpgoOjqyZqXbyqR42ZlLKkpfscPdOa5fHYoAt3LHfxvcXpRR6kNumvkcWilXKEioHlwLb4AKnsIqfJGQaggNePPC/ZkvHyxZx458Z2W8o+gK7cy9S4MBQGtORteP9bZRW+O2S52mJlDeYk1Ipg7zXnv9POootYp+Razl+FecXa5JSjmiSymF2gmInksfzf4Teehh45GWY7L44WmAy2izXQ/L+wlaNpLBL4/t705T7zFolYEO2LhRFx0jgEr6bPxAoCOR1wImSCSXGehnmscPCSkdlI2+xriAsMhIOBfPlFLFm6qM2CB/NdFhCCOQbBAoKeaPAjeYIJtBgjz0TZ7Np15EkBM2jRY6nyCAsLCcyEhppXDAXKgsjCi88hdzODPk2eWF/ihsCBYi8AxOKbGTdIhWBgoMF7nSEkJHQDCTGOYOcThxIZU9WkAcXSByyxwMwDL/lLwQKGnnzF+xhz0IIjBwCA94KI68rrCGEQAgBHyEQIq+PwA6bCiGQSQiEyJtJaIZ1hRDwEQIh8voI7LCpEAKZhEBg3SMzCYRs1YVGm2M6CHFD810cBdObjlFVKGOotc/ujIfIm2H44u2FbzUOI9iWyd6BiYoT7wZCCTLcaB5VRxwuqYrIFjJeWUk4YhUnF3dsbh51N9BdCZE3Q9OHjzWhal2yJ3NECkdnkuYVBHZiSjPUVN5Xg2MLPuAT5GM8U5ktyMI5tW6ezb+cy6COvAdcmh0M7bxpAiz+cVhjUrDg0bW94xWbCRIEtql24h8uwt94sBGQT9D8armbclgbR4bmQ4BH0KcjRN4RzCAUlUyW75x4U4nOnrZHdiZKEDeCJgro1VGGuGOOI10780n5jC+KpqcVcodleBAIkXd4cLNZHE+K2r559DsKz1tnkTjeb3qYVRf0ayixOK2enFsrdE4xKV2hzmFJHwIh8qYPM4u4x3r3mZcPfsVm8UfWDYt3CICsKLTI2kkGTc4iGkkuMO8tF9aToZ03zflEm9xx9rBZp0O7dirvcoi4aQJQj8OhoIF/nUycOm/oonQGYUkfAiHypgkzZNxNSpi+WzmDUVSFZfgQII3vZiWJ51ymYtPIDx9qA2+GyDsAi5TfUEbtUe4kDrwiW0dYRg6BNh0GxiFo3UplE5b0IBAibxrwItXOLiFu57m2NN4KHx0KAiRt57QINkScW8LiHQIh8nqEFVkpcbw4oOMzOAkgLJmDAEnktre/Zo+mCTX23uEaIq8HWLGgOF5k18mNytjY6eGN8JF0IEDie7T323Q0adSNNJ23i/fZEHk9zD3n23J8RqvyQifLE+yhmvCRISBAskAORyPXdgjjIQDluhUirwsYib6ykA6e2WlPGiT/VViyBwFMcFvbX5by6mT2GimgmkPkTTGZ3TJn7BLVbdcJBaE8lgJYI7xNssB9OtVvl45w5bTCsAwNgRB5h4APpqG9XZttDugrUliFJfsQOH3+hNlx4g3rJ14MIZQjgWiIvENA79S5Vssuc2xkSHWHAFQGbxGNdUhiynYprzjaMyzJIRAibxLY4Pb4rrTLnMeLLTIs/kGAc4f2Ce4orxIdwepfT/K7pRB5E8xP1HSxX+zyRh2ZcibBE+GlbEIALqddnlc7Tr5uei91ZbOpQNcdIm+C6cP1cc+pTeZo957QbJEAPn5c4qxkTrhHgRX6PSeGeIi8cXAhUdzRnj1mrw4qu3D1bNzd8Kd/EIjYkx8JAEHjH5YbIRAibxxMehU1BOK26XCyoMpb0eyNpcrgWBboDI7oGg7pkPS9or5hWqG4haqfYQI6F0wwDZE8juNByf4YtEJeqKbamfqbbmrGKEOFTj8kAR6RO229BwPpk911vs3sVJqhaXUL7MmNQZuTbPY3RF4XdDvPH1eA/Zs2mZzrciC+cgr80sbbzbKmu0xL3VybnYKMFbgdErWz/cRr9uDxoCUPsB5up3fYqKNJ1c1KI1sRiPnwo5Mh8l6HMgoSzEL8BS2JXKnY41unPmLunPGkmVjZNOhM4VrlUF7UsNpMGTvblI0uN68d/nrgWNCzl7vNu6c2mOlKWjdnwvJB4/MDSfK1jVDm1cygpGrrO2DePbFefrXBixqaXrfQrJ3+vhsQ173o6iommftnf8g01ExzXw7Ed0xHRxUUAlcUKhEHpixEXsGij51d/ssHFasbRLPEyuZ7dDj4pJQUiQPEeRZZOGiFeOp9nVvEGW0N5BxlA97Bm8UMQ4HA+sPSaO4WW3YhoFFD08YtsJplL6CZq7zJQT1DCKXbO/J7JvdVWIwpeuTtPNcuR/jXAx01VD1mbEqq6yz2qrLawOZJxlx0QDoJrAFh1FGRIy9ZGw6c3ia77hYDW5argomnTH/DTT6uc/nS6PpwEpxz9lCZQaNdUVKVRluZf7TrQruVfTvCEM3itfOiBOk4e0QLYb3pyYGSCkTF9DF93EIzoXKyGa0jMXsvdlmzDv3Kh2Rs9LGitNrMmrBYNtY5pnpMne0XOaeOdO8yHX1HBEV/jy7FcQYxB+pbX92i/uV2M8n89uS9xqI1FZ2/3GfNQke63/XddAIVA2lXTXlAZ/csN5hzoJ5oUlt1suCm48/ZlDC5tcmOMpVlNWaNDgfjWJL66in2wDAUevh+E7a38dhz1vfYb9Na36VucUubzazxS3Tm0eJAKuC8o2jyJ4sSeaNRK4fNLimp/M6/jJPBwoZbLVLM0vGXUDaHXQZZxpZPNHUVE83V/mgigFxR4LKSMWbZ5DvNXTOesufscmynU+hzrY4oQXtdU16nkxFf9VnsiJqO8HvG9FUjjqAYS1Eib+/F0zbcj/Nz/Ux2Vi4Wb7k8oDijZ+rYuZaSxS86qDKugLe0PCi2/pAhswSbjd+lUgjKYWATqiYnbJpNaKYoH4jM4dmbj7/oqw2WfGK7hLxwMAsabjEc6l1sJR1NR0HABmQljSt2XYK+/SrIi7e2PGTumfl+Ief8hIjr9GW07LAchTm2HNut/1OEKWliVZM9U9fpU6LPktGlpmnsLHO3xsSBYSCxn6W975Bift/QBtfhZ7N501bRbVdndMAV2fk5DNsvisYpeLe0PCxW+REpqVpEJUpSLgACCypKK6MmIJ8JL8gLO1oq1jlVYSwN1VOthxfw5MhTv3Iv20T4irvGzg0LzyHexVT839ZzCF1sgyhakHX9Mg1hV0UxddvUx6x21AviAiJcNu3m4jPi2ralQba6AI9twylAqe+c/qQVCcp9pMA4bMBFnZCG3q/NOIdLeFDTRYO8TCyHYW/veM3KkYOgkKUfBAKsaLpb7DIUtzktzyaS3qER99sUAyiuXeu3ZjQCArwWB4GR529uvt83GRTtN2GcyL/Aq5hK0SBvNKnZVrP/9FZfTEPIqosa14hVfsw01kxNC3E5OvRtHSPKGbZ+KtSchc9Gd/bSGZ3e9720ku+BwJOqmq38u6B+VUyL7tSbrc+zMh1xVMphmf2CmkBhOLApCuRlMaLc2Nb+im+mIeyP2EibFYpHRguvhU0GuXHT8edNLk9oQKx4s/Vps/H4s2mJGCixGDOa6ily7HDMYF7HP5znmF/8ngnah2MpllIUyIvnEqceHFNQuh87M+F3sI4g8Jg0lCgsvOcPfN68cvhrplMZJHIZ4QTF7zx33Lxw4Avm+f3/L60sjox5tuJu75jxhLVZ+4FMBJjYyDCx0MWSMqfgkZeJjGaSeF2pbbLvv4ymFucGHDFwuvBa4Aye2/c5s771uwb/3VwirtNn+nBSieffOPpt88zez6Sloa8oqzaL6teYm5rvE+fhj1HjjM44ImMIR9MUQyl45MUGuEPsFFTEjzJzwhLriDG+osEzy4iT/UsHv2S2drxi+iRromnOlwKnQp+2tL1knt3/WdnID4hJTa2Ghl3GU4yNbMa4RZ5hMZJxA7cDXdvNIVHfXHmmjaT/6b5b0MiLzy1eVMTq+uF/W1laY5Y23G5aJOt5pTY4+b946IuKU31d2tJeT4iR7iSP9HmQFfmbM4ReFBtNn70UuBAS4q1svjctLsRL3cmewcSF8gpuq9DPOipY5IVinDzbaqmZX6lt5k1aaebqD9dCL6VPpzGsO/QVs6PjjbxFXGccIPBFnR2EXPn8/s9LBj7t3BryE/fJ+ZNuMksabxP1zf5yo59HdEwK5qMLV84P2beg38w+NHMEIbSlhK35lTaFRQri4m3kxaURTmCTonKQ0aAWXljRHIEy1ix9RBsOBUYj7oWbIaCBkMcF9beaqjG1sbqy+YW0vfTxWO+eQMB1uLAoSORFU4oCaGv7Opv6dLjASec90svgqD+mNHVqUpAALy9suT0XTgVqgdF3zm+i72Qg8bLp4GY5QwEEyyev9UX2Zd6O9e7Txv1OQTtuFCTy4hlEuNhhuUL6ofzBp5bwPmJevdg1MV1Bddt1Eny/NLpBK9aMpBzXbx592iYQSNV/YDKusl5pW1f4lnf5cv8l83bbC3LK2ZYTR5dUMMnE/YJDXo7IONazX7LuOsNJ634UooSmyzm+XIEEqQqs5lsyBx0IuEaUcZCOdZ1s0l7MWoQ6NuokhxnjF6YCUcbuY2HY07nJnLl4ImN15lNFBYe83RdP2aMhUVZ5YelGOhm4BM6SeaixZronhQwnD6L0ScdveKR9zNb755X5Y/fJDcp5fchDE6NsYMaSxjukiU8dVeWhwpSPsKngVYf5qBDPWC4o5MUnGDZpR8frnpQpKWffwwPVZXUWccngmKrgBbS1/WU5/R/2RK1S1Zfr+4gkp84dM69IY+4FOYg2IkCjSons/Cr4PWOGIy9YoZWCQV6oLAuJjA49Hs0YmZhMnDI4SgSbZqqCg8NhacAxuRRKQat/VDZVL8iB5pmkcQsmrfJt+KwL9B9YHfyKM/ZrcAWDvOywsKNkFvRDScUEEXAA4o6rbEg5X5bqtr1sbc9+sPMpO5ShBxgLThuvHf6GJ7jjeTZbSffIlulXsVFaUl5x7rJfa8OPsRUE8qL9JDPGFpmG/My4SNpRtKhe0o+SiwrK62f//FhAtHFZ4srxvv3mnIcTJ8hRTUqg8tGpTWqZ7H/U026T6ZWZq1BKQSAveZe3yyXO72wKZI+YUNnoKfCcXT8anxs801CqxQ71PXupJ8r16PtQBda5Vil+SAfkZ7FOMQqzPHR6p+TzwpiDwCMvk8Kuij8rrKmfZbI0zOMrGlM2eUVy4SEdYtZ7qSvls0F9oOdSp9nc9qInmyoZKWfLLu7FJp5JeGCJwM+9UGJ+A4+83cphhE3X71MPsFuOF9Wt8qBlhuIiF17p93dzyeTCT1UXY+MUey9iAWzzZNl83bmgU9WfifvIu7hNcgYz5zEHvQQaeQn7gh3dfXKT76YXHDJI9s0ZQ6nKqXNt2ly6fO9jqn5l9n7EhuGhOExVyLGMLzjyr9+F8Mat7S9JcYjpaGgW3+++pdteoJG3S7G661ufkWN/6gWTLmBSPY/NslKZIb2E/p1RhgyODy0kLXMi+JDsgAwgqcYJuwwCw734Xegb3m2cdXROIZhBLoFFXqgup9mTyvWaz4ddMeFjRHmrlCnDywLs1W7vRxaPXC9EWOa2voMpCRrsMnBLJ7dXJseGbXqDcnOR9yplZzPZcIbrCizykvLkbTlk5Mrwbo+79Bi3S8hfMWR2AClO2YwlqdlRgjkqlSonV+XU2WNK8XMs0HqIQCIvrA8nxbX2KqGc/uWiwDZ7ydB/VYqcy4ov9eK8n4txZLJNlEAEA3iZE8464lSIXBVym+3u3GjzheWqDyNtN5DIi3moR2r/PimBclVA3DIPMhuB4ZeFwF4WdK7Gkrl2lSJewQBesjfCNntxbslc326siegzFIlBZZ0Dibxkc4DqciBIrsrAgZe56kF+tos55srV1CaxqLYeyps7SKJEZHO9ppRJQSyBRF5Y0T4d0ylH1SDCPON95gymHO5jg8aTzoz47aQxqKP6gVPPNcV/5w3w4juY4ncgkZcsCaflnFEcrGiKGdRtzmDyKlO3Kp7Y67OpW77xCeKbvZwuiHLrrBR5uUQcHEs4xDyoNCCQyBud8HT2+BsX2UivsIEge6cqKGaQjbNJZcglBTKkKmx2mEiyibyMs9RDknUQx4s3VqoxjeQ+8MjtKhpJ740PuThH1r+8fRu7rRd3RxRb2IShSNkqRFORhKB/iM2EZUqsMwnJs1XYqCbKb9mLHHvl2iVFIQXbSSJbcPRab/ZWlNceDOM5EGKczgPKJjVL1a3zWngX+73lyCLLhhezUqo2k92H6n55x9/Ib/dNS4FRGkWpiv4XT0iSO3JDf3Xn3xkrHyeraITXo8jb7Gle4FxyfSRnmbJalpaUysd6hAPP0ev+HCKT4cFhZsC5XaskZyITThcEecOCpsqiMbZ8orImVppzJnuUhkOm/9+2PzeLGnQ+0JR7RQGbLXCivrzrbKrWbLOpmH6axs5MSXjZWOAS+iOpxY4ML51B1eFbXTIKF81gYm8gkRczQ0P1NIF8NMtg0IT49QNqh6nhqrSVY0qGzgrBqYFRm2Z2d5sLSgj3dtvzZtuJdWZiZZM2togyJ54UNb7kC1gQD2zS+VTIADcguHnRGWSz4+XoI0R9/Y5uytSYAsk2493UoAOrvaRazRSg4uu5ID9evLy8xBA3KPB8XEW9dvmhkTy+jeH+RoNKZpETOuHPL8Slr0RY1YwZn7LbZD7xqjNIWdkIHhivkxyqFFySS/FrBN0PpsKK40QIx5tcM2MkYx/Ru7DNpy92eDoAu75qis2a6MWEMqJO5fBlRBk2qGoPR5qcu9IjH2il5hUS56rAtS2ov0XihTiUgJZAUl5gDSu6SOffsGhyVU70HTFnFGifqoC0U5WYnfQvhVo4zvMmnQaYSv5n/OTzQjuO7JurUlM+TnMy15C6N6glsMiLU/vCxtU2lWiuFA5E0HjNSzVz/GK7y3tZ3MFbTKNEcceZOcoKmYoFBWE5YbBDG1+uCnOwqGG18m1LbxJUVbOAF1jkZeJRytza8nDOZF+OU+H4ULTOqcokaX+njJ2bc2f8VP0czv0xMt01SoFoLQApKiD5G/oCL04lKaoa9u3JtTO0bh6SKDNl2HXkw4uBRl7sp5hGZo1XMrMc7KAoq9oV0O3l/F8ybqxquV+5m2aor4EG+w3rFrnx7plPeWKZScJ3VInnvZywcENDGbiA1n/VlAdMc+3slFxCBprLahWBX0WTtHBWT31Y8mRqLWc2IHng9HZlZDgge29q5QsKtml1CwqK+uJ80izbbrOSz6cqsMzkjtopZ5JcFDZ4Dvle3HCbb2cFZ3OcgUdeFs90nf26WJPiJZ9UpoGJE8RJaU4JU0xVUK6tbL5HWvLpWXWXTNWPTN1HvkWTfveMD3hSHKKh75KyqidHKXDHlk8Qp3ab56NYMwWnbNUTeOQFMJxasLzpbisDp1KYZBqQeFiRk5lzkrxoT6fWzTMLG271ZA/NdF8zXR8sKEqqqePmeaqa1LC7Tq3PCctMwrtlk++UiLXY00bjaUA5fqggkJeJaa6daZZOviOrPsTJ5orzkUhB6yVPFdR3zdRHdU7tIk9pY5O1mevrwHzK2Dnmvlkf8nRiBNk1OuQ4sq9zS0663lDTYjXMXs6VykkHh9FoQSAv446yRGuiCiGxc34WtM0cNH1GqXm8lLryerMCTkEa6GxGG3npy3CegbvBzr6q5UElnk99yBptkM+5VTDyGswxnH4le4cNc1nTXWaaDkAvJFNdwSAvk9IkTe5ysUYVPmclhF3epWMkocBe3CVRnMDCLZu81iZh85vVT7bIvV0fpayPNeJybrdaWy+aczTLcCab216yUU7e2sncU5zkOGfCclMTYIeMRNAoGORlcKRjna+zX3GI8Juiobja37lVCpkOT7IvttG1099nFW1+bzaJFoK3a6NkU68wcyfdZNllQgBTFTY2zjHa27nZdF/wxpmkqjOd+2PU3xVN95jp0vJ72WjSqTvXzxYU8jI5jQpYYLJqpVn0t0B919tDnDny0ktB0XbvzA9qw7nZFXXk5U3/n4E7QEHF5vjArB/wzC7jjMHZQFvb1+UkOf6McYvNLB2AXl5W5T/QstxiQSEvsCrXAmOyQAi//Z5x+3tHKWk4NYAAeC8Fp40HZn/YnhZPEvL8ZKFB3GrZR9eY98z/pJk+fqGGllqvYM9N7jtqY4l7c5CmF4+vldrIW+TZlp9w9bJCkj9TcMjLUDkzF4UQvqt+l92nNtlDvjm10IvpiP6hSHlw7sfM0sY7rIthPi00+oIn21LJ548v+LT0CrM8g/SsDrImv9a+ri2eYeG58hQPIjbhfYcpK5tZTFJ0I6u3CxJ5yZCA48byyXcZAq79LNh9t7W/YvYIidM5igX77yPzPiEN7gNmgrzGMMXkuqAEnFjdbP2An1jww2mFzzH2PafeNhuPP5eToHtguLTx9uuBK7mGZHbaL/ldlexUndtaUQiVlpTJHa9Vcbcn1Rn/ws9IN4P5aFJ1kzWpeA3CJzAcZRvJBi72nzPnlRkjNz7AKKYqFTI3T95T3ye/5Q94CjpwZpw8WQe6tptn939OSQH8jx6ytvRpj8mb7d6CckV14Ot85n57d3qS4U+UV81i8VY232fa+w6bPrFwfhZ8nt9qnahMDWPl9zvLMyVFtrx92hOmRbGmG5Wm9WDXO+bUef8OxMLFlEADTCurpz5iZoxblJaWFlm/vfeQef3It8zxnn2+s8uw+U1y2JkzYUXO/N39WmcFS3kBIAuRXbhbydlICeNVBs0E8GkLd0AWU71CzzgO1KupAnkN54dZE5aJhW603eEYUzS32cq5jKgxSSwyi/726U+Ye2d90BDGmE60Fgoqxvz60W+aLbLp6tSiTIAyrTqwQd8x/b1yylhbsLKuA5CCpbwMEMQh1xV+zzgJcPCznwVke7vtBcu6QcWgaOl4+FSKCi9rvNPMFULtldJn16kN9kxZDlnjtAGS341EHECuRiM7tmKCaVLEEwHqC5SdxOZ1SjPEkpQ23RJPOOx8Q+v3zNUcZIZko8HtdI42PWBX6GWU8vr6JwzmCJpQgxcPftG8efQ7OVGe4Ep465SHzOppj1pqlg4COyBjmgj+P967zxyRm+FxnXDXeb5dWSm67MkDyJnIx8koM23ChfCHSap2zARR9cnyT54lFn2edWKAannlDpx+8QmXgSkI+K47/FWdOM8xJv6X2vLx5pG5n7C+44WqYXZDtaAprzNQsgQSw4kSpb3vkF1szj0/PjEbvdn6tDWNkvmDDA7papOhKiDdnIkrpNRaKoQ9a5VBx5UMoOtCh/UdJvXrZZ2Ry2kEpH21ReZYFjJ5o/FAw+wDO0xYIrIhdvGRhFLCKneLE9h8/AWz7pAQV8nlclEYA3I6Nv5iQFxgXBTIiwyJ0oiYXxZ6OiacTC3Es5e7RZmeFmJdMWtaHrXsPFRwOKVkdIlld5GJ+ePwbg62hvpygiJIHMvMKKRH3i4dDQLzV2H/htNu/DtQedxBNxx7xlLdXCEu/Rov2z7zy6ZULKUokJfJ5NQCvK5w1Tt8Zqfv1Jc+gMAbjz0r6nhBmtxHbUgdCDXSAlXlz89CwvQOmYE2HPue2XTsOTs2P9t3t4VZi7nFzFYyzA3RXV9QvhcN8kJ9iS4h5pfMF7mSy2h3gxAYhdMtyqU0Wx5ApB9NR6uby8WFfHvxyjlzUAkIQNrtJ17zFMecvT6PsvmoiNCKHvGSvZbyreaiQV4Aj2aVHRrKy6FcyZQ72Z4kwgbf6XhN+YvbzUpl4MD1EDl0uGx0tvvr1A+1PS02mQCMt3XiIIqziExYuSzVcmwhMwm5wdigi6kUFfIysfg7L2m43RyTAwE5l3NVoGDHevdbZQ9HkyCvzZ6w1KbHybdFiPyMkwsiB3HLu06ut7mXcwU7p13ghGlogSKdqjyc1OC8VyifRWEqip8skOWFA1+w0S5WMxv/gM+/Mc9M1qZCcrR5k1Zat0Q8s3KNxCDteSXWa5WNfE/n2+IWXvecq8sPEOL88sDsj5ibp9yfMSWcH/3OVBtFR3kBHCwqKUBZlG0ytUAFc1lAElw4T51rs9RtrsxBs8YvsYndsF0Oxy48kvFg/ulTeCOcwUEdxk0g/THZl3PjZ514JBxqNk8i0DwlBvCSFCBxLcG+WpTIi02QMLyF8iji3BxMK/lQkIWPdL9rHTGISpopm2WLkrwR84unGF5Dw3Gi8DI2NrBLV85LmXfM2sJbe/barJhsbiSPy7diTX8K+SukhHLpwrgokRcg1cl0tFCugEfO7DIHdOgV1CZfCoqh1t695njfAZm4xtsYWgIVkNcnKU/yOHls4dJoD4aWEwZuoOkUy2mI2QApSd/TI++ozvPHrzt97NfmccD0XOjMSeYLL+PAWYW5myUdgdeILS/1Bu2ZokVeKBimo8WNa+xZtrgZ5ltBG85RKiDXXqVM5SQ+vLMmymOMwAWoDmw1x50SjYRnUakNxuDE9+hZwGxKjuskZ/VelAx79kq36bvYbbovnbJBG2cUuEHeabJfRlnj3IoRqeYBzfJ8Hc9ZWVqT6tGCvl+0yMus4oA/d+JKm/Vxx4k3cuL37GV1QSn75eh/Wt5h/I3Wv1HysoIq1/BXNk7a1hrr6lg6qswmIBgtJKawARAgAUt+Uc4h5y/3WhszFJdMF9zHb9pSYy+dyfEz9mhXscuIE0GxjWcLZEWNvAC1oXqq9XvG5xktdBAK4YHm2jWdDXzS/tFnNNNwE7DQHBztLGyLlqK+zmc+iQfpwpqR4UU1v/5mQ1bIYi9Fj7y41uHMPufMcmv39XLqQT4uGouUeSS3ZwNGhFQuqF9lU9ukK+dnoz+5rrO4XFKSQBun9kWSfcm8ES6KJEDK8WXMZSioSD2LmSgsAT9cO1MTiFsi6V4WoASRJjMs+QcBNO0kC2CjDUsUAiHlvb4S0NjCkk1T1slcezaFi3MwBNCiE8fMXzg3A7AJkfc6LBzT0aL61TZ8cABE4bdcQgAxZlrdfKUDusOaxXLZl3xrO0Re14yQVQJNJom608104aom/JpBCFTKnIcL5HQFIIT6iMGADZHXBQ8WR311i5V90WyGJbcQwOSFaWiJkqdXyCoQlsEQCJF3MDxsTC25kOaJAhdLLqQ4EOTNz7rKSVYPQa4tL2cj5U3HfepIiLwJAM3pfci+OL+HiyYBgHy4hAWATRQNc74nKfABHAmbCJE3AViwKc6UjIXzezEGeScAie+XGpVIrhhT26QD6BB5k0CrSilSob4zZf8NzRNJgJSly5zVhEPGbGXGDGGfHMgh8iaBDcor2GY0nUTuhMUfCERNdnPsCX81Y8b502hAWwmRd4iJI0MD7nizJXuFctcQgMrgLSKlkHOtaUg5p8OSHAIh8iaHjb1DBgsyToZueSkAlYHb2NanjZ1vkbdSNvewDA2BEHmHho+luCSFmyvqG5qOUgBrhLdJKLes6U6bMSTU8qcGZoi8qWFkqS75rjhKI/Ty8QCwYTzCyRHRWF1FDWXgFIlhdCFwr4TI62HKouFoy6zyinQzYck8BBp1xCjJ58eWT8h85QVaY4i8Hic2GnV0i5lSNyc0X3iEmdfHyFE9V6IJ5iG/09x67WM+Phcir8dZIa3MdIULLlb+pFplngxLZiCAGNKiDfGm5vsUS13cCeXShWiIvGlArEIaUI4l4eT10HSUBuCGeHRidbNZ2XyvspjMCPUJQ8Ap0a0QeRNBZYhr9cqbfPv0x+3pfiGLNwSgPNwie+cSHfGyrHGtNsMwtY0HkA16JETeQeBI/YPTFkiZc8/MD1jnjZGcKp+6tcJ9AsSFVb5r5lNKXxt6Ug1npovyoLHhACr+HRKYH+3ZbdYd+qpOzdtgT6ePfyb8nRgCHHR+69SHzdrp7zXjKxqydoRL4tYL52qIvCOYS44l6TrfZjYdf95sPP6cOaNzj4KSvHwEwx72q3hQ4S9+54wn5UWF4m98KOcOG5pyY1G2/Pw+22IEg/PjVfIln73cbfbpJL1NbS+YQ6d3mAs6UiRE4gHoExlUK/st8u0tLQ/pmJk5Nml66PAyAKPhfAuRdzhQi3sHRL3af9n06Lyjw2feNds6XtVpf7vsIV79os7FWEDMMUpdM7GyyTq3cCYUebGRdUM9QWZWRIi8mYGjrQUmhjOBoLxdF9rtmbsnz7VadvqSzguKcExJgRdYY9jhCVWTTVPNTB0n06ITDSfq/KTKEGkzPPch8mYYoE51HOB19dpVe+reNR2lWUxsNCY0TiksUSobPonRDUvmIRAib+ZhGtYYQsAXCIRboi9gDhsJIZB5CITIm3mYhjWGEPAFAiHy+gLmsJEQApmHQIi8mYdpWGMIAV8gECKvL2AOGwkhkHkIhMibeZiGNYYQ8AUCIfL6AuawkRACmYdAiLyZh2lYYwgBXyAQIq8vYA4bCSGQeQiEyJt5mIY1hhDwBQIh8voC5rCREAKZh0CIvJmHaVhjCAFfIBAiry9gDhsJIZB5CITIm3mYhjWGEPAFAiHy+gLmsJEQApmHQN4iL1kpwvRamZ/wRDUWC6yvXbtmrly5YvgshFKaL4Po7+8358+fN5cvXzaXLl2yf1evXjVjxowxFRUVpry83FRWVtrP+D477zIxlJKSEvss7wa99PT0GMbnlLq6Ojs+5/dwPoHvhQsXYnDmNzADxs5fdXW1GT06b/f2hMNmHKwhxsbaccZUW1trEfbYsWPm8OHDZuLEiWbu3LmmpqZGWT6Ce4B3zjNpsAueOXPGHDp0yHz96183GzZsMJs3bzZdXV12gsrKysyMGTPMnXfeaR5++GFz9913W+CXlg7sO0ePHjX//d//bbZs2WLfaWlpMT/wAz9gbr/99oSTHKSLv/ALv2AXnNPnv/3bvzVTpkwZ1qK7ePGihesrr7xinnnmGQvnd999N0aJqqqqzG233WbWrFljPvKRj5ipU6caFn4Qyrlz58zzzz9vPve5zxnGd+LECTN27FizatUq85u/+Zvm5MmT5o/+6I/Mjh077Kb0Z3/2Z+ZHfuRHDJthYItYppwV7ZSR7du3RwTEiBYOKWiH/OOZJ554IvLGG29EtBBj/daERB555JHYuwsXLox88YtfjN0P8pfly5fHxgV8hGwRbXhpD0mbYUQLOzJ//vxB9SWDuRZ15E/+5E8iWvTDai/tDo7gBdbCP/3TP0VmzZp1w9jESUT+8z//M/LpT386Ik4idp/xfeMb3xhBq7l/NWd8EVTgpZdeMu973/vMv/3bv1l2J9UOCEv0rW99y3zqU58yL7zwgmWxU70T3jfm1KlT5nd+53fMxz72MbNnzx5PIIFd/4M/+APza7/2a5ZqeXopRw/Brf3v//7Hn6ybAAAQ9klEQVSvOXjwoO0BrDBUt7Gx0Tz00ENmwYIFBg7OLQYgUsFWB7kM8J4+jgJ55M033zQ/9EM/ZDo6OmItA3RYt3HjxtlPgAuS9/b2mu7u7hh7t3v3bruo/vEf/7EgWOMYALLwBST85V/+ZStWuKtnISP7Ifch5yK+9PX1mdOnT1tZmGfZLEEKdA1/8Rd/YT/ddeTL95dfftmsX78+1h3EJjaqlStXmkWLFln59p133jFLly41x48fN4hcv/iLv2jFg9hLAfziO/KK2TBHjhwxP/MzPzMIcUFUgP7AAw+Yp556ytx00012Ye3bt89897vfNf/zP/9jDhw4YLWFwJnv//zP/2yfGw7cWawouPijT+zM/OViN0YhhbKFPrGwQKZMKVL+4z/+w3z2s58dBCKQkYX8yU9+0m5+c+bMsYgKEgDnV1991eoheAkERj7m2ZtvvnlQPc4PNyy55sDSTemcZ718Mh/uuYFKUmcymKDk5M8pP/qjP2rQFUAInIJ8u2zZMgMS19fXW9mezStZgcAwJ87aoA/J2k9WR7av+468aAIlg1jFgTM4EAbt36//+q/bHdM96eyeixcvNnfccYeltlu3brUUg2sosFg46RQmpLOz024caB9RbDBRkyZNsgqapqYmO7lMfPxkQf3hFKiDgrID1gxkcJezZ8+a9vb2mCjA+KZPn36D8geuAkUKCjcUdihdWFiS3cy0adMsB+KuN93vjA0ljVtbzeYgvYH5l3/5l0H1M94PfOAD5tFHHzUoc/76r//ajp8NFSVhPCzoC3AAHrQDLBkLBZigVOMPBMFaEF/gCBi3M39wW8Ae2EEdqQ8YgsTNzc1m5syZdn4cBRMcAm1zn+ecemgHZSeKOBCed5nbtrY2O0+33HKL7QprjHfca40bcHmMo7W11SoKqb+hocHOCXOIFh72nHXsFOkREo7RuZ+1T+0svhUBKyIgRqTFjCkOtCgikydPjvzXf/3XkP3QzhoRRYh88IMfjHzmM5+JCJFiz3tRWNG2tNqRb3/725EPf/jDEU1IrA8Crv0uzWrkwQcftH2hn1r0sTb48oUvfCGiTcMqPjTpkfe///2Rbdu2DXqGHy+++GJk9erVsee0mCPf+973Bj2nxWv7ggJOrOugvmgRR37jN37DKqfE9g26l47CStQnoo1j0PvSJEe0SQzqS/wP4ISC56d+6qcikifjb1u4aAOMyDoQec973hNBKeTA0PkUMkY+9KEPWaUQSq/48tWvfjUiuTQGoyeffDKybt26yO/+7u9GtJHfUB9KSHFaESGtrerf//3f7TpiHlhDTrt88pvr/GkTimiTifz8z/+8VYo61//hH/4hIq5iULekG7BtiMOIiNIOqhNl2F/91V9FJLJFUCI69fDJnOSiwBb4VrSLRZ599tlBwGbixSZHQE4vBSSML16Ql8X2d3/3dxHtnoMmxT3pznft1JFf+qVfimiHHaRpRVsr5UfsffotTiC+OxEp0yK33npr7DlR04hYz9hzjFXsqV2k8QvP6QOfMndF6Iv7WjrIO2/evEGwZqHt378/1o+hviSCM89zHWT84z/+44g4jkF9c/fT+c5GBEKKOg9q7itf+UpEVCz2Pgi7du3aQf116nA+0ZRLBLB9kJIzIq4g9r7zTPyng7w/93M/N6i/8cgrihv5wz/8wwj9ja/D/ZsNTRzFoGdyhby+ss3IJchPmkXBI1rQCv7wD/+wZXGca0N9arEPdTvhPeS2b37zm0amD8s+8ZAWspWpx4/XMZOqE2UNbDEsJmy1dnYre2rSLduVsOJhXsTWqMVj5XYHFrDWsMyw4LDxaIhRFjn3h9MU7Kz7fVhx2E8vJRmcYe1FNY0QMiZn0nfmEdaX9mA9sd3zHZYWawJsuaiflekTtY9uQxuLnZMJEybY+XHq0YZhX0FTji1fHI9lU5k72Ffm183G0pYjyiRi2RO1L87I6gbor1OQc2G5qYO1CzvNvOVL8RV5mQRkCXdBLhFL5L6U8e87d+40n//852OIy2LDAeGxxx4z2u3tghL7a81Qu3btsnIUiIxZCpn7+77v+26QjUbSSRYzCOwsShYHCjoW5Qw5pLBoxaGYl6VAYsG4ZVav7YI4yGvu8mM/9mMjGgd1Iu/91m/9VgxxmT9ReAtLiQq2TZxscLgBGXkHGRaEl0hiVqxY4e5S7DuyODIlph3mBKUdiPrlL3/Z7N27N7YJoScAUVkzP/iDP2hhhcnx9ddfjz3jOJqwQYvFTamEZB5YH7TjFDYGxvPe977XyuJspihOmRPWBuPKeVEnfCuwJo8//vgglgPWB1ljJGUothlWHRbVLVcicyO/uGUe5FtkOOQZNyuL3OjI15lgm5F1tUAHtXHfffdFtOAjorgxMPD9T//0T4fNNjOeeLZWm1Gs/uF8EXcSgd10w0fU3OoChACxKnlOHm+D9ArA/6d/+qdjYkg82yyNd+Rf//VfB4lPwAC21y1//sRP/EQEEchd0A+4+ySFm5Vz3c8MxTYfPnw4cs899wxal+IGI1x3F2Rn1gPyvBA39pcrttlXJw1YMYedcXYtASemlXWuZfITrSR2YbSYTsH9D/dJd1/YpTFTQWVhl5ziaFOd3yP9xB4Ja8a4naIFae2RcARO4fuv/uqvWo2tcy2dT8YDvN3lkDTaIymIE2ipnb4DJygbHIO7LWzH9957rzX5Oe0Bf0yEjqbeue58YoaSMnKQ+AQM0O6658lp23kvE5+IJ27nFWAnZZvV+LvrZ7w4rsAd5UPxFXkBCuYAd0GWALmyVUAUbHtOoQ/IVJgz4gsLBdMILJNTkN0wa2SqwMKzoTiFhYkpwr1hOPdG+glL6y7S6A+LBXfqQBZ3fM65Rr9BOFje+IJYEi9uwMYjn6ZTmC/+sllYf+45QX7PpK09W33PLlTies1iwl7rngwUIMhHyDKpCojO4nFkxVTPc58F466btkEUdx/c9TBp/DmFNvnLVKE/7v5DpeiPm3Jlqi1srO56kSHdcl2ydugfG5ZbCeQ8CwI7hY0H+/xQxd0+VHM48vtQ9WfjHnMSv/Flo52R1uk78mLwd1M9dmKUGSgdhppYEAgKCtuGXzOKr6GedwDDAkML6hTeoc1kCMk9N3Vway6dOpxPFnm6bBzU3b0wQBLacyO0U/9IP1EQuTcp+vqXf/mXMe+pZPWzoeJpBTupwBHrPMKzIKJ7Y0NDv3HjxoTVAF9H4+w8QF8SUWnnfq4+0fIzz05BVAIGieaWzSvRdeddPz99RV4Gxq4Wz07Bsvz+7/++eVmaPLds6gACOentt9+2Xj842OP+JoWTDf1KJkM578Km4wroLGIAj/YzEQXCtIK2GW2iU2Cx+UtUeJ4FGl/QFrupvfv+kiVLBtXHIqfNROPGyyjV+Nx1x3/HzOXeuLgP64wZTMqYGxYhsGEuvva1rxkpgcyP//iPm1/5lV8xck6xHk8gLt5ETnHMWW54OffYXOUQE9uUQHw4DDeSOM/m+hOvMrccC4JifYifWxAawpFovLkYw43CSpZ7ASVEQQOiSktnW4OV3LRpk/VHBTExJyB3oLCAKoFoLKCnn37aUlsWHuYWFk8yf1tnGCAeCAMLyfMU2Efif/F3RTYDsbn3pS99yZqH6A+FvjKp7MwUnnOzgZh7XnvtNbugaQdEQymEmQd3vEQF9zzahItwOAeoHNzIXXfdZV0uQWjGiE8ypqLhFqJpiMvFB9wZExSeSCFMPvKOsgoxTFX0BcRVuKW1h0NVKdg/6Ssum5hOPvrRj1ouiQXOO4yXfuJyKU85ew09A7CEo3IK9lLm1U25nXu5/oQbxEyF661DVf/+7//ebjyIeXBLiBAgtCwA1q0z132mfd+RFwTAER7Hcagt/q0UFgMsGtEe+C2zwNmpQSoWj1tRAtvJwiSAwUuwOO3JHGNknrDtQDFZcLBHaJ5h5dhIcCAh4MEpLDZshg61wK/W3R4LnE2Fz9mzZ1s5kU0JBEim5GJDwEGeqCq0txQ00PggM37GTX0ElMvN0n53+jOcT+oFURmbs1mAwIgfwAM7NtQZ5EYbzMbmLGDaY+yKlbaIy3cWOu847DKb1O/93u9Z7gHNM/MIl0TdjvgBfNm0COXMx8KGzJiYN2ezZPMkiB/7OxsPG5tbhMiLcWiiclLEglhbq+MrLGDE7GZDfRdCRwToiBZfzCY4lJ2XwWlhWvdEZVW4wdc3UVuaTBvYjU1TiBSDjyY0IseAlHUIQSPaYGLjiXePFIJEFFSR0CfY3R9pvSNa+LF6uIdNUcgX65OXL8BHzgaDbN3udpJ9l4gTUWhdROx7rBnmTQ4NEeyyyd5zXxf3FMEvGXdGd7/j7bz4QYtNjbXjfMGHGTg4dYqVz7idl7bE5kew7RKk77QV/ynCE1FGlxueKQo7r4ARK+ziP/mTP2l++7d/28hxw7ItsMnJChQb1hRbrPyOzSc+8YlBip9k73GdnR8KSlyrw5ome55+sQv/7M/+rI2yQUZ3CqzV/fffbzWs9Ce+0H/YS1L2wEImK1B0Of5bzTssWaJCRA4eREOFrSV6L9E1OJm/+Zu/MXhYyefasoGJnnOuAS/iYHFblQ/zIFsz8EFGZA6gpkO5HzI2UhEBS8biFjmctvLlExMh4tz3f//3Wy4Krs8p9Jv5UPCE5RZ5Nh+K72yze9BMPAZ+8gzB1sE+wrqh8IHlggVDRoJVxaYIUoHoPO9eCCwSEMLRIINkPO8uyNDIZUyC0p9Y+QWW3NEqws6CKLj60QbsoZtFduqChaRv3/nOd6wSh/dh43kW32E2FyaX+479GrY0HgkJv8OejHIIsQAWGtYV5EDJxiaBfIkiy+1ckQzZnf4l+0R2R9NMnidgTd9oExYdWZ2NBxjQV8QM2mexci2+ID58/OMfN9QJLFG4odxx2GTGAKuJohCYs2GyIbgLegRg7Cj20EvEP8PzhPSxGToKPRRmbm09z7BhIhaJgPLTEoL4zRWTFu05a4R1EP8M+hMUdcj2yL+Oaypzi6iD4wZz5YzTNpbD/3KegM4ZO4AHEXBiAGho9JzFzESDkMiVbqR13mUBoJkF6SlsCkx6vKbVeZ52QAj+WHTIgCA3yEcbbicN5x33J/1CNsYrh/fZYNgs8LeF4jK5aLRph8JiY6En2gwYJ4sf2R+lCIiBPE8/2P2557a3QhGHonbufib7DqzpPxslCAxigDi0zcbBQk2EtInqY6zMGeNlLMwPcAeW9DWZgopnJYbEtNHAnHfiuS/6R92OvM6mwNy6ER25G/2FU0BM5sO9Vlgf1MVcU9AtsKG6EdjxAGPzZfzIucw1HB9zwbs/pOwvbnmezQSfZ68BH04fM/GZN8ibicGEdYQQGC4E2ND+/M//3CouoeKIF2wScDpwgGwgb731lg3KYNNxqDwmS0QgNn+/y2Bexu/Ww/ZCCOQJBDD5EcGEppwIJZAXEQqkhPoSsogo5A6zhEtBjErEUfkxrBB5/YBy2EbeQwAzEdTVESncJsNEnYc1RwEIArvZ80TPZutaiLzZgmxYb6AgQBwxCkxs6+gykimlcKZBJ4DGHQ16Kv1INoEQyrzZhG5Yd6AggNILiweeVFBelGpo4lFqocBCBkZrjTYah5SRKg5HCpwQeUcKwfD9goMArDMsNJYELBkgL+YvtOF85opNjgd0iLzxEAl/hxAICARudBMKSMfDboYQKHYIhMhb7CsgHH9gIRAib2CnLux4sUMgRN5iXwHh+AMLgRB5Azt1YceLHQIh8hb7CgjHH1gIhMgb2KkLO17sEAiRt9hXQDj+wELg/wNen/a+vgp6HQAAAABJRU5ErkJggg==;" vertex="1" parent="1">
          <mxGeometry x="760" y="60.00000000000001" width="59" height="60.97" as="geometry" />
        </mxCell>
        <mxCell id="oQB2d7SRe4JEm-w0o-bS-23" value="&lt;b&gt;Config Server&lt;/b&gt;" style="text;html=1;align=center;verticalAlign=middle;resizable=0;points=[];autosize=1;strokeColor=none;fillColor=none;" vertex="1" parent="1">
          <mxGeometry x="740" y="130" width="100" height="30" as="geometry" />
        </mxCell>
        <mxCell id="oQB2d7SRe4JEm-w0o-bS-27" value="" style="group" vertex="1" connectable="0" parent="1">
          <mxGeometry x="890" y="58" width="60" height="70.49000000000001" as="geometry" />
        </mxCell>
        <mxCell id="oQB2d7SRe4JEm-w0o-bS-24" value="" style="shape=cylinder3;whiteSpace=wrap;html=1;boundedLbl=1;backgroundOutline=1;size=15;" vertex="1" parent="oQB2d7SRe4JEm-w0o-bS-27">
          <mxGeometry width="60" height="70.49" as="geometry" />
        </mxCell>
        <mxCell id="oQB2d7SRe4JEm-w0o-bS-28" style="edgeStyle=orthogonalEdgeStyle;rounded=0;orthogonalLoop=1;jettySize=auto;html=1;exitX=0.5;exitY=0;exitDx=0;exitDy=0;entryX=0.567;entryY=0.369;entryDx=0;entryDy=0;entryPerimeter=0;" edge="1" parent="oQB2d7SRe4JEm-w0o-bS-27" source="oQB2d7SRe4JEm-w0o-bS-25" target="oQB2d7SRe4JEm-w0o-bS-24">
          <mxGeometry relative="1" as="geometry" />
        </mxCell>
        <mxCell id="oQB2d7SRe4JEm-w0o-bS-25" value="" style="shape=image;verticalLabelPosition=bottom;labelBackgroundColor=default;verticalAlign=top;aspect=fixed;imageAspect=0;image=data:image/png,iVBORw0KGgoAAAANSUhEUgAAAJIAAABMCAYAAACGT+7RAAAAAXNSR0IArs4c6QAAAGJlWElmTU0AKgAAAAgAAYdpAAQAAAABAAAAGgAAAAAABJKGAAcAAAASAAAAUKABAAMAAAABAAEAAKACAAQAAAABAAAAkqADAAQAAAABAAAATAAAAABBU0NJSQAAAFNjcmVlbnNob3QJb98dAAAB1WlUWHRYTUw6Y29tLmFkb2JlLnhtcAAAAAAAPHg6eG1wbWV0YSB4bWxuczp4PSJhZG9iZTpuczptZXRhLyIgeDp4bXB0az0iWE1QIENvcmUgNi4wLjAiPgogICA8cmRmOlJERiB4bWxuczpyZGY9Imh0dHA6Ly93d3cudzMub3JnLzE5OTkvMDIvMjItcmRmLXN5bnRheC1ucyMiPgogICAgICA8cmRmOkRlc2NyaXB0aW9uIHJkZjphYm91dD0iIgogICAgICAgICAgICB4bWxuczpleGlmPSJodHRwOi8vbnMuYWRvYmUuY29tL2V4aWYvMS4wLyI+CiAgICAgICAgIDxleGlmOlBpeGVsWURpbWVuc2lvbj43NjwvZXhpZjpQaXhlbFlEaW1lbnNpb24+CiAgICAgICAgIDxleGlmOlBpeGVsWERpbWVuc2lvbj4xNDY8L2V4aWY6UGl4ZWxYRGltZW5zaW9uPgogICAgICAgICA8ZXhpZjpVc2VyQ29tbWVudD5TY3JlZW5zaG90PC9leGlmOlVzZXJDb21tZW50PgogICAgICA8L3JkZjpEZXNjcmlwdGlvbj4KICAgPC9yZGY6UkRGPgo8L3g6eG1wbWV0YT4Ka3wMjQAAE1hJREFUeAHtXQl8U1XW/78s3ZKWHdlXhQpIFUTng2GQgdGPcVhm/AkiDsW6jICfowLKiKADzACyyDbAiGBBRxDZZN9EdlkGUUBRimyFUtYW2qZJmuU756Vps7zkJc1rKuXd3y/Ne3c5996T/z3n3HPPexWclKAmlQMRckATYXu1ucoBkQMqkFQgKMIBFUiKsFElogJJxYAiHFCBpAgbVSIqkFQMKMIBFUiKsFElogJJxYAiHFCBpAgbVSIqkFQMKMIBFUiKsFElogJJxYAiHFCBpAgbVSIqkFQMKMIBnSJUykKEolesuzfDsmQeHNeuQEiqgphuPRH31EuA5s7BN0fxHDvyNWZMeA2Z536A2VyA2LhENGx0D8ZM+gRNmieXhbtRbyNUSDwSg2jbFyj8YCJgs5VOWhAQ27M/4lJfvWPAdP5sBp7v24EAdLOUD8VXTrse2w7fJGDF+5X90jKiv/QJRJbNK1A4f5I3iJgzXLZ2Cczp0wGH45fGK8XHw9Jo7fJ0SRBxZ4K2CAvnEZ9ugxRdILEk2rQC5gVTgKIiafYwmNYtQeGiOwFMTpzOOCLNh+LchZOJVzKJAemghef+OCtgEUbPRmIQbV6JwgWTAbs9OGu4LkkmlkrxacNoaQrB69/GpYIQfC1rY5hXHA0dmAdb1n2GTWvSS7iQmFQLf5+yiNgWnHZJAwUuogckAoN16yp5ELknxWBa/5l4F//s65XSZhKIJy2SH8bBfevds/b7fmnkWMoLDCKWRke/2YPDBzaXtK1WoyFbCVFdf9GDLE3TOHkRtHe3Lpmw7AWDad1SmBdOFe0n2fq3XQUBPZ9MhSGhtuTINTDgmTTaeARJrM6+IyBVdCpfIDEQdm+BM694R6LRwjDhQ2hb3hfWvC0kmcwLCEwVoPvDGmgZKtet3whT529Ey1adoNcnQaeLRwx9J7fqjIUrDkKn1welevVyFs5mnAhaJxqF5afaCERFX3+Fwml/g7lqNSTOWE6+oqoQdHoYxs+HacxLsJ34NuQ5WtYvFdVb3LOvRVdmhzzCsldsdV87fLBkN27dzEXerRwkVakmfkKhuH3j59BoraFULdc65eNHcjpQdGAXTJOGlwxeMBqQOGsVhKrVxTyn1YKCd4fC/uN3YamtmJ4DEJ/6CqDVltC+Uy8uX8rEwD4PoLDwuhcL2EZa9eVZ8uuWr8Lx7FT5nlgSHdoD00TabXkkZ34B8l7uDWeOa9JCTCwMY+dC1/YhaBs3gbZhIwjxCR4tpC+taz5B4cf/IjUns/OTbl4pctkuyjyXgVfSHvMDkWuCTjK2A3/KgwnKSiSaYNHBnTC990ZAKSMYE5A4kyRTtRrFcy7dXjDI8kcOguPKJdm5xvYZiLgBQ0BGhWxdJSrwD2MlKWo2FcBcWAi7w+WR12r1iImNQXyCAbGx8bJd8U6NE4Ph8qWLfCXeB/oTQwuuRq06YvGlrAu4djkT6fMm4vD+zXA4LZLNBEGH1ikdyQTwlxOWQgup0V0k0JXlm3JAYkm070uYJr8pa8MICXFI/PcGCMYkP0Y4rl9F3gs9XK4Tv1LPDCdi/zjIBaZyVHNFRVZcungOC2dPwo4tq+nHu0kgIBAxHmgN0LTpR9FCg0RonAbPAfpdC9RozOzF6PJIV9y4fgW9OtcjOsEla4vWXbBw2Q6xoz90bINbBT/40Q0nw3QL2H+qiNafskBShhqDaO9WmKa+JQsinrSzwCTu5KSApKleEyxtLKsWy/BHoDqLxP7inqaDXoVXGHeenZWJwQO64vr1M3RXLDkIQLT59El2Ks2FQ8j1yfe+ZWkkWM1iZsZP35PAcEoJDa9Ggoedo/UXMF51K/Im8qGxyN+5EaYpI0Ofh4bwG+ggkpitqdMgZFqWlemwfDafdUXIbeQrOvHNwa/Q97GmBKKfqbqStF29n/juAIFIebrycyufGhECiUDEp/gzRpNkCIMUqQZnzrWAM7Id+yZgmVSB+fOFYjiKUmC6cP4shv3lcVm1IzUWuTyXhQTcuFpIii6GqrtzZFpSNbZ9BLg/fmLRi0BpPXf94m8huF/Ki0gYNxHZSHwAW/jvCWF0V1pV27ItjP8gSSJl35BdcuuVvnBmXyhtEMJV3BODEDtgKHM8hNrSVdiofqZne2SeD3SYqkWioRH6pr2M2nfVxf5dW7Fr2woyvvOIIBlMHom8IOj2eBoe6NAZTZq2xF116qJG7frkeNSLuyq2v05nfI9hL/ZCXh4b3v7pnlZdsWDpdrGgiA+62SijdOPGVfTvkQybPV+89/xTrUYDLNuYIbn959YxMQxgZVMYYsSjY5oMe5vFUBCP7HAu7T8dRf7bL5K9xD+AT9LHIGn6UnIJNPcpCH5rXrkI5sUzidllVxkXzp3CxQvHJDtKMFTH0g0nsXZvBlJfeB09evWnw9GF2HTgMv7Q2/8og4W01img1xOpSGn/P6hTv4kIIibO9hLvyJJbt0PaEJLoISQGoJ5AwB8XGAItGKGknru++7s8QMRDDx9IDKK1n7rOvyK0S+zk2bZ9e7CEhdatK+AsLHDdx8bB8F46tM3CiBDksa3+OKJ4pqWLZ7t2ZSWjcl2w2+rVt+agXoNmtNK91UosjfW10RSk5/DftW3ZkC5KHR9yXrfRdBx6dazgTXhAcoOIV32EICqdQ7E6INoO2iXlD3+GpJRLXAtkkBtI/WnvblVaPYQryxoKjvtoWtiSidXa4b17JHuoXrMBuvd4QrKMM3nF/6k/+bV8kqCx49C+rT65le82dCARk610rmNePCv0UJCw+SW4wPTGwBKVJ4Jp7DxoW9wHgWwSQXTOyamuYtX7IQWFhQv4AH6dpKTqkjaH5xTrN5Lebf70w3HRJvKsW9muQ/MjMYg2LaegtDL8MGXgmCPrPPJH/BnGSYshJCaJRyeiYc60WHJdzSbv+XDYz/HWPEDiMW9YJgIp/kXytIezq5QgaS0i/w/RDJYuZ12WLC405UnmV6bMkCSS7dihqIHIzVzHpQvIf2NAaQgKe2L5Qwanpl5DGCZRBCCdksslXgDmpbQ7lAEB02EDOD6uiiTJ7IunkUEbhEDJajFj9bJ5ksU1a5EHu5KnkIBkWfVxOaqzwBx20FmU7dhhyQoCGbj6zo9KlvlmWjkExe46G/Mt871/Km0wgU5iNyTYMO7NNGTRcYlvKsjPw4TRQ2EtuuFbJN63bJ0iglSysJJkhqTanBUlmkmK6No+GJDV2mZkhLOkkfEbOS10JEMSg2Oh5NJvuvfEzPdqU1yQv5o6f+5bpPZJIaP7aTSmvvW0fb+cdQYbvkinWKJsSdJ2mxbtHv6NZFllygwJSPr2nWA/eYzmLbFSy5MbBBDb0UPQd+wm2Yvj1HFZEHFDbb3GZGf5b82liPIp/hP9XsOi+aPIvUh7fp9ksdzE+tVzfXID3z6VOkx0GQSuUTlKQlJtsU8+B13Kr6I/YzKQzUvoR5PYeTlN+bDu3SY7JsGYiPghdJjscfgp12jQ0BF4tOezVM3bXyTXzrtcQMt7uyDt5bcrvVrjeYcEJN7xGMbMJDXzMDUJvnPxZmbkd44LZ1AwcTjY+BbVGKky++mfkD/qeThv5gTtgKMLEkZOoRjx+4PW8y1kB+Fb4z/AC0OmkG0f51sse2+3Cej0636Y9dF6GAyJsvWVrxDd34jHH5JqEyfKgfsEpoJxr8BGJ9fRS6TeDu1C3sHt0DRqCQ7RdVJwl5yaFZIIRG9Oga5VuzIN1cnhwo5ceo7T6tFegL2IohN0FP7ho+UddgEGYxXc/2AXsDpLebCjrN/Jg7CilwX5OSTE7VHtP3Qg8VTpgNUFpr/S0cbXlOHDTUXZ4UOMTr4dmW6/UfB+2fdkeGs6SaK2PkRCu7XTA5xzKbZq2SeTqUHp6m7arB3e/3ADDh/cjfM/f4+bVy1iGFS9Zg0oIvEhehIkRQxyiwZfOEguUDIXmrBz63p069HHrwp779nNoXQKD0jcO0um0TNQMP5V2OgtGsqm0h+trHTZJkoYVXYQMaPnTfMHkVbL52kzUL1mbfzu93xUwp+KS/EGA7nV9HT67z8GDQXMzZg4WAzAu5se/dJSvZxr2RTnfRo7Nq/GO5MXiKHB/i3LnhM+kLgvBtPbbjDtpYyyIVz3wK+gpdNvMdEq0bXpAOuWlXCaTK68MP8KCQlIGE22HB2nlDVtW7+CJNFUau4N6noNmuPc6ZO4fuUyjKTC+A0hcfRJSDSKKo2v+fBWq9PSig/N9GTQ2sm/dTNX2v/Ec8i9cQlFpM51FBHhKUn0+ljUb9wCP5/cLznV3JxsvDP8j0SfxkJT0WhZErnmdOL4ULR7qLNku7JmRhSPxE9yFIwjySSqufCGwAAyvktPg/j4dtjNkD9ioAjWcCgKcRQtwGdy97QJp5lXXQ7If/LRFrh6xa1CvYrphhSKuGbcC0cg+5/OB0kqOMjAjokTUKtuMyTf2wGtUtpT6EgnNG/RRgSYNyUn1q38DGuWz6WHG4/RkyC3aD8jIVq4RwKlQMFoTZq3RZu2v8Ww0f+kui6gzp02BkvSx1Mtb9B79+V/90j3VIydlu5fEEFOZEDijon5BePcNlOIIyFD1jjtU0iGiNAqLZgwnAzsnSESo2p08m785wJom98behuJmvyUSJ9HGiA/P3D0pkSzgFk0FcTGVKPwkxno0bs/SSuXAmBJNG38CHyxjCSfG5MBqZQW1Kx1D5ZvPUFGtMstkXPjGvr/Phkm0/XSSiFcOewx+OpInhixEEL1kKqEJoODkaLVYXj7ffIzPRSslncZMUKoVtM7z31HS17fvqP7Tv6bIuKNEz+KGETcEdsccfS2NKUSSy9rUQ4mj03FpHf/Ku6klKLNdKrRgxKTZq+HThvqmGnHqTGgR8/nlByGSCtyIDEZeoLDMHoWtG07hDZA1gXmwgB1yW64cDZAmW+2E8b3KZKSwliVSOw/Gjx8IgkJ14pXgibTYAm0ac1c7PlqYylJPs8TuJ8wPk7/nyvlwYexbk8WBqS9S9KvOqlZfbE6JJVIbkLxHkY80n0Q+bX2Yju9AW7UxDmKSiOeVOSqrZQ19PIsK/JJzdkpWkAuxfR6BvHP+oenOuh5r7y035GNJHMuZi+Ccc4X0DZoItdVWOX8ox/9Zj9efaErnfNKP4AYFkGPyt0eG0Q7po/EHPZP2W0Ugx1GEkiSs0EvlXjcbOMxTRsfUDtIr/IGRq8jiUWB/6wFXAaeVPOI85QFEg+HwTT2/2A/fjj44GhScWmvI/bxfjRhWmnECH5rSf6bA+HIzgre1m6Fce5aaOs3Dl6vDKXsg3n68ftx7VqGR2s2qDWwWcm4ph+IHq4lIUy7IH4urdjGoeFTEv94tPO+jI01YvOB3BIbx7v09r5THkjMDwbT6JfAAf5yiR/d1tSmeB1SdfbsTMAiIwXsFiTOWQuNwpKIx8mr+rknO+HUSW//WMfO/TB+xsfFK94merv5iY4ietjRRO80MFN0QX5eLk6fPI6ZE0dAFyMtaWxWLbZ/e4vssAQ5ttx25eUDJGYDidj8MUNgPxHosZ4y8IpWv/Ffq6Ct27AMjeWbZF/MRL8ezUmulAKBjz6Wbz2LOvUayRJgIN4in1CvLnW9aLgbsu315WGT6BNy51WWb3/rTamZ0Q7IOG4utMkpylCkyEjjrM/LDUQ8yE0UAOdwloKI82Ip/ITfVxRKYhvEQMczgVRcmwe6kkqUsf1C6egXWKf8gMSTJSPP+I8PoCWPdSRJiI+Hcep/yCZqGgkZ2ba5N/z9MVZzPuZNf0d2687SyEbvDB/c/1GSRtLRmN3/t1+5GryyEyzHCuWn2jwHzU5LeqmW7ehBcSfhWSR3LRjoCIJCOrRNWshVjbh8344teGPoY3wC5JME1G+YjHr1k3FXvTpocncb8ViED3evX71AB7h0dEL/veDcmaPIuXHRp63r1mCsQw9XHkeVqjUky2/3zOgAiblEW1LxOOU7NmSLtzoy3ON4IvHYo2n5g4iHYiaD/0/dGpHhLO3Zdm+f+VjEO/FuLfCOrciswZz/7KRHt3/t3awS3ZWvavNkFDst355eHGkZmOnuJvy/SQx/n0POxuiAiPvlg9dRYz8hv4v0rorVF3/ISePzCTyfBHpj7dxPd1GcUifuotKm6EkkNwvJNSCepR3Z587x++aXlhrGkKc8wrMzP8IhZDBQfiQf2Jwpo3D0yI7i3VdgoEiSJIml0yUi9S9/Q+++z6NqdVZnvlJMsuVtmxl9IDGrGEyTR4qRj76cc4FoNoEo2bcoqvds/5w/cwpH/rsTx4/sR8aPR5B1NpOeVCJDmp7G5QhKxgYfQ8Cpg14Xg5Z04t+qzf2kwn6L+yhEJoHsuzslVQyQmLt00m6iALKiAztLeK2hN95yPJFkVEBJreheuNUZA8dOUWRms4nWgVV0SrLNxG8IiaFjizh6kaqGQz40HGoSPYshutwI3FvFAYnHRE7LokO7KdJyHzS16tL/a+sNgU601XT7caBigXT78UsdcQAO3HkyOAAj1OzIOKACKTL+qa2LOaACSYWCIhxQgaQIG1UiKpBUDCjCARVIirBRJaICScWAIhxQgaQIG1UiKpBUDCjCARVIirBRJaICScWAIhz4fz3vvmjWK2e7AAAAAElFTkSuQmCC;" vertex="1" parent="oQB2d7SRe4JEm-w0o-bS-27">
          <mxGeometry x="10" y="33.97" width="50" height="26.03" as="geometry" />
        </mxCell>
        <mxCell id="oQB2d7SRe4JEm-w0o-bS-29" style="edgeStyle=orthogonalEdgeStyle;rounded=0;orthogonalLoop=1;jettySize=auto;html=1;exitX=1;exitY=0.5;exitDx=0;exitDy=0;" edge="1" parent="1" source="oQB2d7SRe4JEm-w0o-bS-2" target="oQB2d7SRe4JEm-w0o-bS-9">
          <mxGeometry relative="1" as="geometry" />
        </mxCell>
        <mxCell id="oQB2d7SRe4JEm-w0o-bS-30" style="edgeStyle=orthogonalEdgeStyle;rounded=0;orthogonalLoop=1;jettySize=auto;html=1;exitX=1;exitY=0.5;exitDx=0;exitDy=0;entryX=0;entryY=0.75;entryDx=0;entryDy=0;" edge="1" parent="1" source="oQB2d7SRe4JEm-w0o-bS-6" target="oQB2d7SRe4JEm-w0o-bS-9">
          <mxGeometry relative="1" as="geometry" />
        </mxCell>
        <mxCell id="oQB2d7SRe4JEm-w0o-bS-31" style="edgeStyle=orthogonalEdgeStyle;rounded=0;orthogonalLoop=1;jettySize=auto;html=1;exitX=1;exitY=0.25;exitDx=0;exitDy=0;entryX=0;entryY=0.398;entryDx=0;entryDy=0;entryPerimeter=0;" edge="1" parent="1" source="oQB2d7SRe4JEm-w0o-bS-9" target="oQB2d7SRe4JEm-w0o-bS-12">
          <mxGeometry relative="1" as="geometry" />
        </mxCell>
        <mxCell id="oQB2d7SRe4JEm-w0o-bS-32" style="edgeStyle=orthogonalEdgeStyle;rounded=0;orthogonalLoop=1;jettySize=auto;html=1;exitX=1;exitY=0.5;exitDx=0;exitDy=0;" edge="1" parent="1" source="oQB2d7SRe4JEm-w0o-bS-9" target="oQB2d7SRe4JEm-w0o-bS-19">
          <mxGeometry relative="1" as="geometry" />
        </mxCell>
        <mxCell id="oQB2d7SRe4JEm-w0o-bS-40" style="edgeStyle=orthogonalEdgeStyle;rounded=0;orthogonalLoop=1;jettySize=auto;html=1;exitX=0;exitY=0.5;exitDx=0;exitDy=0;" edge="1" parent="1" source="oQB2d7SRe4JEm-w0o-bS-39" target="oQB2d7SRe4JEm-w0o-bS-36">
          <mxGeometry relative="1" as="geometry" />
        </mxCell>
        <mxCell id="oQB2d7SRe4JEm-w0o-bS-39" value="SS" style="rounded=1;whiteSpace=wrap;html=1;fontSize=20;" vertex="1" parent="1">
          <mxGeometry x="1224" y="255" width="108" height="78" as="geometry" />
        </mxCell>
        <mxCell id="oQB2d7SRe4JEm-w0o-bS-43" value="produce" style="text;html=1;align=center;verticalAlign=middle;resizable=0;points=[];autosize=1;strokeColor=none;fillColor=none;fontStyle=2" vertex="1" parent="1">
          <mxGeometry x="1108" y="265" width="61" height="26" as="geometry" />
        </mxCell>
        <mxCell id="oQB2d7SRe4JEm-w0o-bS-44" value="consume" style="text;html=1;align=center;verticalAlign=middle;resizable=0;points=[];autosize=1;strokeColor=none;fillColor=none;fontStyle=2" vertex="1" parent="1">
          <mxGeometry x="858" y="265" width="67" height="26" as="geometry" />
        </mxCell>
        <mxCell id="oQB2d7SRe4JEm-w0o-bS-48" value="" style="group" vertex="1" connectable="0" parent="1">
          <mxGeometry x="605" y="547" width="145" height="95" as="geometry" />
        </mxCell>
        <mxCell id="oQB2d7SRe4JEm-w0o-bS-42" value="" style="shape=cylinder3;whiteSpace=wrap;html=1;boundedLbl=1;backgroundOutline=1;size=15;fillColor=#f5f5f5;gradientColor=#b3b3b3;strokeColor=#666666;" vertex="1" parent="oQB2d7SRe4JEm-w0o-bS-48">
          <mxGeometry width="145" height="95" as="geometry" />
        </mxCell>
        <mxCell id="oQB2d7SRe4JEm-w0o-bS-46" value="" style="shape=image;verticalLabelPosition=bottom;labelBackgroundColor=default;verticalAlign=top;aspect=fixed;imageAspect=0;image=data:image/png,iVBORw0KGgoAAAANSUhEUgAAAXsAAAB0CAYAAABkH5JqAAAAAXNSR0IArs4c6QAAAGJlWElmTU0AKgAAAAgAAYdpAAQAAAABAAAAGgAAAAAABJKGAAcAAAASAAAAUKABAAMAAAABAAEAAKACAAQAAAABAAABe6ADAAQAAAABAAAAdAAAAABBU0NJSQAAAFNjcmVlbnNob3Tzx8PXAAAB1mlUWHRYTUw6Y29tLmFkb2JlLnhtcAAAAAAAPHg6eG1wbWV0YSB4bWxuczp4PSJhZG9iZTpuczptZXRhLyIgeDp4bXB0az0iWE1QIENvcmUgNi4wLjAiPgogICA8cmRmOlJERiB4bWxuczpyZGY9Imh0dHA6Ly93d3cudzMub3JnLzE5OTkvMDIvMjItcmRmLXN5bnRheC1ucyMiPgogICAgICA8cmRmOkRlc2NyaXB0aW9uIHJkZjphYm91dD0iIgogICAgICAgICAgICB4bWxuczpleGlmPSJodHRwOi8vbnMuYWRvYmUuY29tL2V4aWYvMS4wLyI+CiAgICAgICAgIDxleGlmOlBpeGVsWURpbWVuc2lvbj4xMTY8L2V4aWY6UGl4ZWxZRGltZW5zaW9uPgogICAgICAgICA8ZXhpZjpQaXhlbFhEaW1lbnNpb24+Mzc5PC9leGlmOlBpeGVsWERpbWVuc2lvbj4KICAgICAgICAgPGV4aWY6VXNlckNvbW1lbnQ+U2NyZWVuc2hvdDwvZXhpZjpVc2VyQ29tbWVudD4KICAgICAgPC9yZGY6RGVzY3JpcHRpb24+CiAgIDwvcmRmOlJERj4KPC94OnhtcG1ldGE+Cj4COq4AAEAASURBVHgB7V0HYFRV1j7pvRcSQu8dARFBBBHBvqIgINgQK8quFcti+y1YcK2sfVfFgqyi0kGK9N47gVACIaT3Xv7ve8kkbyZvkpnJBIPco2HevHnvlnPvPffcU13y8/PLRYHCgMKAwoDCwF8aA65/6d6pzikMKAwoDCgMaBhQxF5NBIUBhQGFgQsAA4rYXwCDrLqoMKAwoDCgiL2aAwoDCgMKAxcABhSxvwAGWXVRYUBhQGFAEXs1BxQGFAYUBi4ADChifwEMsuqiwoDCgMJAgxH78vJyKSwtVhhWGFAYUBhQGGgEGGgwYp9VlCNLT26Q0vKyRtBN1QSFAYUBhYELGwMNRuxTi7Ll89iFcjwj4cLGsOq9woDCgMJAI8BAgxD7MnDzx3POyLb0WPnlwCopLitpBF1VTVAYUBhQGLhwMdAgxD4xL1U+PjhHskuKZWH8VjmceuLCxbDqucKAwoDCQCPAgNOJfWp+hkzbP0uWp+wRH1cviUs/I/OPrJfCkqJG0F3VBIUBhQGFgQsTA04l9kcy4+W5nZ/KdydWiqebt7i4ukiBlMjvJ3bItjMHL0wMq14rDCgMKAw0Agw4jdgfSj8uU3d+Lj+f3iCeru4VXXMRcXFzlYNpp+SH/cslPjOxEXRZNUFhQGFAYeDCw4BTiP2O5IMydddn8kfKPnF39ayBxRLY3C88sQUEf5mk52XW+F3dUBhQGFAYUBhoWAzUm9jvSjkkr+z5StamHiYbb9haVxcXyS0uks/2LpSfDq2SnMI8w+fUTYUBhQGFAYWBhsFAvYj9ntRYeXXP17I+/YiUu9RelCt+zykqltc2fye/HV4tBUph2zAjqkpVGFAYUBgwwEDtFNrgBdOt45kJ8g6sblanHgBHb1sx5PALS8vkidWfyvK4Lcq71oRM9akwoDCgMNDAGLCNSls0IjU3U2bAjn5u4mbQeQ+LX3VfWXqlrtZ010VcxNXFQ8YsekW2J2GjUKAwoDCgMKAw0OAYsJvY5xbny9fHF8kXJxbDvNLH4QYGegTKFbOekL1JR0VlPHcYjepFhQGFAYUBmzBgF7Fn2IOlZ7bJWwfmiJe7r00V1PZQEAj+4NlPytHU07U9pn5TGFAYUBhQGKgnBmwm9mUwn9yfHifT9/4ghXCUchZ4QQw08rcX5VRmkrOKVOUoDCgMKAwoDFhgwGZin16YJZ8dnif78xLEy+Q0ZVGYo1/P5KXJa2v/Kym5GY4Wod5TGFAYUBhQGKgFAzYR+3JI1X+IWyHfx68Eoa9FIVtLRbX95Ab7/CWndsj3+5aqGDq1IUr9pjCgMKAw4CAGbCL2e1KPyJsHfnSKnN6onS4wycwrKZGZh1bIipM7jB5R9xQGFAYUBhQG6oGBOol9TnGevICYN7nlDRu1kk5X8Vkp8sXuBRKbGl+PLqlXFQYUBhQGFAYsMVAnsf8pbrksSdldHdzMsgSnfneR7Wdj5dcjqxFeId+pJavCFAYUBhQGLmQM1Ersz+amyr9jfxU/d79zgiN62OYj4cnsQ2tkVfzuc1KnqkRhQGFAYeBCwECtxH76vh/lFHLJulsJcNYQCKI453hWkiw+slHOQKyjQGFAYUBhQGGg/hiwSuxjU07I0rObpKz+ddhdAq1zfotbJ1uTEElTgcKAwoDCgMJAvTFgldjPiJ0racWF9asAyUssY+PYUiDFOVklhbLg8FpJyEq25RX1jMKAwoDCgMJALRgwJPbH0k7L1vT9UlTuBE9ZEnwHgPlrZ8etlX04YZTDe1eBwoDCgMKAwoDjGKhB7ElWZ59aIUnFueJiY+hix6uv/c2ychf5+cAKSclTnrW1Y0r9qjCgMKAwUDsGahD7tPxM2ZR2QNKLc2p/8xz86uvmJd8fXSWxyGHL2DwKFAYUBhQGFAYcw0ANYr86cbscyU4CV2+cYtCxahx/y9XFXX7av0LyiwscL0S9qTCgMKAwcIFjwIzY55cUyLLUvZJQlI4EIw4K252MUHL338WulsTcNCeXrIpTGFAYUBi4cDBgRuwPZ5yQE1kJzCXVqDBQhFANS2LXN6o2qcYoDCgMKAycTxgwo+q7M+IkLidB3BoJV29CpA8yYn13YDmCpSlRjgkn6lNhQGFAYcAeDFQR+6yiHNmTdVwSizLted+2Z52gW92JU8eO0wdtq089pTCgMKAwoDBghoEqYh+fkySxmUwPWHXL7EGHvziB0LNuHzdv+WHv7w43Q72oMKAwoDBwIWOgirLH5SbKgexT5zQOjj2I90TSlLknNktWUa49r6lnFQYUBhQGFAaAAXdioRCRJk/knJHkwnTxgPVLY4Vk2P5vPrFHrmp/aWNtomqXwoDCgBUMpGdmyiPPvSql5WUS5ucrAf5+EhTgLx4ebqA77uLp5QmT70orQEgEiouKNP+a4tISKSkpldy8fCkoKJT8wkLJKyySkrIyKS4tl6LSUhFc42FBAeLt7SlNQ4OkaWSENGkSIU2jmkjbNq0lJjpKXF2r+FsrrbTv9sn4U/LTbwvE3c1N/NAnfz8/rT8sxc3VTdw9qjP7VfSnOtpYUVEJcgCWS3FxMf5K0IUyKWU/KoFlBgcFShD+mkSES7OYphIaEmL62e5Pjdhng1s+mZskZSZE213MuXkh0N1X5h5eo4j9uUG3qkVhwGkYICGbM3eRLFu9Vvy9vcQdRJfEzN3dvSIcCmgPCbHe4JvvaFJgOFRyEygFUTcRRG4Y9LMkydIcLrUHK5rr6uointg8PEBo3TzcpRRE19vNQ7zdPeSaIf1l8MBLpW+fXuKBuusLH37+tSxauRqm6q5a+93d3dDmil6wzXoT9qr+VFZajv7xmXKtL3yL19Ud4ZUbcFSO9uNCfCBib9W2hYy9YZgM6HeJhIXaR/hd8vPzy/emHZWntn4iG7OOODfHLAcjD39ZaLV+FOuB4UBPT9l913/FU7dj1qM49arCgMLAOcBAbl6edOzcVTJ9IsTP0118PT3AzbtpBE4qSHodrXBBBN4yKSnFXxk4edAWEnUSFpZDoqonrBrJBOHkJ7eMcnL9+O4J+lEAohkTECT33jVKbrxuuIQGB9dRt/HPR+OOye13PCjH0jPEC6cJ0wZm/HTddy1JpNYHvMZesPna6cXNVTwg0o4KD5W7b7tFRlx/jcb511069oupU6e+tDPjmHx2bJG2O9nykj3PuBRjOBg807In9hSie7YAAz0spqdEB0bo7qpLhQGFgcaMAXLl/fpdKkP795U2MVEQ0RTL0fgEiGSKQIDdIfIAVw+CbfRXCiKdkZMrARCR9O3RWfp27yI9OreX9i2ag+iFiSe46bSMLDkVnyyZEP0UoC7uAzw5mDYBls8/cs6uoCE5+bmyfM0mmb9gGUQlftK6ZQucBOzj9Fle8xbNpE3LGIkMCZZUEP24uAQpACPuh02FdRv1h/eyII5KPpMuWZm5kpVXIFkZOdXXEOmAvIsX2uPGEwOepzm81gd8luEkkJ2bK8uWr5ODB2KlW7eONol3XLJys8tnHVsmj2z7QHzc/Z07X7AbOZuzLyorlhd7j5bJA25zbltVaQoDCgPnFAOZWdkyf/Hv8vbn30hGejroT01iSxFNKAjpEw9OkFEjbqy1fYXYOI4eOyZ79h+QJStWy9KVG6SguFRCgv00rtvo5WIQ/ozkLLl+6GB5+fnHpBWIfn2goKBAZs6eI//37r9xeqkg+JblZeYXyNRH7pWJd40XLzxjgkLoIpKSU+TwkTjZvmu3/HvWr5KYmi7NggOstj8tO1cG9Ooh77z6T2nTqqWpKMNPtyefnfLSppSDsjx5j3g0QDwcZ3P2TGySjIicd3Udru2ahr1SNxUGFAYaPQa8vbykR9fO0jQsWLbv2S95BfkaF6tveGFJibRp00YemXi7pvzU/2Z5TXl5RHi4dOvcSW667mqZMP5W6dGpjezYFyvpOTmaUble1MP3yTn7+fvIPmwSazZslk7t2mgKXUcVudRBdGrXVnyhl1iyeoP4QulsCcmJafLVv9+GQtc83SvfDQoM1Ij2ZZdeIo/ee6f0795Z1m7eLhm5eSD4FScFfXk+KP/Q8XgpxAbSF0Tfx8db/7PZtWsBkoSczjlrdrMxf+FOn1aQIcl56Y25maptCgMKAzZiYNDA/iBywVJaUm2JUvUqpAMUYVDZai+EBAfJzTdeL6vnfS+vP/138ffw05S5RhF0g2FJc/L0GXn4qRdk5doNsP5xPJcHrXLat24jrrAUsgroky0w9IrLZcvvv8qY64ZJARXWoH+WEBboL1999ZNs27FHU2Bb/m767soQBCdzEgXSLdO9Rv9ZgIE4nkoHMAUKAwoD5zsGgoOCxNsVIhwDQsa+0UqFcm5HgVY34269RRb98l+57JI+MIf0lCIqeS3AGxtKBk4AT7/0hmzevtOQsFq8YvWrj6+XhIQEVFgKWT4FbasXTjX2wCtTp8it114l2RD1GEFAk0D5evbPmmmq0e+855pTWijH8pLFk8g+T6CwpEiOZyScJ61VzVQYUBioEwMQwUCGY/iYSclp+KMdN5vA7v7LD96SibBi8fb1h39RTe7dCxtDena2PDr1VTl4+IgdpZs/SuWwt04eb/arlX6aPWPxxQvimkn33S2RkZEVfgUWv/tgo5q7fK1kou3WAMS+QA7nJ1r7vdHd5wZfil35WNb50+ZGh0TVIIWBRoYBd184VFkhgq4wN3SH3bwzgBvHpIl3yd/vvk18/fzhlFWTwyfBP5mYJC+8Ol1SUx0LrU6zUA9uYEZgpZ9Gj+rvNYHl0cRbR0hurpWAkDgZxR0/oX/F7Nq1uLRYCkHwzxfQjnQ41h3LVonIz5cxU+1UGKgLA94gsFzbNYCiHc3IvMYvDt/whvJ07C1/k3tG3wR/HU9DUUuIr4+s2rBNPp/5g8P1ULpeYelvUQQ2AXL+9gIV2t26dNLEXTUl9ygNppoJZ6wzwa7pBYhyWV5zd7O3Iefy+SIoKs4WNkB0znPZCVWXwoDCQBUGaCVjSBj5hJOJPYsMCgyQsSNvkmGDB8AKyFgOHhIWKJ/N+kX2HTjEV5wH4OxpeWMv0EIoNCRImjWNNAuroC+H4SSsgWtOcT40IPZXbK3Ac3O/DKeRQs19+tzUp2pRGFAYaEgM0PvUkLNHpRS9VHjLOrcFUZDhj7n5RunQvq3kG8jvuQEVFxfJB//51rkVo1xHwdfbW5o1icT+Z2C5hE3RH5ZA1sA1txAiHNiaNgiwTw1UNGVt2kbVIA1XhSoMKAycSwyA1oOoW6kRP9THGsdKqVosm57dOss1VwzUdMNGZo0+ELms3rJD9h+0n7tndww3MOggHAWtTGt4KiiSdgj4Zg1cc0vB2Z+HUFxeojJXnYfjppqsMGCIAauU3vBpp9308/WVIZf1k47t21vh7hFioahQ5i9ZZn+d1oiytfs21FCAcBAp6Zla6AT94wwM17ldC2nerKn+ttm1K4nm+QiIGAGP3/NN/HQ+Ylq1WWHgr42B7l06S7f27aQMMWksgXS5FCGIV67eIjnwYv0zgSePjPQsOXLohOb5q29Lemq23D1ulHDzsgbuVvwYrD3faO6TEbB0fW6Ixp0+nSDbdu6WixESlXGxjYChS08lnJEt27cjrsVxyUOEv4iwUOkOV/BBlw1AdFL7jm1piBOydfsu2bV3n2Rl52hu4q0QcOmiHt3hSs2ATfZ7Exq129Z79CY8m5wsR+OOS/yp05Kckgp73hwtrkeTyHBpj6NjG/xZw4+t9djyXGZWlqxctVZ8MamvGHSZYfRTtjf26DFZu3Gz7N67XxKTUjTFVrdOHWTApX2Fi5vRDxsauDjZ3j37Dsjho3HAXYIwfktIcKBER0UBb62ke7cutS7QhmpjCcSgtNw4HHtUjp+MlwzEmmesGiou6Xnavm0b6YqwA/aG0W2o9jZkubRhH9Svt2zYuk2SUlJqENJy0JqzudnA1RHpfVGPejfF2wFLHFZaAIeqPYcPS5GXOT0pQD6Sfr27ynXDrqyVNjQ8a8ytkX9OhhIcW/LLipxcKnbxykWwbuMW+e7XBbJ2yy6JDg2Wr2a8VYOYUfO9at0G+eSzmfLHpp3iGeSNYE4VkfZKoCzJxu8uxeUyY9qzctuom+tsK7X+H376pfw4a4m4RCARAog642HQvTsPXEdRRoEM6d9Lnnt6svTu2V2LdV1nofV4IDbuGGKQL5BZcxbK8fiz4ubnKV7onzs2L260TLTAKNzZOFq65RZL165t5bEH7pKrhw7RiHE9qjZ7NQcR/tZv2iLzFi+XOUv/kJyMXLlj1PXSs3tXoaOMHpYsWymvIQjVvv1x4hXkIz4wR2NbicPFazZK7vRPpXOHlvL+tBeAw/ovXH3d+us5c+fLjz/Pl6XLNopLsLd4ox2e7jyPEm9MuFGGIF3F4pKGMR12idx751gZOvjyWjeh9IxMuf3+ybJg9jf6qmy+LkKkyQOQPX//828yd94ySczMFg/YtzNqpBvmGcMSFKNdxFVOYbG4wr7v0t7d5bF7b0f89L51xqaxuSEGD2ohiA3un6tbXbt0lLDwCDmVeBZzxpyYMn5OOeY4GQhbiX0p8MjkJEbgKDlMh/jm2x9/llD/au6diVvYvqcenVSrCIftQOwg++09jTpwru+5o4M+ro5zZ+TGi8EBmrhycjir122UhctWy9ETZ0AofCXE11siEDGvRUyk+Ojcm5lZZvO2HfIcnC52HTgK7sdfoqLMY2LTGdoPMbsJ9z/3OiLwrZHP3nuzxs5LDusQPPVeeuNdBE7aDA7UT6JahWvv6f+hh5zA9nfX0SNy1bDR8sYbz8m9d9+O8py3X5MTJVdMTnTqa2/L6jU7JCgqSIveFx4RqBF3WkVwcmkTVrONFvFnPxEw9fTZJJn42IvSOnyG/N/Lj8vwK6/gBLNJuWaqm/HKyV0dASe8A5H/5oG4b1m/R9zC/THJfcTfC3WBiHv44K/yhMM2791/UCZNeUF2Hz4u0eFBEtnEfDyIS0/Mdd9wD0nEyWTQ5TfLux/8n9xzx1inbJqcR8zE9AMiHj7/+kdS5O2ObEze4tckAC7u9GWpsJ7gZknC7+sJDPpgliCuya6DsTJy0hQJLHKR0aOvliGDBiArUYz4I5MT51oK2rthy3b54ONvJQuhfu0F5KyQjVt3yJvvzJD1m/eIf0SA+AGPoZi3xDtttrmBM7o8HYoIgbBF528HDx2WsXc/Jn16dJRXXpwifS7qXoV37cG/yD88lYb4YxJznCqWbVXPNKsccNV7D8XKmKq7tlwYWsM7xPzmQoT03iefy5FTZ0CXfLQxK8K890RCljdfmKKFgagreBsYR/NdzJYu/BWeWbF6rcYBbt+2X8rAccG3WYLw54cjXcvmkVVd5M4ZGBCAWBae2sJLSEqWt/71ocycOVciWoRDXBOoPcsUaZqJGBYMGCQziAkNBOe/TR584jlwlC9r5lFMs5aWkSHfzvpJPvrsWynDnhsdGawNIpUt1OJr/1mUxcXYtH1zefb56TCicpX77h7vFGJFonIS8cX/NeMTmfXLUgnAphPdHJsO6vDCptqjW3tp0TRKO/lsOXBYTsQnVuS0hI8GOUL2ncS0CQhtemmeTERAqTHXXy1PTJqopVOrayIePBwrb334qSxcvErywIGKjycyGnlgI8F4dIgxwyeTONDBhFl8yO3++4uv5MNPvhP/YF9pFonsPSRg+LNmwUEzv+ZdWsmTz7+lRQt8ANEFTRuHeUW2fWNijhUQLT370juSmpsl4dj4XbCu/IOC5X447rRt3UKzqz4JMc6vy1bJbsQgd4Uzo7ZpYnyZfKMlIj+So/4Fv387f5mWpk4jPJxMSNsXAFwEhPqJF8bFVuAmeCz+tLwKRmLu3BUSEhMiURhTxufy9/WTi7p2kOgm4ZIPQrJp70FJPJ2MTdQDiT5KtBMI8cd4Md5NQyX2TIJce9v9MvXR+yAbHv2XE+94w6QxBvbrXOck0RbLTnIRVfLIiYRa55XluGA4UVbN0jjeZPK4iZjmqOmTZWgbMF7mM4z7z9j1b703Q/770wKJAi3h78UIGtexdUt59rFJMrD/JZplkWX9lt/dI32wOM5DICEkshyFLbv2SnZWvjRvFYPgQXka4SQRqAkcLAFRyQKXs0IeQpCkkpw8adE+Rlw8vYBkiG3ADJS5MJsM7P/z87BYysziT7OVJIRrtuyUGZ//V+67axwcNQ7LGx9+Llt279HCoPqCeLmjPBcQ80IMMpmLMtj4FlJEgnZZ9jW6VRN5+rk3pQcSOQy45GI20WHIQ25PnmqmvvIvScpMkwhsOiT+wb6B8uDEsYgceJ0WU1xfQWpaOt5ZL+9/PFMS01K07EEm/Hmhrx4Itfq/nxdKbiYCSz0+CTlAW9Y6ITesWysbN27AJuMvAaiIZekXgL5uElIO/UHIUN/84FPZjLH0DQa3A/y7uyGGOOrngihBH8j9UGdCwmoJTZuGy1vvfiEdOrbDKWSw5c82fc/MzJIvZ86Sj7+ZhT2oFAk2fCQfU+apu8fK3x+6r0YZd4FQbt2xS16b/m/ZC/krOWoTcIz9MQ/4R0JBUmHCATeCTMQunzLpbtPjtX5yA1q5ar2Mf/yf4NI9pQkYE4oW27ZqJfeOu1muumIQMhwFmZVBuf2v8xfLhzP/JzmZGdrGbhpTniy9wNhMe/NjSUxIkmeefMSpBJ9t45jVoLJmLWzYL90xD5Yh32sGxtSE96oa0bZimDZSH2cZmrjqGRsvOJbLV6+TQIRr8MQJi/PZXXdCLwUjmIfNJeHMGTmEOf7V7F+lEHOZhJ7vBiJv783XDZcJ426F7sdYj2jUFHcvpLjipDrfgAmK/T1t53Is+/fsPybJbSNukA2bt8l3Py2UsxmpkgKu3Rs7ux48QMwPxsbhCPWlrFq7VcIiQiQsMgp5LPvI4AGXarGnfSDuKcDgMC7FLxA7bELEvHQkHYDEo2ruciHTQePnBctx3M+W1Ru24PlTSCQcKsGBQdINcbcH9usjLZrFaJOeHOvWXfugM9iBY3wKNqQCEAZzkVtky0h59pW3ZP4P/0HyZscSz5AoLFiyXKb/6zPE/M4QPxDpAigRm0U1RdCo1+Bw0k6PjqprKu4YPnb40CHyxrszZM6SlZKPjY6EnsD+BkFMQLGYP9r21GMPQucRWXMRVZZ4y8iREhQWKb8CP8cxyZnEgYmmuUlagjcWyG4or5evXg+l52mcrkLEHwkuAjy8pU/PThKF5MxFUFoRvwfiTkpKRroU5DKeecUmUVUexsczyEve/vg/0h/REO3FYTaU1N/gZPblj3Owgsq0nKbZmAdPI9HG3x+6t6oay4uLe/WUT959VR5+8kXZvn+/pgfRP0Oix0TV3OTzMO48XQYh9nnHwHC587a6BQm54ARn/W+u/BMnjShEQ0Q3wSWWS//eF8nzUx6RDoi3bgSMPnnX+DFyLRR97378pfy2dCU4y0Lt5MHnOaYRMWHy1cw5mk5myuMPOVG5/OfTICZJcWP4BIxmpaCyGk1YzEx0ko/xqC+xpxjmtvserxAZcbPnAAG3VYDx10gyJA6+2Kh9Md/JABA4Jzoi5n6Pbl0lBQyXL9ZrACQPdZ2c+a57hDdkm+dZuARMOxABcMIGhICdshWYlYZ/o+BFt2zFKvnoi+9l39FYKGiqhXbc4bmrbt69V7p2ai+33nQ1iNy1SJIQVqOalkiTNuiy/rJ81RqZ/sl/5fiJeE3EYXqQoVbTMtPlq5/nSgAG/CIkJrj6isvkhmuu0qxsKJbQw41IwHAy/pR89f1PIILLJLcg16zP5Lpij5+W9VAmX33VEP2rNl0X4dTwB7i/jz6dKckg9NzoKI4K9Q+SmZ9Ol1boT11AU69X/vkU9BpNZfoX30gJyjRxg3w3EGKHWXMXSvsOrZBMYjQmp49hkSQ0I2+6QUbccK0cgGx05s/zZAP0IqdAzE1yZNOLPAbvg46Fn906tIdCeKBcDwLVsUO7GptJGlLFzV28TH74ZZ6cOHlK20j1XBsXSUJSiqyD5c41V11pqqLOTx6x16zfLN/NWSDcMDlnGEWxbctm0KWMr/N9KpanvfCEjJz4DynEyZKE1AQkKu1btJH+F/eU+DPJkgXHx75QII684Zo6ueliKPLnzF0sb/zrEwkmoUe5FAu2w8lq6lMPWyX0prrZCrZtyt8fQF0wTPgRXGVRAfKeVs/N8JhQmYE507ZdS7lz7CjTq/X6JMf6Z5N7bbMH8bV2wuDJneJXmwHIpATCCKjn42nGBBx+bYPhJ77wWj9PTc+V4Z21EAkvg7FBlw6tZfiggdLv4t6gJV2QXrFivE3PWn66e3t4ia+b4xyyZYHn4ju5xxa+NYmto3WTCF87fKi0QlqvWyY8jCQKEJ1UHvs5HCSA1w4ZJA/dM146gbhwd7UGJNhUTHLRPf7yW9hHS802bcq3I8BBDBnQT+67fbR0gTmgJZE3lc1BJ8H9+wMTNDPH7+fMx8ZTaLaB+EK2/dPcRQ4R+4OHj8oXM2fLyYTTwtMJISs7T159FunZbCD0pnby8y4QchK9976cqbXPNFH5GRDoK1/98LP079sLk7JbrVwIccFgT2/ib9Xa9TIBYgguPlN5rIuMjx84ncv7XywPIrVb184drcYaIbd2922jkCe0uaYTOALzUT0Qx6Xg1pYsX6ONmy0cEt9Pxslj6fLVchpyeP+ACuuIbOQSvX3k3wzNQfV1mq7bg8Mec+Mw+QhjEKzLMEQldSDaPX7UCCEDYQ9s2bFTPvx8prh4VROL8jIXuXf8KDgOGZ/SjMoPDQmRO0bfIqkQacyZv0TDOVBVBWGQ47/6/qcyEKasdaXDq3qpkV94wtAAqIKoxDkN1aHLrEBu5i2bNUVWKT3dxdkQtKIYJ9JCWPGlpGVINpTx5dh8aFHmXrnZcgyYnYqM2Qkoaz9ASsdWsFIbhiQnI2+8Wls71uawu7+bj3TwbiL7C84ILVwaO3AcSIg7Bln3FHO0D1GwGe/evrVs3XtA3Ki0BTCcMu9PBGHu2qmjzUVfA057DsQjfyDrjadLNVdEc8UYxLa4bcT1mh2+LQWSYI0fPUL2gpvdtG07+l9dnhsGf+P2fZKDiUHrDVuBsuYFy1fK9oMHqgg9J2ErcOhDwS3YC57gbMePHgkdxH6IqDaLv454kdM/fTZZZsOUtQtwSOWqLTB44ABpFRUh8YnJmJvVS6cQ4p2OHdrK/Xfepplf2lLWIGyu9BWY9t6nkpOXo80hvsdSKdfff/SEZmdOG/O6gJvPfihZ127aKj7+FZsk3ykpLJGesJu3tnkblcvoi69+8B8zYk8dQxZOJEmwwrGH2FOP8tWsOUhhl6XpklgfOeYYcOpXD73CqPpa70Vxnt50vcQeOorUfhA36XwTuElmYpOc8Z/v5J3/e67Wcv4qP5LhsEZIbe0j504RTgfPTH5QOzmZ3iPHTmUsbemzsrNxokuCzD5ZEtNTJf7ECej4jiAGv3fVKZfzliJOT1hzJaenITrnLNmHE/H9d46xqn9yD0aqrp6hbWTX6XgsKHN5takhjemz4ojlIi0Do5zeLA6mL8QreiCXRSuUADsIKd/ngr937EhZABm+p84ulpsVj9Uk+vYAZflXwq37IAaUdudcbBUAWSKUw6ch57aVcyMO9x06Ir8tWq7F3DaVlAMF1IQxQyCTrLbjtaeNdBa6A/G2t+7YrRGZ6jaKprj8Zd5SnI7uhLWThXVNLZWEY6M7iYmvhyKcmkgEm2NjsgeGDxksP/6yENYwB8xfgzw2B6IKOhnZQuy5IA/B5poLMjSU6uQK8PKEuWVoqNkpxPSbtU+KEaNDKhRvJnyRmcnOydIsjay9Z3R/JU5CO8GocHxNseFp2XTd8EF26yNM5Xfu2F6uvHyAxB47gVNlkW7e0eTWXRYjz+oTwFvTaOevR1MbzuUnGV7q2moAcMrf9BtejWd0NypMu2uKfCisIhs5DJKCuoAJyFMQT5/2/Ru27tTMZ7du342Tsp/ZHCPXHwSivwmK/4TUVM2cnMymJbj6QqnVOsD2xWdZwJ/xnTLclsHOn1wcY+7c2oZS2TESZ4yzQ9ADXB5MQ8ze5YKmMpeWD/ZCv949YV4YpG0W+nc5gRLO2J5HmOKWzZgYcTDL08tii2AP3gvOWuTSHQGGbe0O2fLggf0kF7J7PbDfKVk5mnOU/n5d14aerhgQttHeMLH0Dr20T3e8B/NC3ZiybRS30XPZFqDN80lsrm4whzQB54wnvlMkaA+QKejVvaN5Eg1MRDrkcLHbCjyp/bF2s6SmpZnpTHKhbB+I5NWOAvF/xaBLNd0WT0B6oFy5BApceir/FaAIujkXbWIYUXskIwEufG1khHiiooNmfYCpC2OaRssV2Gwfe+gemfrEw3L7mJs1BTJFy5bA0/Sp0wny4rT3NQMGy99dfdy9pXmg7eY7lgX8Gd99sFjbhDVrsKqdpSqi8rJr2xZmXDwZcpo12rOQTR2NAffk7Q47YJ1QkdOS5CUVRzlbIYOWPiD2PtD0mwEIYAzc+OtzVGWYiP4X95FibByWEBDgI4t+X2l5u87v9p6CaiuwfetWlRtwNbXnmGBlamKc2t41/caxy4CFj0elqE+7j0LyC4q1E43pOVs/qU+gwrcKuHHAAoO237bCMRz1T2KhV/eq4s3S/GJpjdNDfYCRFNvRV4CWIzrgSbgcIrXFf6zT3XXskhuuEYl1rDTH3spG/lmaPWrzwaIId4x1KHLK2ruZWxTj8FfOBVpxPQ6/lYegp/IEU8ENxRL8sCGdTU2R59/8UHMa1f/uyiNjC59w6exj35FYX8i5vPbAGatjILwLPR0TNdTeVjgG6exda3/Wtl+bNYkw49o4pTmpjQaqrhLJVXhQXm8xyOQq83FasBVS4Xa9FsdCHx0XyjK8wZl6QvGjV4baWqbpOXKC7Vs1l9bNm2qKbdN9fjIb0dI/Nupv1XnNY3PNKV3na1YfCITFAiJYmJXJEaEDEk88NgGoAZX0ejxxTEtA7LPAYetPhraUR5zr+8jhDfRHjBq01VY4eOSYnIGrPy2U9OACk8sgO8rRv2u65hjQMohKW4og9UBxRVxcPFLl2Yg7/ctm1382qReY+6aCSSmssIrRtY3j6efjK13atdbdPfeXnG+0lLpjzC1yEyz1cqyseR94P++BV/4G6JT0oG3VkV7BGgEtgudcYwdmhb8ipuFimphknc7CQxPYfFseufREwp56KLrQBkxPGbQCcBbRcfu1lcnFmUpNf3q2GbFikREgCs7gXKJhT98JZpCWCZ3Z72xY+/BkYSvU55RhVIemezESygJ/jB1jC5DQe8Ae23JcoTGTkzAVJY7tAcplaaVlAtrV+8MU1ci81/SM5eeJhEQ5CwUtOWQzwFcfO04IZu/qvtC22wv+EozrYwlM/JFqowjM8t3G9D322EkYOuRUsmPVLaPdvSeIPUWUjQHo4zJ2xHUyoG9vKbAQrZnaB0ElPOHnmr5qnxrtiIIZYw8oacvLbJvsZiWc4y/0WO0d1eEc1+p4dZqyk6yaE4DE0gXHe2MNkm0V0E44Ccc8uuDrQVMckVvV33TwmjbztOQoNrJJxnE4E9YGfxYwlggDfNUHKEsNguKYQcP04IdYN1t37oJEyPy+/hmj612w7NGfKMsLSiTKP1iibVR6MiBfVkY2QvEaM2uOMhf6tjaNjhY/mGnTO9wMMGHI7dOR63wGitFOnz6LEzKCF1osAlrKcINvLCamHE+aG/fs0dV4jWEgysEU79hxyOy0qhF7yu1b+8VImHvdZmd/9oB6osV9m3f/s5thc/2cOKVOIvZapZSbWsxGulvTRtgWINfJWBuWGwZFGfk4whqmO7OlYN0z5CRDAiGCMCJ6JPZ2cPa6Yp1y6aYFZqtfUT5QhEUjQiLYKrOCGFzs4+9+kiJYrdgKDIG8a+ehKlNQEs5mLaPl8st726woZ31ULlqOqa1tsOU5ioK8XaEdqsHZI6Io5jj1UOczJCBEeSqYENq1WwKXW7PoSGnRvOH0hJZ11vWdiv3LevWQTm1b4oSp0/dUvliORudLqZyFybMJqnrWPaSVXBzeQZwuyiEXVU9OytRYcp+jW11m+npefHrhuK8/orMP9VI4GkxGexDB+imftiQMPP4nwf2fNsD1BUbiZKwf7HI1i8Ityqj/LCBXzs2xPkA/gZYtYiQYZpd63QuDChaBGH7zw09m92ura9HvKxCFsprJKobcv310S7nSAV8Ha/XQxb++QPGeOyLBQktrpSgLdtjKU431NsN5Z8K7neGe9UB5vaenN5zfrtbfrvOa71H8YwT19fw3lcm4OH6BwVURVU33tU8MB+vPQ8RTE1TN+uZ+TaRbcAs4AJl+anyfGcU5ckO7hiX29irXbMGS8ZDb8mbNZ7xwnKwhl635mNU7PAJ6YgMyJMSFiP2ByVFfHDCCpJcXLEmMOg5un4lH/lSowZ3a35ru8Hy+avDAigidutejYe/87Ovvy569++sU59D89p2P/4vQuhW+HdRxtIDVy0MPjKsRpExXRY1LTeVP9tMA3+UgXowz5AyIhK+JB+afOcBuHNk9bD1Zmr9b/Y0MkEHzKx8gi9JwQBPJTbBfj4c1k6V3PFvlD8kHE+XYC9bazPzZzgA6WwbSFNTqfMbM4LyohKqR83b3kv6hXaWjX3PTb/X/ZG8tRHyOFsrjbaRngPRv0dPRImx4j0o686O5DS/V+YjVsajzTec/wMnMqHmGEwSKy8TEpPqdPExN5iSrnmemu1q9nKS2gr3KTlvLre9zTaObyGX9kdADijszs0kUHBUBj+cHH5M18CSm/bslkLjQcmba+x9LKsQ4PBEUQjkcBRn94/feIf379bV8pdbvPClpzj4G4kIXKI0ponAGUK/AITUjYvhC72bGZakPFGonSqMJg/qwgMqMRIL1qVD3LjOIHTgcp619yxYUwSv69rE3Sjic5ewByvmtxdGp18le1whusJpBhcG4c5CYn8Bf5xdg5gHSM7idtAtoLvtzT1fJEHVlO3ZpiT3HSpGckjx5ovdom+WYjlTDSVxh1eKkRqM8ysCNjD8caR/fodigPnwOZX2R4YhTb7ADuXm5S2xcnFxVMtAs4Jq9bWUby7h4zahCRdubRIfZlfGIIZ6dNxr29sT687QSug7xSE7EHpeZCFHAXM4mJy+evOhtevffn5aHEOq4b8+eEh4eosUzYTjp+NOJsnjFSpkL+3TmBc0FR9+jTTt5/JEJMhShh+0FEvqgoADNNt/yXR94ue5CMhp7NxDLcvg9B+IgcrokIibgVQA2m+Bg2zdw07v6TyrzrZ4oddyp/h1nXDOBERPDMEmLF40fdMDwIU0CQmTc6Jt1d2275BqgtRaEmRYAM1+DtWfxkE1fyTRoG0f1cOjeg8cvxkm/CZsR+3D/EBkQ0VnWpe2TjGInatcNG6Nrlw2XnrDCubXbMBuedPwRjE8Nl3DHS6t4k5OJ5ToLinncrUd5JFIh8CQNDvLTFpf+mMeMU8vh/n7P+LE2x68x6lcxCHReIWSFVefGiqfoVTty+BCjV6zeo+LR8mht9eFz/EMwvJnvun2UlIIr/9+ipZKGmDuMfkkdDV3YXT3K5T0EqvKDI1wXhLD2g+kiPVwPHT4u+QzfjLGIgdimI+IFPTfpHiQ5aeVwD5pDgRgOgpsJ00G9jsgXY7ps2Vq5H1nN6mvGmpUNlR84bFPcKDaWZXbq0KZe80XrdDGZA4OJDVwyB2xDnfBOxp9CELzViEOUBvFitRMbN55chA+Z/jxj2NjH1bM/NMogUdevL94nI2CvtRbfMwLmp85n6lMDHRTrbdemhZk40IzYs8DrY/rJosQtsiZ5X42GGlVY6z2OnRPEOFQaD2veR1qHxNRaXf1/xABZmK9xnwLeHAYe5Sw5ew4E0/s5BAZcAdtn4iptKZNcYO9unbSAb3R0MgHDUGzYuQ8ihiQt8bTpvr2fTKqdQ8WQhTI5P7sAikf7ZJ/GzmIgAFhMVjlBexuM58mJOeLezpgwkx+5R6LbNJclq9bJ7l17tFj6nsi3wIUdAAJCpffmfYdgMVMq7sgw1BTZoXq0huNZ0xgkiR4kV+GEYM/4GXWvPbIWRcCBLwV6ADfdmFLGvm0/M4udqpcnLZW8BbnQ5+jmnzYG6OeVl/czapJ99+jjoCtb/zIJPQMSOhsYPHDJH2tlA73JYTarh2zkOR7xt+Fyw7XD9bdtvqYYh964RuAszp7+GbmwILL0bGadmGYy6oarzKqvXumVt6P8wuWaqItlT+ZxySyur1ccCjXur1kj6vpSgMTij/cZWddj9f4d673Ggq/YmR0kzGgRQx1bArkhfeRKy99r/c5G8k8HbKM9zlDB4OwZanjN5p3iHVg9BbRyEEZzwdLfwa211dVg3yU9URmB0VVn2UBiGhrkjxym9ulcmISkYgx0bcBwsDxnEnuW5SjHxYxPExFGeTCSz6xEjPtf5i2Uw3EnNJFHBLxO27dtLV4w1/T19pFgvwBpD0LfHSkBO3ZobzW+v663Nl22RnjuiLAw2VtyiDt/1TvEnYuXm8xduFT+UUtClaoXrFyQsOQhlaKec6FIxxXK/svqEXunqjpOafNpbf6Tld+qHrLzgifGDYgL/8PsuXD+KzbzJs/KypUBfXrJ848/7PgmTB1DkTHxYygRWsTVd4Pfi2ikVCrr80cQDdRvRoWHySAkV9JD9azQ3R3RfKAsOLVJNmYcsoZ/3dMNe1kIR69rm/WSLpFtGrYilM4FT1Ol+li7WDaSQc+YK1YPGqfiaMIYK9yPvvy6rv2QDq1H104SHOCnEU19fwORVu+rb+cgz+gYHF8dS1lJwnDyZLyZGVsWuMK7bv0bZNf2HYlzco3NBkmYG+poXxf+rP3OGDI81cya85smS+3drTNCY4+R1ojQSd8DRlSlBy/jnNTYwKwVauN9ipR6wUJoByKO0u5eXz6iqMj8FWtkNJL02JPGTl81E/HkM8mKbi4XgHMdN/wKiYyAz0E9gCcqpvXUqQKqS8PGzoxltBJDSNLq+/W4opx7D/QY0z/6AsSyOpcDi8xC6seL4az03NOTHMaV1jSuU4qmjAAMIJX69SH2Z5FVbxsSKmVAlMO82XrIPJslLzwxWSLgva8HcypU+Uu4T7Dc0Xyo+OkGVv/Subym4uu+i26E95556OGGaAOJPWXs+oXCekpxj8cyRyAHXK4lklmPo+VpEwjv1wfcwXF369wBSrvekK2bOwAxVlJ6Tra8gQTHjgAX0rETp2QvcuyaUgqSCw+DtcZopIHUrEbsKDgTk5liKksoBQFwlBO3LIvfuXGUoExHgUzCrJ9/kymvTEdAsjPAa7E8gkTm1yGDFsMEt0Kws0gsPh9k6rKcX47WqX+PG/aVVwxAmsvwmgGwQEVPoU0z//eL/hW7rtdt3S5pkGub9AHayQpz5ZEJ4+0qx+hhOmSxPCNiT31NXn6uxsEavevIvZ3IWfz0y2/LoWNxVbkcWE5Weo7073WRPIOcyd27dnF4nCpOiZhLRhOXFcFIIgHhLRwFbo6rYOnFTGneUMDrIQU5n0eOGI7YOTXFT5Z0qOq94S0ukSvDezrfyaqqhrovKL4Z03aQ9GqCbE7nYOMhAc5GMnG9OJ3jxSOXo1xkFhVmTmo7uQFms3HGcasZQqdeObC/+CFokrbQdMPhD+5+5rzF8tv8Rbq7tl0y7g3DJxdgAZtODJkpWUhyfSvi7be1ewGlQq5K00QzwKDQ0sHRMTEbYBTMvYRtdXQDZgTRycgnO33Gl3LwMJKIo71FOHlEOKDYM+unnV+Yz2AQzEHpOEaCYwJuLqUQwSxY9ocs+2O16bbNn4zzvxMhHfKQHtE0psnxKfLyY5OE86i+wOTaJRpnX3NXp4iCG9Xv6zbVELE6Ui/n9KQnXpQ4RAn1xtwncP5ngkgOQ4rQ556chOiSPerFdZNeZDGonkVIElN7AwK8Zf7ipaavdn1yXHfs3if/+W428lpUJ+FhISk4lQy+pJf88+l/GOYvsFhF1fX6e/nKY13HwsmqHhpWvmrlJFNdk/UrT/GQkZ0GS6hv/Wx4rddg/osWH0NLFF6NFjqskPNwVEGUDNm1npNjeaYFY1573d9o5UI5qSWwfCaotgfo+ERiP/iSvpKXZa6bYXl+sKl+/vUPZOXqdTYXy0m+BWKEWUif6Fu5kDIycuRv1w1F3t5rHJJP5+QbmF5qNMExmT0VjTU2CfRXW6DYmO0Bhjp4/9P/yEPPvCyrt2yRrNxsLfQsywhBBqvX3vu3llTGnjLr8yxPTROQUS00NAwHQPOFxw3zFHIevIuUhZuR29dWIBc5Z+HvshsEhkpnwlnE4blz/E0yFmIhZwDzDNNU1SgIIeci47wsRvLzOdCFUEzmCByOPSKPPPVPeXzae0i1mIYTpoe2yedhbUMToaUcfXnqE1oib66N+gDNhZORRATmVobFBEKcN33G18iJHG/4u7WbpE80E506bbocPXGyaq7x+dTULLl2UH956+VnhaHQjcC4NZVPdgxuKe/1eEiySyAvcxRq0iabSiooLZCJ3YfJJVEdcXSstZk2lVfXQ9wxExITJQdRGfVArvzoyVMI3mW/KSqVQPuPnDQLO0s6lYKUc8xyZC+Qw8pmsDqdlQsXA03/Nm/faW9xmkxywu23SickUid3pQeauuYV58ujz0+DwnGB/ifDa+LvwOEjMvX1d7BoKzjlTCi6Bl7SWx554C5p3qyp2aZnWIjFTfa3zCAuPsVDOVk5Wvo2i1fq/JqGzdddf3TDGxyTLIhhjiXYNyb7Dx6WRctXIZtQqnZ6089TLxDGrZCpDh91j9z3j6eQ1P1L+X72HO20tGb9RiSX2C/HsdipyHYmcKG/9uyj4pIPUSEUdSZgHz0wV/bBnnzqm+/blESGIrn5S5bJTLS7uDL3cRJOWsMu6ysvPPdEjaxuprrs+aTfwfe/zpckOJlZS4tKvKZCD/Tsq/+SiY88JQuXLtOS/+hPL0Z1ZsIyae2GTTL5qaly4x2TZCnMil2RX5rhPMjNZ2AORQeHyfsvP4c48fdKC8xRijjrC2eRwH7xshUSqDPl1JdJZs/DG6bkDzwO3cF+/U9Wr49BZ/LS69Pl9vsek+MQk5rmGjf1pKR0mTh+pEx7fkqtFlcuUHzUSo6p2b1p6RTZmnvSakOs/kCxFaLZunDrtAOolO0e3EzeuuIB6dusm7YY7XjdoUf37j8gk595USPCljHB87BTD7/8Unn6H5OkTetWNnHm9Jx8870ZMgviEJo06oED1CImSh655w7kBrUtDWA8uJ/X3v1I/li3WStKY24rC+XE9fT0knEjrpW7xo22K0UcudxlK1fL1DfeBzeSAhmgubKH4pISzJDrIA9+DNYcVEIawbc//iSPvvS2hCD5NuW6WTBdu/SiHvLyC49rSZC5KdkDTMbx5POvyU6YDVrGK2E5eVBy3Tf+Vnlk4h3wGQiyqWjaVD/54utwMjpYYww5z/0RxuFWnEDG3XqzJp6gA1ptcCTumEx96wNkatoiAZUnGcvnSZBoc82wxYySWYhPTdcAOuxCiw0o8VxAfKKbhEiPjm2lE0RdnREemlnOmHSEIhl7gWO6cOlyuXvCkxLR0lxJx7LoLETzvzuRHP2Bu8dLU8RYsRwfiuM+++Z7+WTmjxhPGPhg809OzpBbbhgqr7/wjIQjSY0jwJMCN8ejsFbauXefzJ67GFzqKYgT686jADSi7RSRFCJDVpl0aBUt/Xv3QITVCCTh9oJTmZcm2khKSpUdBw7JvoNxmmDB39dLY7hMJ+p0iGo9cPB5Ak5sd9x2q5aKUq94trdf5OQZkiL2yFH4qayTH5mgHfg16ayslcc5kQ4DhBYICT4cG2hr6HVo089TByEXG+ExcPBLV61H+I0j4h/qL76YKxwrTfSENdaqebQ8/9RkzaSZAfpqgzqJvVZpQb7EzB+HqHf2HW/8Sj0lLMdHTuXbHr+c9ZVgQF+6fIJM6umcY6IRArSE21gQ5LJ+WbFWsiHKaIqAVKYs7pbvML1bOmTP3Tq3ln69usvA/pfIqBHV7eOiZrKAeYt/h0njdtm3/yhikvuaJd7Wl8kFl5GZqxHSQRejPMSmngxiqo89Tlnl1z/Mlvkr18muQ0clxM9bIyqWC5PlaoOPycGF0BmmfZdjEdwGz7/ePXtonIy+bqPrNes3yZNTXpOknHTNk1BfB7mBHETETEPZPdq2kmuQdrAJFhiJYeyROPnk5wWQESNaI+z3S4AHEuIRw4bIi09O1pItGNVndG8+cPfDT7/KH1t3SzpkqFGhgeKFyW0N0sBlZiNwWO+OraVn5/aQV/eTMSNHVD1O8RtT5s2eM1c27tovR04mSGigr/habGimFypwWCBZOfnSOjoC49xNHpp4p5aq0VrwqhlffiMffv61JiM3ERNTefZ8crPhJpCPNufBRb8IPgldMY5PPHa/XAslL0Nc6MfElrI5t28a85AENwnUCI/+ffY1FXLlPNQz5JIeSNd4EcYqUhNX7j1wUOYuX4MoqMUSis2beZhzMPZPPTQBm8M4tCXAluprPMNNaA2YlWtvmYDsLD4Q63lKCLhfa2uuRgEWN8iI0KDCLHgfCKEbTm5k2PhHFoOiTz6TifDFDOL9wsP3yJhRI7Qw3BZF2vWVm88HH38u0179QLKwI7pgUwnGpuWPjd+euUBaUIg1Qy9i9qkIAQS5jrxxgqcHNB31tPmHe+wLLdRCkNzmgbtGy/gxI222mrOJ2NM9/7djf8gD297FEb323UOPrbByP2mVGyo7cmyTTZGolMMkcWzHwTK1/50S7uccUyt9m0zXlFs+MPk5SUSkO38Q0SpRuCEHipaxcdxRMRi5mDS+MHWLW7fEVBySQ2fI8xB5/AhO3j8Mm4YmasFU44ywBtrPFRMx7Xi8xB7YAtFKZNXTy3DsHHXvZBwHwbVgwLXFytlbCZT/Ezg+lRdafVzIGadTZPq052X8uFvA9Ztz6xUP1/z3NGKoTMPpYeHqTeIFhRllhJSjcoGYCIU2MRE/iIuHBIoLitwG5Zw54GbaN28mLz76oJY3s2YN1u/QmuWZZ16R/y1YKgFhAaxRe9hIR2Eqhc/wKYobEiEyGgsHpS8+esf0s6RDXDb93U/l069/lMCIAG1M+AbxZTQqLMtUL/uWeiZd3n71abkDieOtcdhs94vvzJBf5y8WFyxaLnITrqoa4uCFxhCczZRbR1wjTyP/KBO121t2ckqqPPvyNFm2ejNy5LprmxLL0ASjbCvaxgBs/KPTF8ELikVvjCdzR5TgWDcAzM1T/7gfFiqdzUwvtYft+IfZrN784GP5bOb/kIDegI6gPfUDeKyyR/ifab2LOM4gnB7g+EcMuUxugPf2ECdGE2XO4htvnigJGUniXsmN12i/lS5ZyxxRNTe1CVoxT6lvccFY5GN8msHa6r5xN8v11wzTrLtq1FfLDetsk+4lInB48/4yOeO4fBC3ABPOWlOrX2IfvV08EDHOR+M669rp2LcyLJaLm7SVu7sMb1BCz1YyZkTbmHBhVEAXyFddQahcSaC17+hf5SBxspSDsDFpQzkIHwmpv0chgmD1YjFVQGLXtGkIEgSHwYmlgvPRjoZwZTNaoNqgapOSFcE08aIwcDrmCyAAdvAdITYpBVfFo74LFqEL28hzNcbEC23lXsLjIBNmlxdXiAWoTA5sgaTsLZraTOjZESY3/ujt1zR58udffy/rNu6SfLcy8UQl9CymgxOBAbEYwphK4VIQe78yVxl8eR8ZddP10hfOKPY4eGkF4h9O6EDEwA8JDUIib2+4yNPLGAHC0C8jcQpPUhSyEBP8bIJY612ge9ADvZQDAv0kFJuvL3CJkcALLrAwQ7wiCwuQ53JNAAAL30lEQVQpihe0MAf4nWUSseVBpRId2cSwflM9vjClfAXH6C7gwr/6fo6kZ2VqseW1MvAQ54slaL+Z6rH8UfedyeAjokNlzoLf4RXrJi//8wmbuThTMcx29fG/3kDO4Z1aDJ/12/ZKCbO3YCxLcIoowabGDZ2nnUBvVxAtT6wDrFtELb28f2+Yy16H02wnu+aRqW7LT87LbKTEbB4IERA4YCKa6NFIGtGEXAcavjSUaf/gN/xeicwKVPIOblTeq/zQIm8yIJs3NpHWzaKlK0I4tMcptHPHDkg60gqbtW0Mj2Wba/tOBWtEiLfklcMfBWNV2ZPq9mp32Ef0EA2t6BHpHGLmYN1o93FtAtIJznvecccL/POFdGDARV2lLyyEunXpBGdH8zlueteWT5s4e1NBiXmpMmXbJzLv7DbxYiKDWoC5Unu6N5OI/CD59ewW8XGrXfZIZVKYT4A8f8k4GdvAMXDYbFpfaBpzjACJvDdk3j7QkhO4MZkcHkgEyDlyYfDISGuAfIi1fBHt0DJtHEPW0nvUDQPPgeMEI+ngQrUEDji9a2nbzUHncyxPT4TYRnJDbIsHOAce5fS/68tkGWwfTTMZL4OONUEgnoy97ihQebgTSsa44yfkyPGTcjzhrOTiaI+uSdOwYOkB4kob8t49u9ssN6+tLdtgwnj8JBTayCbFzZOmcey7PnKf6X2mECyAaIny0kL0l4lX+iIhMz1JTUD87T94SHbtPSB+EBd4g4BVlAlihmiA7AeB48uwDMShqdwCmBnmwhHsxmuHablXK56s/V8u/jdwMlqxfotGtFhuIJyoeCpD0bgHhoHjxLaj3RVRETkBkeYQc9CkdDOqJTkhTT798FVYNV1rdQ4Yvae/x5NaUlKyHICS9mDsUTl0BHlrUzMkF3ObcXo4pr3gCKYRFYxriI26EH0dtV2b5qjpGW1toU2MaMnfCBxPjREC80UgzkyJUficpXmsplDFQHLT5ZjSj+FcQQEsu7IhSuRaxvLV5PTaHMLao8yeYjmub7afc9HUR8riec3xZ/J6E3DO+2O+kOmjV3YQPN0pMjNiFk3v2PNpF7FnwXsyjsk/tvxb9mYdr1Uu5evqKVcHdBOvHC/5+uQftRJ7Dq4f3K4f7Pk3eazPqFo5KXs6p55VGDhXGGCAszVrN8vn3/4gu6FUbtuuFcQuzaVfzy7YLII1gkbrLG4maRD5nT6bAhNABLICc5BTVCg52r0kzapHH6/I1H5Nqd+kiSz8+Zt6beCm8tTnhYeB2tlzA3x0Dmwh/+w2Tl7e87UczI4Hwa/JtfI17sih4i9lFsdlgyK1TWNk+8vlAShkjY7sRu+oewoDjQEDFDscPBwrP89bIt9+/4tkFeXLFZf0lXvvRKycgQOqTohGbSWnnZWVrXHbew8elN/Xb4P56mE5Cf2NN05yeo6OupEtuw5qVh8tmsUYFafuKQzUigG7iT0155dHdpOnO4+W1/Z9J0dyEw0JPpVLYa6BUu7hKkEIdUA5qREUw0v2zs5XyZMXj0FcbGRdUaAwcJ5ggCKH9XByoTfjui07IP8uhoz7epkyaaKm/6irGxTLkevnXyeITa6/epjmAv/F9z/Ltl07IdqpSBZSVY63B2ysT8IeXBH7KpyoC5sxoCnlbX668kFPKHCujO4jU0Dw2/hGQP5Uk5C7g+OP8AiWSI8AaeNTbWGir4uOU3d2GipPXXKbRCCWvgKFgfMFA9TNLFy0XF5/+yNZt3mb5MN2+8arhsgzk++Hot6xEAI0ux16xUCZ8shE6dG5M3QSFt6iUKRyg1GgMOAIBhwi9qzIB2kMr465VJ7tOk5ivINqEHx32EiEuEDB4OEnzbwRnAm283rIL82XhyG2mdJvnEQFhOl/UtcKA40aAzS3XARC//a7n8Ah6IQmhmQ8+QkIc8xAZJV6X4f6QI/t7rC6uO6qwXDy8qlS6mmFwfSOSncFCgOOYMBhYs/KNILftJ9M63m/hHtVezFyske7B4ufC8K6IllvO78oCfGs1pLnQ3Tz/KW3y6N9RiPtlyL0jgyceufPwQAtL3bCQest2O+fZYwVWFzR4W4wEni0QdYpa9ZS9rSWMW66IVwx7eppGlkFIPYt4MegQGHAEQzUi9izQiYqp0hn5qVPSxvPSMktLQRP7yrdXKI1xw0qmboEtJDOfs0QYydXQjy85YNBD8nEHjdImF/1BuFI49U7CgPnGgNZyAw0b8nvkgBCz0TfBGYkimna1Klmf4x774PwDaWVJohFMOHr16eL5tp/rvus6vtrYMBuBa1Rt6lI6hXWXmYPeVGe3vyRLEneJj3gHFWMiJm0lg309JebYwZILyQgGdqhn/SN6YJNwvlODkZtU/cUBpyJgXTEPFq0YjWCgOn8FyBLpx21Zm/tpMoqQlnD0a9SJpSelS/PTr7RIYc1JzVJFXOeY8ApxJ44IAffzC9CPh34jHx9YJ60zY2u8hijw1BTL6TJ6tBbWkbH1Oo8cp7jUzX/L46BQjiVxccnSmRktUEBPYaZ45URHP3AjTsDEs4mIfBYihY3huadLZqEyTVXXekUMZEz2qfKOP8wUG8xjmWX/WFmeX+XWyDCMS+aBJ9WPLV5CVqWpb4rDDQ2DHh5eUCWHqV53Zra5g9xDiOHngGBdgbQM3jH7gMSi8iQ9OZOiU+Flc+DiIWi9FvOwO+FWoY5RXYiFixj4QT5+iEaXLWS1olVqaIUBs4ZBgL8/OTSi3tqgcNMlXKun83Ikv/C3p6Bx+oDFAVt3LJNfl8FUREyhqXnFcj4O0fIlciixLALChQGHMVAgxB7Tv7IwOpjLhvHiWqKN+NoY9V7CgN/NgYYq+TKyy+TkvximEVWtyYI8Uxm/jhPZiDccSI4fFMclOon6r5irKTtyI/6wRczZT+4euYRYJq5hxFmmflrFSgM1AcDblOnTn2pPgVYezcLiaIzkSPRBGHBwVpOThUOwYQR9Xk+YoDzl0kiGBzuWPxpKEyrw4X4IeLiHxu2IWfqaQlvEolY5EisCSanrjlPIp+YlKQlkZ7+0aeyacceLahX357d5Lm/P6gFJjsfcaXa3Lgw4DQFrWW3mPpLD4ypzomvQGHgfMdAc4QruH30LXLo8DFJy85E+N+KfKbsVwQSrixDIpj5q9fLhFtulF49umnp7sJCgpCYxgeE31UzXGDER2SJk1SE/I1HkpqV69bLT0tWaqFvyRgNu+xSefDe8VqI3vMdX6r9jQMDdke9tKXZPMKmpKfJzkMHtccZA6Rd85bSPNoxN3Jb6lTPKAycSwzkIVzCb/N+lw+RqepMarJmEsl4+CagBU0+nK2KYL3TvGkk0jm20mzkyfAw/G0x4skzhPQRiGviT51FDgSEcgZDxHzADJnAlIGWIbRNZatPhQFHMGDOfjtSgsE7NMP0RMhiE/ggVrwf4n4oUBj4q2DAFyaWN904HKkn/eTHuQtl67Zdkou4+t6wzCHRp97KD/H4+ZeZkwPRzG4t5ZyWnANI4O9UxjIXrCfS8zGO/EVdusjNN1wlF+E0UJfo56+CR9WPc4eBBiH2bL4+SzvtkJmQQoHCwF8JA76IXXP98CulY7s2shQ5W7fu2St79x+U0wlQ0CLaq0tVUpKK7EP0hmVCE2S00BLadGzTUtrg3TbNmslQ5PXt2a2rllzlr4Qj1ZfGg4EGI/b6LtIKx91Chq//XV0rDJyvGGAsnA4g2K1aNJdrT52W/YePyIkTp+V0SrJkIlZ9fj4yl4GLZ+o/N3iN+8N0MxwhjcPCwqR9q2ZImddCYqKjFCd/vk6A86jdDUbsmVPUz9NbcosKNEJva9Lr8wh3qqkKA1UYoJK2LeTy/GMaOlqjUQHLNJYEEnsyPUwTSS9bWvQ4I2haVQPUhcJAHRhoUGLvA7k9iT3DtvJPgcLAhYABKmHDQulnYu5rciH0XfWx8WKgwSgwORlTVMDG233VMoUBhQGFgQsDAw1ieknU0dIgD9nXaU/MI66Pl7LGuTCmlOqlwoDCQGPEQIMR+8bYWdUmhQGFAYWBCxUDDSbGuVARqvqtMKAwoDDQGDHw//jDcXJe4e2bAAAAAElFTkSuQmCC;" vertex="1" parent="oQB2d7SRe4JEm-w0o-bS-48">
          <mxGeometry x="14.509999999999991" y="42" width="115.99" height="35.5" as="geometry" />
        </mxCell>
      </root>
    </mxGraphModel>
  </diagram>
  <diagram id="ECFHy7RJpYjho66A_qzi" name="TechStack">
    <mxGraphModel dx="1389" dy="989" grid="0" gridSize="10" guides="1" tooltips="1" connect="1" arrows="1" fold="1" page="0" pageScale="1" pageWidth="850" pageHeight="1100" math="0" shadow="0">
      <root>
        <mxCell id="0" />
        <mxCell id="1" parent="0" />
        <mxCell id="4nn8FX5WJTodDfUbeIrR-1" value="" style="rounded=0;whiteSpace=wrap;html=1;" vertex="1" parent="1">
          <mxGeometry x="-182" y="-194" width="539" height="89" as="geometry" />
        </mxCell>
        <mxCell id="vmo8s9ew7CEYGSNdxyuo-2" value="" style="rounded=0;whiteSpace=wrap;html=1;" vertex="1" parent="1">
          <mxGeometry x="-181.5" y="-105" width="538.5" height="101" as="geometry" />
        </mxCell>
        <mxCell id="vmo8s9ew7CEYGSNdxyuo-3" value="" style="rounded=0;whiteSpace=wrap;html=1;" vertex="1" parent="1">
          <mxGeometry x="-181.5" y="-4" width="538.5" height="83" as="geometry" />
        </mxCell>
        <mxCell id="uvx7ZhkvkHeKNGqRu8Pl-1" value="" style="shape=image;verticalLabelPosition=bottom;labelBackgroundColor=default;verticalAlign=top;aspect=fixed;imageAspect=0;image=data:image/png,iVBORw0KGgoAAAANSUhEUgAAARAAAABxCAYAAAAd1fxeAAAAAXNSR0IArs4c6QAAAGJlWElmTU0AKgAAAAgAAYdpAAQAAAABAAAAGgAAAAAABJKGAAcAAAASAAAAUKABAAMAAAABAAEAAKACAAQAAAABAAABEKADAAQAAAABAAAAcQAAAABBU0NJSQAAAFNjcmVlbnNob3RSEoh3AAAB1mlUWHRYTUw6Y29tLmFkb2JlLnhtcAAAAAAAPHg6eG1wbWV0YSB4bWxuczp4PSJhZG9iZTpuczptZXRhLyIgeDp4bXB0az0iWE1QIENvcmUgNi4wLjAiPgogICA8cmRmOlJERiB4bWxuczpyZGY9Imh0dHA6Ly93d3cudzMub3JnLzE5OTkvMDIvMjItcmRmLXN5bnRheC1ucyMiPgogICAgICA8cmRmOkRlc2NyaXB0aW9uIHJkZjphYm91dD0iIgogICAgICAgICAgICB4bWxuczpleGlmPSJodHRwOi8vbnMuYWRvYmUuY29tL2V4aWYvMS4wLyI+CiAgICAgICAgIDxleGlmOlBpeGVsWURpbWVuc2lvbj4xMTM8L2V4aWY6UGl4ZWxZRGltZW5zaW9uPgogICAgICAgICA8ZXhpZjpQaXhlbFhEaW1lbnNpb24+MjcyPC9leGlmOlBpeGVsWERpbWVuc2lvbj4KICAgICAgICAgPGV4aWY6VXNlckNvbW1lbnQ+U2NyZWVuc2hvdDwvZXhpZjpVc2VyQ29tbWVudD4KICAgICAgPC9yZGY6RGVzY3JpcHRpb24+CiAgIDwvcmRmOlJERj4KPC94OnhtcG1ldGE+Co75Ed8AADAtSURBVHgB7X0HnFTV9f+Z7bOVhaWDgoAizRIxghrLDzXGWKKJsfJHY4mFWGIhNjCJERQ1UYmxBA3YfrGB6N9YCCoGewOM0gQUkF0p22fb7PzO99x3Z98Muztv3rzZnWXv+Xxm5s2b++6778y733f69QUCgRAZMhwwHDAccMGBNBfHmEMMBwwHDAeEAwZAzI1gOGA44JoDBkBcs84caDhgOGAAxNwDhgOGA645YADENevMgYYDhgMGQMw9YDhgOOCaAwZAXLPOHGg4YDhgAMTcA4YDhgOuOWAAxDXrzIGGA4YDBkDMPWA4YDjgmgMGQFyzzhxoOGA4YADE3AOGA4YDrjngLYBIWl4zD6blFXQ9tN3gwFbTFMEbkOaR+mbeDQe6IgcyvBm0nhRpFKQ0Src6BXikN9VSoGwzNWyvpOrS7yg9UEnN5Tuovqram1OnQC/ZBfkyirQePSnoL6SMoh6UW1JCBX0HE+X6hSdokA5A8fFLgMXCbnw3ZDjQRTngDYCEWiaDgEdtDW1etoR2fvwfCn75KYNGBWUxxmTl5FGjxah45k16eiYFg/rI1ON0g21IDXU11GCxo84XooziPSl/wuHU+4AJVLTvvkQZubbWZtNwoGtzwOdlPZDAljW05tl/ku/9JZTdUEM9/D2oNgNQ4aOQL0i+EMMLXry9O1B6s5K8mkS04Mtqzgpflo9VlJCvmdKbQwJ+1cyPoL+I8o7+KQ097XRKz+sTbms2DAe6KgcSAJAWtYVYTVn75FwKvLqACvjpKxKDL1PxRMBCy+7YpQ0D8cggqcleX6jlGkKsupGvSUDDJxJZy2969AAcSFJVzDr/hGNo6HnnKSABS4K1FGTpRKt/+hjzaTiQyhxwBSBi2+AnLOwdteu/onV3TKce1dsplJUhUgYmVojFd0ORHFB8YfRobCCoOoG8Ihpw0dXUe+KxzEsGXjGsWvpP5KHmm+FASnLAFYCIEMEP2E2LXqSq+feQPzudmrL9coGZwZABj/b+aqhwTFB7spuaKFBTTuk/n0LDfnlhhAG6vS7Mb4YDqcIBdwDCT8p1//swBZ99jLLze0VcS2O6Et0zLPtAxI/d/AvsQCCoOHhB7YGtpJ6lt/pJJ9DYi2/gX40EIkwyb12CA3Hdrdr0uXXR0xR8aj7583oQAKM5rUleMBpmBH3y6hJX38GDTGtmFY8NreATVDwxtDJggI/Zb7xMa++/k0cE1ZCJNUDN7w4epjmd4YBjDjgHEMukUbHiY9r0xL2U1bOIgmlpBEkD3hXxsCDIAU/Z3cTL4piLDhuKXYh5o3jFGAE7EX8HH7MKelLd0gUEcNaGVGUTcdi5aWY40AkccAggbPhjbEjn+I4Nd91IJbk92T2pvTCdMOrd9JT5ecW0c/7DVMWGaRbkDBkOpDwHHAKIarZu0eMSFIaravbp52TKX2OXGiAM0usenCMeGXi5DBkOpDIHYt+hli4erCmjhueeprz8ImpKSw97WuCatMdDpPLF2scmY26s5+tglUtUMDzy4UGyLA+Wt8R+TPK32f3NrvCM9R/R98veSP7pzBkMBxLkQGwAsUTp7/+tbmjo7xnNLeY96PGiyyc4kI4+HGNO33NPqquqp1wO7pJrCCGOhXN5oJ5xUFjHE/tl2NCan5VH3z3/TysupONHYc5oOOCUA7EBhHuCMa/srX9TTkG2PK3FIOL0DKnajqWP8sFDqeTK39F3aSFqqNpBoTRktfgkRgPBXh1N8M6khRicOSI185t1bAtZ3dFDMOczHIiLA44AJLBlndzQcfWc4o2hKmS/8i8Z5X6PPE+ZR51MjZUVlNtkGYczGSw7mCDdSV4Nq1G9cnKo7IO3OngE5nSGA/FxwBGAVG4ulWhTiNedI9rHd1FOWgc5VyezVz5t+/PtUm5g6KXTqO8t99NmyqK8xmgXiOXDdtJxgm0wLthh6vmfqfnwQ6s34/FKkK3m8CRxwBGAhLZ+I7kbGINKFEvChMLTl+MhlBEzCf1HMVBHysLrsereezm2vJaKxv6Axj3wMG3beyw17KgIu6qRUYuxdQTpuBrEhuRs/ELGJedNPks64vLMOXYzDjiqB1K2fj0Vci0P6Oe4sb22gUiSGfcqk7qRjZcdpD5AokIGfu5Xn9KWd16nvkeeTMRp9qNumimh+hXPPyZep6Avi4sBwSbi/bXHup+qvv2GCoaOtFgOSaRjgCzWuMzvHc+BLVu20LvvvksrV66kzZs3U01NDfXs2ZOGDx9Oo0aNoh/+8IdUWFjYoQNzBCC0Y4uk6CdzZBn7DqPvV35NxVwFQAAFUZpJJEgUSPyDRJVVkEOlc+fSgIMnSQUxTNJhv7yYvmcjK1Sc/Fwf1bNqkRHqSFVCXX/ttm0MIElkhOk65TmwfPlyuu7aa+mtt9+WsRYVFVGO9ZCtY2dAEydlAkxAd999N11yySWy3RFvDh5nzdRcuk0Cx8TAl4T4CHgftn/6JQ0853Qqz85XnogkXz3AA3k8iGlB/ZK8QBkhUE6e8KzOIBelJ6fZD7h5NrF/RjJnW+Jdkgtu6tKVHaapolx97YhTJpnnpvv4OTBr1iyRLNasXkN7DBosHVRUVFDptjJ5YRvgAVABHXroofLZUW8xJZBQkKtqVW6ntEw27gE8dKBVHCOEXcPX0CQp/5i4SL7T+SCqGx8VZTTRlhdepJHX3UCr59xHhaUbyJeRo9QmFCdycd72hoi4jwy2bYBULkoxVb34DNGJ51AwN8+KwUgTu8jef7qP1l57CfXgYQSJ+cDuXiTFqapjyZvZKAGJGrJCgicO8F61dv2Op90nn3xCH3/8MW3ZtJnKy8upti5AuTl+6tGjB/XqXUKjR48WsXmfffaRT9cnMwe2y4GpU6fSI488QntyvNI2lkRLuM7uAw88QAceeCANGjRIjq2rq6MN6zfQ0neW0oIFC2jcuHHt9un1jzHT+UPBJlo5+cc8ebguqStDIgdsDehP27dX04CaSqrlp73QLoDAE5FjL77vtwcdOGMmrbpnNmV8vpQyCxWyRgKO12yw+mNxMOf086nfiWeJBKLPgryUBi7XuPqGqdSTYQOeEhhdKRMlDJWkoNt6+gnx9JhTaPjkyz3tNroz6Nbz58+nO++8U55meXl5lO/PI4jHIIjL2LaLzXjygXBzX3HFFXT22Wd3uP4tA0iBt7Vr19Lll10mKsYRP/oR3T9nTsLA+pe//IWmTZsm/N24caNsT58+PQWuNnIIjgGkINv9ZKkIBGnA1Kvpu9cWUs4Xn0gNEXv0KiI/kVsjpQEqtlHd4T+lcb/5Ha2d91dqfv5pyi7u0SHRrpCUKjmOa7+/PheWQiCB+dJYUGOcqFv/Oa256beUn6MqrymUSTKA/PAYGn759ZH/moffICLPmDGDABpFBYW0Zet34d4nHjKBMVIBfmNDI61bu07EZjQY0K8/ZWQoAfabTd+KCL1169bwsd1lY8eOHTRw4MAwP+rr6oVH69atowEDBrhiAwB92LBhYckDkkgqggcuLvkyMZ8E6snm+X+nERddSWknnk1Vtdt5b4voryUb1BJBWnvO0pckrR1P3sJfXUq1rOMlO/sX9g1IOf6aCtq58nPwhofIBX/SFYsQvJ85dD/aY9osCX9X7uYkgocMIHlvuPEnTJgg4AHdGnr0/vvvT48//jjh5g/UBmjxkn/Tv159VV7Y3vDtRrH+L35jMU2e8v9kcAAP0Bx+6nZHWrJkiVx2Jj9gca/k5PkFjJ95htVhl/Twww8LIDfWN1D//v1TFjxweR0CIBD1UTMV8RbDJ19KxRfeSBUB9miwWCwTkSduS1HioBTYQVr7zg+WiToBQ2Zp3c6I9i7/mzYPgyEXIAK7w+Yli9gGoolZxDiB7yi+ns+xIsXnXihRq3rsAm6wD+HVBaiyspIO3O8A+m7TFrnZe5b0ovfff5+ee+F5Ou2009STsw1shNtw4qET5aZetWY1vfjiiwRJ5dRT2AXeDamqqmqXq4ZkBtuEG8J/M3PmzLA0iO1Upo4BEE5SQ2xHj81f0spZN9LAST+hve+6jyr7DlETETkoSF7jdojNqOc/AAFe39zze8JSEZi0o++eH26fHkrGGjE+5f1hsAt+9imx2LPL/xZqbhIQgY1Eh77DoAqbCAyqXht6dxmAFzsYBH928inSU3Wghk499VSJLXBrfDvmmGNEUvGlK3XGiyF2pT5OOukkGS6MzZAY8An7EIDYDQHI7XT44Yfbv6bcdscACIMDnu4ovJz10Zu0/N7byT9gGI2beS+lHXEK1VQj6pPvbLZBQBKQbF+eyP6mClr1h5ukkFHWgBHSvuGgI6UQsV0F8parPvIHqqn0CwaRqKew2EKw/AKfcOiUqRQoGSHlGwU8ZBB8DSlOs+6YRcvee5fSM9JpxIgR9NBDD6X4iFN7eJDIVqxYQb/4xS8oNz+PACj4juAuNwQPWN+SPgRbCgyyXgWGwRmSDOoYAIEEwoRIUxRhho0DRZmRdQoDYd8rbqUd9SFJZAOAQBLB7EWtUKg+H06fqtyq6bk05vrbqHDyVM6e3empXUQAzlogiiPMqOrLz2TMEW8AFB5zGv8ZcPXuxS7n6to6CjW5E1cj+u6AL7B7zJgxQ+IJYCx98MEHk4fDHXA9qXIKgMV9990nwAFAdgseuJ4P3ntfwB1erwkTJyZ0iVCHXn/9dYIRNje/IKG+2jrYMYCIhNBWL7H2i2SBqE+1XkxWQbFUdIeNA0/z3hMn0ZhH5tGWAcNFpVFPdI4XQdUzlkR6cy4OVB+4U1GlCypE72vvom2IQ2dGo1/Vd1CBiktbhMrzUUtwZq9mCYRJI7f6BLgxtLG4DhBBiHnWaWdInhC8Svp4OTAF32CvACFy8Sc/Pl7FDERJWSk47G41pP//r1fC3q0czshOhBAzAokoEYNurPM7BhDdESaqW9KuW0w0SBfr7r6aqrlIs5Tu4xyU/Wf+RdZIgdcFMSFw66ItIkWh+qyfd79l3GymwoMn0siZs6l84L6yLILU0eCBwR4BG0m8XpsIAGDQKl+/UWI9lBfGcuXC5mxdPkAE4DfstHOptmQPy8Cb2irM0089Je5GSB9nnXO227/RHJckDuiHFbqHHaVv374JnQkABPc8AgCTRXEDiBcDwWSFobRvTrEUaUaQlhCDBXJQBs16gMpZ1WnmmBBErQIUEFDWvOgJ2vzGS9yUQYXnKuwi+/9xlriGsUATol1hjEXf2jUcz3jtAIfjAmWbFbjxNgyo0QQpBCrNwHN/RYF62G8AKalJuDk/4uhSuBtB++23X2oOtBuPameFijrWoQO9e/dOeW50CoBAD0DMB1SUIr6xv5p2DRe/KBMVBTd6wdC9af/7HhVgQMlBRH2iPaSWyofuotIP3xFJACCC9WQRL4JaHjt9eSK5oK0bl6o9Zd/XVEMN260w8jZsHDCqahWsfq8xCsBS9C+vqqkNJ1xhiLm5uSk6UjMszYGsLAX2+rubTx3s5+ZYJ8d0EoDwBGdJQQym7N4tDtXQJzOmCYg0wx3IkghxHgxiRhADAmCAhAHy5/tpx503U9V/VwrgiBTALlRdy6N2nwOpofp7yVdRagzUCg6nd7AMha4RgvOgLmlD1XalMvFY9FMBv2kCTqHcI1SwoWdPESkE51JAlFrqDOwehlKbAzp2BNHPXpDuL6Ivj2/LTgIQXBKMCXgxMYjsWfodrfjDH8Rli13CRAYSxIAcMPcpkUbg8chtCklt1lW/v4AaObRc4g+4nSgPqOUxbYZ4aSC5IHsYxl+84lFpoMpg8esWap1N2mmDz6KxB1D1nkOVBMRgJeDY0kGnb0U/iZCAZSi1OBBtNM1jT18ipPuLACRryiXSr/1Y+EtTglDCD4FmK+75I429/mZqZtVEk1JTLqWKAybQ6nlzxCtTkplPq264XgLSYAuRVdxEcskVL03emANp/ZzZUtUL9hPGBFcEYIoVXwr7CCSnAcedSjsfvo2K2OjbJAfhpB7/Y66ugiSeAO7F2mqV+v3hRx9KRKnL7hwf9txzz1FZWZm09/v9NGXKFMfHxmoIFyUS2UB9+vRxHbzV2nmQlYwwdagRDQ0NdN5557UZkwF36aOPPhpue9RRR8XMisW4X3755YhTQ2KA0ROEXKO7Zs+mx/5REtEmni/r1qyViFYcg34fe+wxCgQC7XaBa0VypFNynEyns3G1K9bpCZy1s81u9r5UjRxPY2+8TakyugOOD4GqkM72kLVPzqXGl56TaNUKnrhIt0dgWpggkfC81W0Dry6wJcCFW7W7gSrtxVfdyi7mY612ECujJRGWNHSyHVpxZOenvz6LShCdypnLCfOKXdRNHibTIR4ALj1Y5ZHhGetmsi48oQ8AyDnnnCO5HfAsJJJkFj2Qfv36ibcCkwO5PKjShcAuLwjZxc8//7x0hVD9xZwL1BbphDo9jmeffZZOOOGEtprLfoAfXKwaMLATUiISGjUhmExnROt98Xza+8JxOm/Jfs7o/sDHeO6L6BkR3V+HfYe7Vhas4mrpBV99SP/9I9tEEPWJBzhe/LuoDBxMBtvIkD8/JKHtSH5Dmj1x8hcARsQ1BhuxjUjby2nIH++nyqw+4mpF3AhsFJjcaoIrzwm2hSSGhFUeXw4n9vVSqhHjW4QYqFrKuxhS+VBIIQguK2D3cpDXmUkYPGzn8GrzwgsvlAmH/nATIWU82YRQd5C+mVGSzwuChABAQiIg6mSAdGJbov3DkA/w0AV8Lr38Mkdd6nE4amw1woTVL1wPSNvbCnoUEjwxbl+6H3zabWD6fK19WsNy/JEiAKICzHRBYdhEmlcspZV3sU2EJ69McUggAiZKEvH359D22Q9R/mXTqLGuXJ788ORoI6wwj9vj2IIhI2m/ux6g4E9/QdUNNZRRH5AYEyTwoTAQCO5iTdp+kcahySCcV8LYdYPwJ7OPf4O2AlsMPnsdfLgVWAY7iAKncPNO3kC+C8KjkbPRq7in1JhY9p9lSR0VQrGRb4MbGCHa+qme6ElfeOEF6Q/94Hog8j/sUVj+G/9eIsPTE1CDYKJjth+PPmurq+Rpjyc+XpCgtJSAzwf/9qBEtyI03s0LaldFlfIkIvZHnyfWp32csbZTBEB2HSaW0ETw2Io//U5UkbAEwk0BKhKXwVLJAC6EfNDcxZQ5ehS9ff5ZUvgHEz5CYgCQsHSAGJPhM/8mkgtiTKSyGJLgWOqABMQbYniV6mmZ6VTQd7CSenYdXut7eFyFo4dTIKNIjKjiTm69Zaftncu6uq75gSfs/0z6H4KakUw666yz5JzZOdkCILAZJErIUkU+z5gxY+g3V15BNYFaKeiDWhqJEiJ2AUgAJoCfV/ko0eMSB0D0Ttv3mlYSOm0/p8RmygIIgseQN5P92ZsiiYQDuXiihyUC5M2gMhhXzxpz/e00YeZdtPbRuVTLq9triQFSAUiMrAwWqOmBJD7k01TXNZE/yFICu5ShPok4gbZsBA31H8LBEkoCUcfyDwwQsSg9r4R8AwcJIAXTGLlSjFDkBhNEP+kAIrBRwD7ixcRu7XJRd8ROK1estH+Nexv2AxBA40dHHkHjDxoftoW89tprcfcXfQDKCCLgTiJ2GfwMtc2BlAUQZORClUCBoYKvVtDnN17FYoSyiWgJBFJGyMcqCICEJzfAAR6cbzgMvdIS3WTSY+KLhMFmUNZviW0jvTmfZvidD8gaMNU1O0WtgSQiCX/cXd748btyzREepFHuuP3FnasBadeOOnePpOBzUSCACFQLgAiMqwidToY0AsMmcm+0GvP6GwoA3HIBY4WEAJsBwGPM2DHSFewskiDotmM+Tqt0WoJN9XT6BC7Vk0NTFkDU5FMzFkACF+/yab8JR6xCP4WUofVUbYsAOIw++jgq1NZsdKFfsHkgUI2/A0jg/sUaMMgGRug8pBnYLcoD5dRn7KGKwTIEZpN8xuC51aZo+N7SMGyYjXFYZ/yMokDQuVGFDECCyaelkZEjRwqQ2HMzEh3jiSefFFZjEimSAykJ9Vt1SP6EQw4WFQOeEtBnn30Wdu26GfNTTz8VTqc/99xzk6a+uBlbKh6TwgBiZxcbWdk7g0rtK65hjwvC3i2Xqn5SaPUirOo4mPAijbBkguUbEDqPAsaoTVLj70P5+/BiTnGSnnDw3qjcGAc6T5zn8LI5JANUIUMZQ4AIXgAR8BRqDVLAb7311oQmpB7vscceqzflE14UN6TVFxTuueCCC9QDgTs6iSuiwWAIQ61rKYr/LqgvsNVg2QTU+DDUPge6CICwAMDeEoAIKruvvGyy2DlgCxGvC64Ragw+IGE4IJFekMvCfQBIEKw2lHNqht0zjwtAX9si2TjoK6IJ34RZvVp8+RG/pegXVM8qLS2VRYk0kEBFAJggJXzs2LH04+OOC4v3bi4Dthd4gKDGYA2TV155xU039OTjT4TVF10NDB1BlYFbEobVuY/83VXfy5Ytizhu0tFHRXw3X3blQNcBEDaAAkRqM1hiYH1i1e+mSCkAmD7D8R/6+hw8+AEcGjwAQrCr4AX3cMn4wyK9OLpfh59Z1iI/DpvH0UyBZBwHOGvK1w1PA1Y0g2sREsmIvUeEbSQAEyxsBI8NgMSt9HDGmWeKGpPnz5VzOBtcSyt4WOz1MuwTfCIX34H0gWAsgKCbMUJ9AbghgMsu3bSMwGxFc8AxgMCj0Jk6vaTaW3EViPJEKYAtf7iGtry50IrDQBAZG0g1eOjP6Cu2vgN4xO9ixW+IjYNBBZ96fxuHtrsboJTOq+sFfXWdyq92Bxn9I67bIkhwkEhQjR1RozfffLNMSngksAYMgARrsEK1CfNaHxzjU6sxsF8glDtel+vChQslAA4THGumREibfA3nXXC+qDFuJZynuF4KonShvpx5xpkxrsb8DA44BpBUYxdqfvTiginVc7AQ9oMyPO26VV+S9LSOwQhIMaCszjm9OrlH71A7kBeB6uuQShAXATsDVBuU8Bs7bmxc9hH0B6Mt+kEkbLwu13nz5kkAHCb4z372s12uEuHn8MxAwpkxY8Yuv7e3AxILVCBtU4OR2VBsDnRZAEHVsUq2iaBGSPDZx2jFbVzysFbVFMFlayNrbBYkoUVDDPEnCadMdpeQStauXS3xIlAREMmKxDzYR7Tr08kYzjjjDInfgNdn0cIXnRwibTDB4WEBQcJorYo8kgXt9UjjGRciW9EvABLSjSFnHHAMIO3XRMWEUTVP1WmTP4GwCBRABAFnABEEnH0x/YZwJKqzy/e2lXYpV5V+y+NKrJ6ltyPzpjeoDFghDQtLAURgb4A0AtuI08mKJDNICVBjYM9AIpoTgtFVT/CrruKYoGiybjnYLgACaAubhlOCcRaghrEdM0nl7zg9tju3cwwgYJIu+RfNMICLJMJx5S4U7sF3nQcCu0mybCeyXi7bRWATycrvLW5eJNbVcrEhRdAj+KXwLXrYnn8XqYd18VpeCDk9VOd5/6micUK8h30EExWkQSQMBu08PyAhwJaiVQWnyXXwrOgJ3uqaK5YdBwAFVQS2DLhknUTXQroBIOoHgFFfnN+6cQFIW92icE92vz6UdewpsswBShVigSgQQKct4GmrP7f7EYKOEokoNvTdIojHKDRkXaJ1g7nt28lx2v5R/fUX0ryjrtvJ2LxuA3vGO++8E554eOI7Xb8VSV7bd+4QrwkMo7EI0g0mOAg2FLuaEn0sfkMbDVDRCzVFt8d3Ld0gtiRe20lr/XWnfZ4ACBhWsea/VMtPHqTZl7E7Tda/5dR5J6UEvWC4rBAHTxGXH4SHpvzx29kuohLx4BmJ12PgfkzNVPPlclki030fXeNITNa7776btrHEBekAT3zxrMQA6+OPP16kBARsIapUB+C1ddXavQoQufjii9tqFt6PNmgLUEMRnViEYkDtSjexOujGv3sGIEX+HlT38hNUvWE9jb9zbjg8vILDwtnsnnQWI0ZE1CiWeOByRjYv6op8NvU8CToTN22yR4GJw3VJfGtWSdBbR4Fnsi+rvf7h+YDKAHLqWYk2gL773gdtngIqCIAJExwkwWPtqEhoo93FUGNQPqA9NQbuZBRXAgEQ25NupJF5i+CAJwCCVHjYIfLzimnjvbdQBa/1gkpeCA9HngnWwA1Uc9asAAn/+1K0R41D2Ux07QzLEGv7PWK07X1hW0hmUBVPhg0GY0LkKla223DT5bR10ZMqcxc3H4aAmJEkUKB8C2U0BqVCO3jiLaWebxgBaDBcIjYjn7Oidah5rOuGpwM2FAR/tZdcp1UQRLAitV4qjsWQcKBeIXkP7mJQe2NC2DskFahUl156aaxhm9+jOODRHa4MpZi4Jbk9ac1tl1EdFzxGeDiAZNydj9CgGbyY9vijqIr/VFRNB5jA0Ar7CUjV47AK+yBFP15Cf2zEhfQBGwz603aYbC4itOGZF6jq229aQt45jN1rAij5OUGv8KLfWkWFUqugkNfXq/s78sgjJfgKKslHH3yod7f7CU8HPB44BgFcbZHOvEUg25QpU9pqtsv+8y/4lUS9Ioq2vSJGiG9B3AikqGQUDtplYLvZDo8AhPGAV5GTpShZV0DB4y+n36LyVcAwzlMpGDWGxv3mRhr78EKpIlY9ZjxVQijZXi0lALESnZIcOA6UK5LFTbyaHCQOEFapq2fJAyvcfd9vD6ltesjcf1AuL0Upaf0xnmBxn9s6QKz4jIcDJ/1UFg2Xha7cdtaFjuvPk1STGDvVM0HvavUToeeaoELo4sh6Hz7h1YGNBO5iqEf20HV7u9a2dRo+jgWAhD1EtsY4J15oE8s4azvMbNo44AmAwE2LOhra64CJPJAaaO3061VchnhCLHcqi7moIoYCQPv9/Tkqvu4WyYKFmoNlG1DMGC9Rd1iqUHYE3JG7vrT6g7ZYbLuxsoJVpQBt7d1fCgZhhbvxLP1ACoI0BFLZuklUBRgsIXcM//VU2uorto1fTt893pwANLfRMRtgSmtqhq5xClUHBY8iQtdjcBKqFdLxoVqBdF/2w3BOAJNT46z9WLOtOOC9HM/9QnWozGJJpKlBCh7vM30WpXOxH50xq4v7oMwgUulV5XOe1GyArFj3FVXzGjENq1dSgJ9ADZs3UqimjtLSLEMsPiwBJeQvorS8AirYazgVDt6D/EP2ofy9uAwhrw8DwkTGC1oSC0iyLeHuDp6QOD5+Ah5zHAwOZMDa99ppVPr7yymtqETsMxpg4++3axwBOwUmpFNCvgkMpFAzFi5YIMl89mN15i3Ul9ZC1+1tW9tGOj4kGK3GRMePPPvPZ8Q4C/VFG15b68fsa5sDngBI9MRQRYllGknm7Jqbfkv9LrtOAYWevDyhVQsenOzjyZfrlwWasEgTsRpgJ9gXfPUKRELZ2VbQjxKgBCSksSq4rF22AA0h61POp/dZP3n/YQl1fE24jo2jD6SCb9dx0WYGMI6ata9+F/+5rb7jPzCpR6zmXBkNHAf94AeOz4ViQCBEpb719tuiZuhlGaByIFIVkx+ekWjPjZOTQOXBuNC/9sbo+qZwNy97713pH2UGYHg1FD8HknJHwpaBMHMYSPHKz8mgbX++XXlCIOLzJI7wguhJDc8JyhTySyJIEUXKLwCESA6s/qD+KbYRIKYlDLlsgBAfD2kDakq4sJD82AlvfE0Y49DTL5EiRbCHpGKRZS84gzoa8MCgRukEm20jVt9QSaDGaG+JPSpVqxxQX9x6R9A/VB8EiIGWLl0aHpI+F6QblBnYXQlSYTIpKQAC96X2gOjB+/NzqfLvf6WVs26UKuvhQkDcQIAAE45f2B+t60rBH+t3tMEL0kTLi4EGBYWsV2t96HF05CfGDeNx8+DRclo2M3fk6TvkXNrQCW+KmzwSxHVgEsOda49KhcQA6QPqxcknn+z6WqD6YFzR/b/66quyDx3bCxO5PlEKHqilrWQOLSkAogcMEGlxp4Yos1c+5a9UwV3VHCsixBIDVpDDK0yWNCG2EpYqQGLHQFvrFWFTFWnEClu3pJBwX55uKIlIpCceh5KilISk1Sb76ZSkxGvF/PgUa+Ft+69utlMIgPAfMSGtH3EUutKYVkvUr7HfUVsEhEpi2t0KvuptxHMkol5A9UHuTUTUK48dthGcE/1rtSn2aLtWCyz3qYP8MPIIqd+jS0kagMAuomwjatEoFg8YTFhmYBdtMS9cLcWA5t+vUvDhIeEXntiQKoRYypDoUf4UicT2Xe8Pf3JTLY3Y96mOvHsX1YoBStQpDA+xJHbAsiaV/YxYEqLfhIOpideZ0QtW2X/vktu4Tv4/4MVAgWREfEKKwHa09Bjr+vCURIBYsCkoNzvcqjoyFX0iniNRsi+whL6Xr1D1WNH/WeecnWj3KXv8iBEjZGw6L2jFF//1fKxJA5D2RgpgySnIpuoXn6Dll1xIO5a9JlGiUD2gzoS9Ne110gm/aeDQqhI+27O1KFsPSw3sFZJ1ZjjWpbMIE9Npyn3MMTJ4IIMVoj8ycWHDQBxFPIFe9nNg4SkUCYLB8/PPP6el7ywVqQZtdDyHvX282/C+QI2BpIRFxT/55JOw0Xd3Dh4bMmRImFW4drd1aMOdtLLRKQDCj20ZSlZBsSxEvfOe6fTZTddTI0evxrOIUyvXk9RdAASRcGxn0dKRts1EqzIAHUhHslaM7biO3kSmLOp2XHTRRa7qherxQgzGmrpQPQAeUF3wJI9eaV63d/KpQQL5LnDdLmCXLggGVi/0eHhxAHCIOH1xwUJ6miNfETyWzFXnnFx3stuAd1DREAsD3s6YMaPdvCA343HsxlVRpjpYDDMpEYI6wx4XeGTY4IqCQFm87svaab+mtLGH0+Czz6cCjhqFNAKbB0gZTvlpzsfZv0M8U3UcXGChTeWAJKHrQUifPPGxTxt7RUViOw3C4SvXraXAlg1U991mDp+X4VCvPQZS5rC9qff+vJ4Mx7fI2Fl9CXGAHUDGP2AINaqmrt5Vf64OFcCATQG2gMWvvyH6PybU5MmT6dBDD6WxvCxoLNUDbk8YOVEjFYS+tHcDtUESsSNoNea9Ze9K1TFMbkgMXtYlxbVi7Js2bZLxo39IPrs7/faaa+TBAbCHIfl0jo3B8qaJ2JXsPHMMIOog2DM4UcxNspv9rLJt2UR4u9nHkz/TR/m8nbt6BX19w5WyPGT/U0+n3gcfFo4ilYI68LSgcBGn7YOUHUI2d5EOrL2tftgNSgCOMFAwqPgY1ASweOLDuPv9B+9Q6dIlFFr+ISGvBpSVkyfjRQ0SUANn/lazbWdrVh75jzuFhv/8PFmPNx198e/5fftTaVUdZfWMM0y/0Hlglgyklbfqqmq5eRAyjpsIN1PZ1lKZUNrIBkA56KCDaNCgQZTDtWazsrKooYGjiVn1efPNN+UTKgZKGULqQF+I9Jw9e7YnUgKkAYAcxgaCyO1lYR94cq6++moqKSmxwgS8UY9aYXdK7QIPwVt4nfDfoSj2sGHDZJ+Oramrq6PVq1cL//EwiAdcYgIIJlewsBelBSp5IvBkYQDxmsLGVg6B57K2VMRLN1DpBtp5x+9pE5+7gBOv+h4+ifL3GC5PSoSl2yUTGF9BsZ6irY1bAxAkDK2GiLTBCxtvXbyQvnvmfykvUMaxLDyROSCJOIitiUFBGjMvwtxIy6a0bD/14MkVWPQEffbuUhp53Q1EiMBlys5nVmeGW8s+J2+QXFrIhZTFB+Mm2vDtRjF6/u2vD0iAFvoEmOCmAgFQkLimSccPIL4DHgxxqXKcB8K+EXg1n5PQvJzgRx11lJwaWbEAtURWr9PXYP/EpMC4EbAG8ko9sp8DdVG8IN0PANwLenzeP+jnPz89HJgHkIa0t3jxYsphp0Ydp4Jowrk9BRA89bMG7knBVZ+wp0Q9bfXJvPxUpQ9ZbWADK7ZD8MqU+Km4voYaeEJu5FojTT33oIIjj6aSUQdR0b77iucGYxAQ0FoV1BK93c4A5Rj+HaABgu0lnSWbii+/pB1LX6fq/7wh0kYxA0cTh6IDolAuAITPNNZdELSuwE92M6gheA5g0Yt68AJYq264nvb50yzKYRCprm6iBp7/DEEOKSQZvf6iHtJebENQ3xxcW1sngMEQL8RuIFALksVHH30ULlbc2nFaQsHkO/4nPyGUDExGzQyoQFjEChQIBBKK/WjtOrDvllum0+fLPye/30+HHXZYW83i3g+VC4WV0C/GPniwkqLi7cirfqLPiwcrViCE18z+AEG7CqsxVFKE/ufmqpyx6D7a+u7jC7ZZAlpvtnbe/ZTxOhu2eFKj8pc3Koz9XHD5sq1A7BuYIdZ3LhIkJGqTT7Jsg8FGialoyOVw9iHDKG/fcdRz6FjKGdSb/D0GSDi8qDrqyDbelRoUrK+m6q+/paoNm2nn8nepeeWnlBWsJ382AwNLQ3KdlrqG6wYhmhT2IIYQnsyREoUAn7iv1X5En2LNXdRFgRpU88AdjD7OVRgkFfa/41GxB0lkboIA0gYzxLBWVlZGZaVl0qSGpa88tuOA+vTtQ8OGDnEl3UkHTt8cAr/T7kw7GweieAv1fWdFJUF1AeXn57tWQx0ByOY3XqKaB28jeE3URIeQ39lk4R67Rqstu0Qog42XULc4wS6td29q9udTAQcLgYLN6tHdUL6dmsp3UGjbJmqsK6dCSwSBTYO4JEBCj3g5k/0tRLlNIao55AhJDMz9GsWe2xYhFAApIIVk07CjgvZ+8lUxykqvUTeC/Uxm23CgMzgQ0waCQRUOG06V1jIFSkrojKFGn9OaiPxEz7c91X1syBR7DdtQ7IQLhVTh50+Vk+JjIyf0f+4nbBSOlCjsx7vb9lF9WogyPniLCrgD5AW1J70BNMLBZgyMtf0HRoKHu0GYowwHksYBRwAC42VFTgnl+KranQBJG2U7HeOpDUIRIalGlhZk2wTDQlqWpRLJz/K7tngqlzTvF5UgKGoZWrU3uVUv8b/DTa08VxzBKipa+30g/B8g0sBAmH/MKZGN2xZeItuZb4YDHcQBVuRjE4wwJZOOkDqfsVt3TAvxhPCptBETT3dtR9FA0JzGhk7rhYmsX2gnT3rLtoL2KMrsNam1cZTUocYWGwFgW9FA0/uACV4PyfRnOOApBxwBCM44cNJx8lTkKevpANx2Zq+rARAREBBVRE9SFWfSst9+JrRR7TQARRtE7a3dbisgU+fBdvhcMTpEbde6PUdLPZFwU31Z4R1mw3Cg8zngGEBQLLjhoCO51CC8EakBIp3PPu9HAFdwoD5Ig08/nzt3/Pd4PxDTo+GAAw44vENhVSAadu75VMWbKBhkKDkcgJu6cdQoKj74ED6B4ntyzmR6NRxInAMOAQQnapYlC3qfcT7JYlG8RxkwDZgk8jdoIzD6QJFoAPSIi65ke28cf00iAzDHGg4kwAGHdymaqab9TjyL6MAjpWo6dHUxRiYwAHOoAg4YXAPlVdTzvCsFqBVfHP49homGA53EAVd36JipN8l6Kxiz8hgYKcTt/4f1dERt4fVx0s88V9aUgYlJcn0MW92y1RzXQRxwBSBIVx9/+/2yZCXWYzHkngMZ9QHxbqWdegYN++XFqiNkHONlyHAgxTngKJS9tWtAzCayYFfM4WSxpS9JmLtqZ/yNrfGr1X2cBQmbR58rZ1Df8RNVEw42Q3S9SCCGla2yzexMHQ64BhD7JXzPJQk3/W2OpL2jOBAiQjmdVproJDQVYbm7y+Qt1wdPFfigAshUcJhKwGuS/JjtnMgU/MEhtO/lV4UXwhLvuAEN+61ltlOcA54ACKSRdM7gXLfocap+5QUqsupz6LVqVTCXKq6sojNhO0mFhDyv/x0FIDqSFL0jEjb83Ur8k6prp07mJR9Ghb0tInHgAAMg4IKhLsIBTwAELl7tdgSQbF62hLa/8wr51qyibF6WMqtAVQ8TnnDim9112eLFsc8cTET79y7CTRlmS0KcXlwbgWF1OYVUcPBE6nv0CbJWjNU04sJEdYnYY74YDqQ2BzwDEJWYxmnz1vVCvghsWUPVG9ZT47rVtG3dl9Rcuo3SK7eTr6mGslj3R4EdELZ3F8I1BXnNXqzbmz5oL+o9bqys2Vs0bKRk1oq0hott0XYsgykf2JVxc3f5A811xMUBjwBEn1MjgZoMuz5R+XdeQBsUKN9CTfxkpgAnvHERn92B0vLzqKDvYEZElp6kZquFkPri7ABh35aI06i2+hjzaTiQwhzwGECcX2n4Sez8ENPScMBwIMU44KgeSDLGHOmm1JKL12eynurytE/COaLre3RVs43XbDf9dRsOdBKA8GTeZbIlUYSXcyWh/12uodvcN+ZCDQeEA50EIFGTOcIe4OU/Y5c6os7p5WlMX4YD3ZQDnQQgUdxO2pPcgEYUp81XwwFPOWBmmKfsNJ0ZDnQvDhgA6V7/t7lawwFPOWAAxFN2ms4MB7oXBwyAdK//21yt4YCnHDAA4ik7TWeGA92LAwZAutf/ba7WcMBTDhgA8ZSdpjPDge7Fgf8DefuclB7l47YAAAAASUVORK5CYII=;" vertex="1" parent="1">
          <mxGeometry x="133" y="-186" width="151.65" height="63" as="geometry" />
        </mxCell>
        <mxCell id="uvx7ZhkvkHeKNGqRu8Pl-2" value="" style="shape=image;verticalLabelPosition=bottom;labelBackgroundColor=default;verticalAlign=top;aspect=fixed;imageAspect=0;image=data:image/png,iVBORw0KGgoAAAANSUhEUgAAALcAAABfCAYAAACqeVZwAAAAAXNSR0IArs4c6QAAAGJlWElmTU0AKgAAAAgAAYdpAAQAAAABAAAAGgAAAAAABJKGAAcAAAASAAAAUKABAAMAAAABAAEAAKACAAQAAAABAAAAt6ADAAQAAAABAAAAXwAAAABBU0NJSQAAAFNjcmVlbnNob3SmCKyQAAAB1WlUWHRYTUw6Y29tLmFkb2JlLnhtcAAAAAAAPHg6eG1wbWV0YSB4bWxuczp4PSJhZG9iZTpuczptZXRhLyIgeDp4bXB0az0iWE1QIENvcmUgNi4wLjAiPgogICA8cmRmOlJERiB4bWxuczpyZGY9Imh0dHA6Ly93d3cudzMub3JnLzE5OTkvMDIvMjItcmRmLXN5bnRheC1ucyMiPgogICAgICA8cmRmOkRlc2NyaXB0aW9uIHJkZjphYm91dD0iIgogICAgICAgICAgICB4bWxuczpleGlmPSJodHRwOi8vbnMuYWRvYmUuY29tL2V4aWYvMS4wLyI+CiAgICAgICAgIDxleGlmOlBpeGVsWURpbWVuc2lvbj45NTwvZXhpZjpQaXhlbFlEaW1lbnNpb24+CiAgICAgICAgIDxleGlmOlBpeGVsWERpbWVuc2lvbj4xODM8L2V4aWY6UGl4ZWxYRGltZW5zaW9uPgogICAgICAgICA8ZXhpZjpVc2VyQ29tbWVudD5TY3JlZW5zaG90PC9leGlmOlVzZXJDb21tZW50PgogICAgICA8L3JkZjpEZXNjcmlwdGlvbj4KICAgPC9yZGY6UkRGPgo8L3g6eG1wbWV0YT4Kaj8pqgAAFoBJREFUeAHt3QWwJNXVB/CLOwSXAFmCw6LBrXBZrNAKWuhSuLtDQZDFKZxicffg7ou7hgR3kgAJLvP1r79v+B6zbWP7Zub1qep6u9M93fee/t9zz/mfc++M9u2331ZCKaUGelADo/dgn8oulRqINVCCuwRCz2pgzF7r2S+//BJ++umn8P3334d//etf4YsvvgjTTz99mHzyyXutq2V/cjTQM5b7u+++C++//3646667woEHHhgWW2yxMMccc4Rtt902vPDCCzlqKE/3oga63nL/8MMP4a233goPP/xwuPzyy8OIESPCzz///Ou7YskrlTJm/lUhA+gfXQ3uf/7zn+GOO+4Il156aXjsscdCxPyM9OrGHXfcMN544430eflB72ugK8HNEr/zzjvh9NNPDzfeeGPsjqS9qoknnjg4Shl4GuhKcL/77rth++23D48//niite77GiebbLIwxRRT9P2o/PcA0UDXgfurr74K66+/fnjppZcKvSIsScmUFFJVz13UdWzJpptuWhjYgwYNCsstt1wYc8yuG8M9B7T+6FDXvHV+9vHHHx/uu+++wnr64x//GJZaaqnC15cX9pYGusZyP/nkk+Gcc86JEzRFXsGkk04ahgwZUvrbRZTVo9d0Bbj/85//hGHDhoWPP/640GsYffTRw4ILLhg22mijQteXF/WmBroC3Pfff3/sZ/dNzmS9jokmmijsueeeAVNSysDVQMeD+5tvvolT6lLrRWXHHXcMyy67bNHLy+t6VAMdD26p9TfeeCP8+OOPhV7BDjvsEHbbbbcw2mijFbq+vKh3NdDx4Fb09Prrrxd6A0OHDg377LNP4JaUUmqgo6lA9N97770XPv3009w3tdNOO4U99tgjTDXVVLnXlhcMDA10NLgVQn355ZdBZV+acD9YawFkabHTtDQwP+9ocPOzLTqoFYBWDDV48OAY2CuuuGJA/5VSaqCvBjoa3BrKNRljjDHistUJJ5wwSM5MPfXUYd111w3rrbdeKt3H2jsMBMAvA8y+r31g/Lst4AZIK2PUW//73/+Ol3opeAI2rgP+mW/s79hjj52qaecWWWSRYEGCyr6ZZpopzDnnnLHF7luj7b4SPZ988kn46KOP4oNLw/IbGGq6DYppp502LqJyr/HHHz/1ueWJ3tDAaK3c2kGSBW331FNPhVdeeSUGGcAJCAHd2kYVekA2wwwzxGsb55prrjD//POHP/zhD5lAr1W3AcQf95xnnnkmvPnmm0EpLOrwH//4Rzwgqt8BcINpUFRINd1008XPtgTNwFF/Ms4441QvLf/2kAZaAm6gVfthRQyQvfbaa7EVzdMT0AH6bLPNFmaeeebAd1566aVjK5v2XVb61VdfDbKWjz76aAzmv//978HMUFS4KKy3gSVNv84664T55puvrsFV9Fnldf2ngabB/be//S2ceuqp4ZFHHomtdtEUeW2XxxprrNiqsqwLLbRQWH311cO8884bA93gsfLGOsmrr746fPbZZ+HDDz8Mn3/+ee1t6v4/94S7s9Zaa8ULIKaccsq671F+oTM10DC4gdhK86OPPjpeXZ7EajTaZf40NoSvPMkkk8QLfrkg//3vf2NXhEvSahGszj333OHMM8+M/fpW37+836jXQEPgBuQLL7wwTppwE9oBtlGviv99IlfJDCEOaIXQlcXLl1xySfjggw/iLSdkUrljrRIBt0Cau8ZFk/j6+uuvg7qcCSaYIPzud7+L441ZZ501HrgC+VFJncKI2dbqKW6r9onFGEjt0x6xzyyzzBKTBQxaK6RucFNYFditaEAn3oNPfvvtt8cLHZoBgdnmlFNOCX/5y19G6uZf//rXsPzyyzdEUWKBxBjPP/98cJ9rrrkmBs9ID0n5QDC98cYbh9VWWy0Ors1aBnWrBJjNslzH66+/PlxxxRWxy1r0/ksuuWTYZJNNwgorrBDHRo0yW3WBm1LPP//8sPvuuxdtZ9deh12xD8riiy/eEAC94LvvvjusvfbaiTpgsTBLrFZREXuojnzooYfCGWecEZ577rmiX028zvI77dtss83iwBqT1cxg9hCD7sUXXwwXX3xxfNBDM7L//vvHOQ2zTr2s1hgHHXTQYUUffvPNN8c7OBW9vpuvM2WyGBicRhJAXAXBLyAmCUu58MILx0xR0vnaz8wC99xzTzjqqKPiuICL06wAHldG7ISuBW4sUiNrTrmmqFigPuCAA2LXrhXuKqLC0kLtsi1e3/xGXv8LJ3FU5xlFA0GwJ1bxbLnllg1bMi+W35smzpu6iwh/2iximR3WqNUiB3HeeefFbo5ZeZVVVqk7ycWXPvHEE2M3xEBsldATRs4WeQagBeJFdzMoBG4v4bjjjosDgVY1ulPvs+iii4Z999039veysqd57Wf9ZFPTxPSPZ88TgZfNhwSkRaoj8+6XdV6u4ogjjogH5YYbbliY9zf4TjvttHimyhrQWc/OO1d9BgaNPy5OyJNC4Da9mhoa5bDzGtEp57kghxxySOwuNNsmbofAaKWVVoqn/dr7bb311mH22Wev/fg3/+e/nn322eGCCy6Iyxh+czLlP6bueeaZJ66/MYUrS3j77bdjP7iIRZWAO/LII2OGZY011kh5yv9/rMzCrl9XXXVV5kzlG4P+b6sNSbsq1atMQhzx8ssvx7kSO/OmCVfshBNOiJmVQu6i9HvWESmmEt2oElka5HLPHlHgWIn840pkeTL1kaWr2nPRjFeJShEqkXtTiV5mrLuIAqxEW1RUIkuU+ZyIlapEoP71e1m6j6izShQUVm655ZZKRLdVvLMICPEzIuBUInqw8vTTT1eGDx9eiXa/rUSzSu57jIrTKlFpQ2Yb9dc1kZuQeb8oMVeJLHvctohBqURuUCUaaJVo8FaiLaYr0YxUidytSuRfV6K6/EoUZGfeb5tttqlE/n1u23LZEtPhoYceGtM6aSOq2z+fZppp4mlVVrSR4DGr/3xGLAcK1V/TqiOPejMNo+wEplnC9eGLy+bK8ma1XwCJ8bJ5qHhCm7KEpWVR0xgUfZP0UkufJgJBs744Jq/PVV2ZCdTo00GScPkEwbapzpLMImhTmhoOfGWvCkBEliB2H7KA0Wj/3dMzJCYEQijAvJdsEOy8886ZwPaC1cRgY5QriA/y2g+k6DSlBpElz6zh0V/uAvACXZL4nMuUJp515513xsmZvD67R1VXtsvjHqbx2/SjOC8vK54JbjQRLraXxY5UasPr5VDbqROAjVyMzEcA6EUXXRQPlswLU06yyjYSVbCWJkAkmAXyJFHOnLVnI2YjK6hOumf1s8033zz2rav/r/1rcDYMblMYMh7F06si4hb0mf7bIVwKxV2CpNoD/ZaU4PDCTjrppMzmqGRkUVnvZuT3v/99OOuss+Jy47T7aDcaMsl6Ky3OkjXXXDPrdOY5s8xee+2Veg3LneeypWqHP6bxRmevinqGdvjZ9AUMUWAXZxKTfFbT9OGHHz7S1MsSskppIqOpWA3b0KxolxqarbbaKo6rku6HseFauIb/3Ffy2Bc1Lc0IWjZr17C8wZ0KbqBuRRasmc6187terAUTaKl2ie3fUHlJwveOssMjnRJMZQV6/OxWFXV5uNlL0kb2mTVMEvy6BSErr7zyb07n+fgWkgBoozLjjDOGY489NvXreQM81ecG7jRfK/VpXXTCS6X4tKClFV3Je/m1z5AsU0GY5Usqdmr1Kn/VeACeJqr4ksoI8jKFJ598crzEMO2+eZ8zQOrr046kGbHvPVPBzVdUK9CrIsFh9U0niSVy9J7k32qnxIX4IO+l1tsnA5wuBJlJIlEDC7VuCHovS5ARFnHLsvaHpIKbr6UGt1cFdSag6iQB7qx6E2s+27FSyAwjW5oVWAuAa3fZNYPk7X9uJlp11VXDddddl5vBbPW7SAS3KF6NgBHbqyKgy/PZRnXfUa9yC2kitV6kpiLt+1mf2y5DMitNgLvW2BkUAs2smcQsJKWvHkTSRTCsVNeP30YZzjiplDZTpbWl6OeJAWU1k1X0Jt14HXC309+uVydeMN82LZhkJSWCsoBU7zP7Xm+gY2LcP4miFIMlgduCC9RkWjDa9xloZXUrDmtlLQY3G1nep37e9hsGr/fSin4mgluD2jWa+na2P/+tf1LRnSISJgCU1ib+bZZlbbYfrLClb0DOqtaKWCApHY4eVJ6x6667xtRx7ffS/i/rfeWVV8aHawSnXBxMkADXYbsPgG9UUsFdb6TfaAP663vAJEBqJ2Dq6RtQa1OasNztnmnw0p6RBG5uapLLZAZcYokl4nS5smj0XyPC7UGDOojZQIJNBhWTMygl2M16ViK4AVuje1kAiUI7RbgCWbOl8oC8pEWzfVHQpQ6mXjEgZCNZfbUm6pGSBkI998WrO+Dw3nvvjV2YDTbYIC7lLXqfRHDzdxrpZNGHdsJ1gmVUFavTDeKdtHs2beYZAC7JIyn2wAMPhGuvvTauBswasEX0bg3BTTfdFB588MF4VvDjuurVi0giW0KJpsFm06dFGtBf13BJLODtFKHzLPBK7GS5La3oh1qNZp7BynIjrKy3gNnKd2CUaWxWuEpW0fPv1TwVkUTL7YvAzclP8r+K3LjTr2ERBEhSyyL1/hYzZZYrCNxpwWar2s6VyMqOFn0O90YwqLwBI2LtrSQQRsWWGRb9NuK2oA7VccOm7TIwLlmSaLl9gdVu5cYxWY3or3NqZyi6E4Q/neVTK4WopeJa3W4b+qQ9AxbqtcDcHO6KxNOf/vSnsN1228XWHOU5YsSIeIEIV8Y1YoqswV3tq5nFkjaDJK8qMBXcONVOYRKqHWv1XyvJReeysf0tgGBKT0vSoM4Ar1kfNq2fLHYWWFBytVWBaffK+xyQpfstEqF/YFe4tcUWW4RBEStSZPsGpbqo0yxJBTfL3evgphjlpZ2y+NnGM2ng1lY1GmlJHuebEQMnqwaEi9ouPLDc3BcLIyzSkPUEcgM+TfjdeT8ElvptJZlSsr3OmsiaWSeaV3ifpuRWfq6+PAvcXmietWq0PfqftTAFuOGh3UIH+PJjjjkm1w169tlnM5uTCm7+n6zYqOhQZgtHwUk86vDhw/ud986z3DboFCe02jXhjth0KQ3cfOFqenwUvI7YYtvmzY/lZolCsyxJBbcvUXZeWWPWzbvlnKme9XaIyPtL1HZIP6dtBoTdAfBWt5E/byP/NJeHgbMIeVTP4vYwzBIlAVmSSgX6EjpHJdpAEJSgDV9QhH7Psj8Ez23ZG344Lbjjl1qNY/puhWAfZALtQ5gmKLfaZJfZ7rLLLhtpYbVMK2Zll112aTpPgtRgYG2nliRZPrnrM8EtnSrjhFdshJdMalAnfyaoUpL5drT20SqSPOW1oy/LLbdczBbULgyoPktNta3L7MuXlfSpXp/3l5tjm+U0xgizISMowOsrrDxKLqkN3Jg///nPTYPb8xidNBEHZEmmW6LhileQ8QNFFAide+65MVUlPZ9U/tlOXQjk8zYcRYPdcMMNTfve3Bs/+fLEE0+kdglHjbKr5aCBXVLJDFN7uK9Fxc3qzsBLG+QanLcdXSa43QAfyTVJGqHO96oIruzzN2zYsJhJaXd2sK8e7dmRt+JGitsejgZjI4J1wUhIk6eJmUsZqgq9WgGsLGZn7733joPURgFuZlD3nSV5C6Vzwc014W9xTQaamBLVMtg+lxUZVSJ9zTrn6dzv3QOnzGKaj17bZsvY/CKDnWxRblnCOut7kgguWfQssZGm+p16XVp6t6UytydNeBNZGwr5XqHN59FAKrN6tc4kTYE+x1xYA6imOI3FSPu+egqbsSeJeynwB+QkETBiR7L2MAFoaWzLuPyblQQ6B6trtvUZN0GCBi8sI8giKkvNohRlCQXYkitpgnAwe6SxLJ7rZ03QytrC5eLDJ8UyAnnsBzbIr3cY3FnrSQ8++ODY6GaVLGQGlNVOWRXh5zO8LI0YSOIF6rsXMyqFj4u1kZq+9dZbUx9d9W8txLVci7sgTW7wAJLSXq4LcEsCFbXyOGZ79mUJXKgX8WsPaQKgipwwQOhEswE3VzpfG7E1LLV+4q1tIfF2FNBnCU9CTYr+ZUkhcBtp1aIXyhxIYkV43m6i7dKH1fncIpIFcOdN/ay4oyqsWiMlrDbhtHNrXpzlvN1i7QQrwE0Ts4okkcOMANjc3Wr7eAS2bSviWtmw368/GCR5UgjcbsJ5X3bZZcNtt92Wd8+eOc8dE1RKrvSHsN5e5mGHHRazFYqL6pF6gW124sez2jjmIqLehP9uhlCplyeMo6ORnYO5arvttltAlxZxEXMDympj3Sxp+6/q+V78yyWRBs6zYO3sO+vG3cBt+yGldg00u7Hyc20+ya0p2mcDEA/O9bBbbrvEDIrbt9SsqItYGNwajRLK2piwXR3rj/uyXPba6ISFDNxCKXBBFPfERvOtEhV5fsLErMDHRu8VBXa1DQAOfNZPYjlaudmRwa19WBdBfVoAXm1L37+5v6zQ92L/VmaI+8yKZGu/043/Hzx4cLwwNY+OS+sbJoL/y5olgYXvKe1ddPqvfY7ECxrQ2kIugUNNdhavDISeKxADErUbBrDAsJWCQ8eisLSYFO3iiuTlCrRPu6qHLKfy10ZLDeoGt4ZGv+mSGSG3UlH9cS9gtKdGM/tLAzdqS0GSl1YrzjdCL/a9DyBjQSzfspE8NkRGD4iwWp6hL6wfepD1twkO1sLKmKLTe99n1vNv7RNEah89YEG0TSzgnLY56Ef7JK60z7HAAgvk8vx5bakb3G6okMWu+Rrei2LDSXxwEh/byf0FGBYSc8KSA5FYCYgd/t1ffTLQANuMz5prn0FXtdZmSDMKsLdKGgI3ysbL32+//RqKelvV+HbcRxWahNWgAlRTO55f3rN1GqgroKw+lgWwR1za75pXr+vGv4qWSmB345sbuc0NgdttlBuKYoG8V0TyYsiQIb3SnQHfj4bBTXPoH6R6o79Y1UnaVz+iEEjmrJTe0EBT4BYMrLDCCkGJZjfvToVqkpnjb7cyoOkNiHRvL5oCt26Lvi0pwueic7pN8L4sttKCEtjd9vay29s0uN0ewP3qVH8VGGV3Mf2sbNwOO+wQhg4dmshFp3+zPNMNGmgJuHUUUBSX811bKdLDkg8OVrZVgvfdItrhSIVZu5MZrWpzeZ/6NNAQz531CFk5BVZKILPWv6Xdg/+rEg6YBXfKI6tLriyOlaCwr7bachudZ+2SlPYMYMaM8LPzFpmm3aP8vPM10HJw67LaAnuAWIUiJZwn1aVsFgWoMLPiHqBlrZL8YPe3MaQVKFaX2A9aTbHSgDxZZpll4i12VZeZFUrpXQ20BdzUJcXqV6vUf9tXufYHWwFLlSGwqSOwgsS6uHqqvqSbWXI1C4CuhkEhUW1ZgGf5QVVJJ0VfZoakQdO7r3lg9qxt4KbOKvgsI+JGVHcpRRsqi1SbrCqOm9BszYO6BcupuEIsO/fI/8UCZgHuh6OewTMwIdE7vW4ruPuqCdAVzxBWs1kw97130r89ryrtflb1OeXfztJA4WVmzTZ7VANsVD+vWf2U32+9BlpGBba+aeUdSw00p4ES3M3pr/x2B2ugBHcHv5yyac1poAR3c/orv93BGijB3cEvp2xacxoowd2c/spvd7AGSnB38Mspm9acBkpwN6e/8tsdrIES3B38csqmNaeB/wEwStM61IHzwQAAAABJRU5ErkJggg==;" vertex="1" parent="1">
          <mxGeometry x="195.86" y="-134" width="50" height="25.96" as="geometry" />
        </mxCell>
        <mxCell id="uvx7ZhkvkHeKNGqRu8Pl-3" value="" style="shape=image;verticalLabelPosition=bottom;labelBackgroundColor=default;verticalAlign=top;aspect=fixed;imageAspect=0;image=data:image/png,iVBORw0KGgoAAAANSUhEUgAAATEAAABdCAYAAADNJFH9AAAAAXNSR0IArs4c6QAAAGJlWElmTU0AKgAAAAgAAYdpAAQAAAABAAAAGgAAAAAABJKGAAcAAAASAAAAUKABAAMAAAABAAEAAKACAAQAAAABAAABMaADAAQAAAABAAAAXQAAAABBU0NJSQAAAFNjcmVlbnNob3QAePkEAAAB1WlUWHRYTUw6Y29tLmFkb2JlLnhtcAAAAAAAPHg6eG1wbWV0YSB4bWxuczp4PSJhZG9iZTpuczptZXRhLyIgeDp4bXB0az0iWE1QIENvcmUgNi4wLjAiPgogICA8cmRmOlJERiB4bWxuczpyZGY9Imh0dHA6Ly93d3cudzMub3JnLzE5OTkvMDIvMjItcmRmLXN5bnRheC1ucyMiPgogICAgICA8cmRmOkRlc2NyaXB0aW9uIHJkZjphYm91dD0iIgogICAgICAgICAgICB4bWxuczpleGlmPSJodHRwOi8vbnMuYWRvYmUuY29tL2V4aWYvMS4wLyI+CiAgICAgICAgIDxleGlmOlBpeGVsWURpbWVuc2lvbj45MzwvZXhpZjpQaXhlbFlEaW1lbnNpb24+CiAgICAgICAgIDxleGlmOlBpeGVsWERpbWVuc2lvbj4zMDU8L2V4aWY6UGl4ZWxYRGltZW5zaW9uPgogICAgICAgICA8ZXhpZjpVc2VyQ29tbWVudD5TY3JlZW5zaG90PC9leGlmOlVzZXJDb21tZW50PgogICAgICA8L3JkZjpEZXNjcmlwdGlvbj4KICAgPC9yZGY6UkRGPgo8L3g6eG1wbWV0YT4KpetOmgAALptJREFUeAHtfQd8XMXV79mqsurdsmRJttyNKTbd9I4B07HB1ECAkJCPQEgISb73fXkvLw9Ch3z0bjCYXh2qjTFgx4B7V5csW5LVtavt739mdeWVvHd1t2pN5vy83tUtM3PPnTlz+tHZbDYvSZAYkBiQGDhAMaA/QMcthy0xIDEgMSAwIImYnAgSAxIDBzQGJBE7oF+fHLzEgMSAJGJyDkgMSAwc0BiQROyAfn1y8BIDEgOSiMk5IDEgMXBAY0ASsQP69cnBSwxIDBgTHQXOnh7yNDSS9bPPqaG7iwpPO5Vypk0jU3p6og9djk9iQGIgDhjQJaqzq31nFfV/t4rsX31N7oZd5HH206Z+G5lTUikpK5OyTjqe8o86mrImVpJRErQ4TBXZhcRAYmIgoYiYa1cz2VatJvvnX5C7eTe5OrvI29NNXpebdGYzbXQ7yOtwEXk9ZMzKInOqhcwZaZR14gmUf+yxlDW+QhK0xJxnclQSAzHDwKgTMVdrG/WvWy84Ltf6jeQGt+Vp30vkQTSUXoePgUiHbwATMQFeL9MxIpdC0LIpKS2NkgryKeu4Yylv9mzKmT6NdMaEl5Z9zyP/lxiQGAgbA6NCxBxdXeTauIn6ISo6v19LHocdhKudPH1W0plAtPwIl/+TDRIx/4P+BE2vJxNETebQksCpZR5/DBUedxxlTZokCZo/zuRviYGfEAbiRsS84Jr6N2wk+7ffkX3Nj+RtaSU3REVPd09QwuWP64BEzP8CQdDAwTGHBk7OmAMODTo0S+UESp91KOUfeYQkaP74kr8lBn4CGIgpEWPC5aiCgn7FSnJ8u5rc4Lbcvb3k7eoEkYE8aDQNiopacDkiEfNvRCFodgfpkpPImJFBSekZlJyXS5kQOQuhQ8uoKJccmj/O5G+JgQMQAzEhYo7qGrJvAtf1+XJy1dSTx24lT1ubDz0hEi5/nIZExPxvVAgac2jQr5lycinJYKbUKZWUdexRQoeWUS4Jmj/K5G+JgQMFA1EjYq62vWT79ltyrlpDzqpqiInd5G5tIa8TlsUkc0gcV0Dkedy0weUknSFC/9wBgua19pM+NZnMOTmUBC4tpWwcZR15OOUffTSljxsXcAjyoMSAxEDiYSAiIuYG4erfCI5r5XdQ1G+BjquL3HthWXTAisjERkVBHzIaQMB0mVm0PT2F+mvrIydkygCYoLl9OjRdkonMWSBo5hRKO2Q6CNoRlHvoIZRWWqpcLb8lBiQGEhADIRMxF3RaDlgWHWu+F5ZFF/RbHrhJeHp64csFl4ZoES4/ZHm7eij91ptpb24Obb3rj2TIyfI7G6WfAwSNOTRDZhqZc3MpmXVo40oo97g5lCMJWpQQLZuRGIguBjQRMWFZ3LyZHKvXkONfPwgx0Q1x0dsBBT3cGsiwz5crusNDa+DCCM6uBe+/Rd7UVFpxwcXkRN8Ri5XBBioIGgwP7GQLDi05v4DMhiRKmz2Tsg47lHJnzSJLcXGwFuQ5iQGJgThhIKg3qKO2lmzLV5Br0xZyQYxzd/u4LjE2EyyL8KKPNXj7HZQy90wyFRWRDgSzZP6ltPOv95CxMC92XUP5rzOCMPMHBM22ezdZwaH1tDXT3m9XUXNuHqVMqKDcOXCsPeJw4ZMWu8HIliUGJAaCYUCVE+t68WXqf/9jcvf1wrLYSuQGZ8KEa8B7Plij0Tznbe+k3CWLKHXmQaJZ654WWnbyaUIpH++xMEFjQwVzh/qUFDjVplHxlfNp8nXXRfORZVsSAxIDIWBA1dTnbm0lx4/rhCe90HMx1xVvAtZvJ/Ocoyl5yuTBR0otLKDSqxeSu7N78FjcfjCHBr0f+515Qcj64APnYeIuQWJAYmDUMKBKxAzFY3wWRiZccSZeCja8IFRpIFj6YWJrxYL5wnmVOaNRgwG8WEpKRm0IsmOJAYkBqOXVkGCEDsoLTmjUAJyOadbBlAIl+nCwjB1LhXPPIk+vdfipuP6tQ4B6KvAkQWJAYmD0MKBOxNj6hpCd0QIvCJTl8vmkt6TuNwRW8FcsvJw8VptQvO93QTwOMBcIq2wSwpgkSAxIDIweBlSJmA6e7Kz7GRVAXCWLs5aTTlDtPqOykgrPOdtHyFSviuEJ0DAdDB0peTG0ksZw+LLpnzYG7MgU07Fly0/7IQeeTpWIMQekK8z3BWrHGRXe9i6yLLiUDNnZqj0zNzb++uuQJNE5atyYISOdjLBSSpAYSDQMtKxcSdXPv5Bow4rJeFSJmCE5mfTFhSKLakx6VmsUXJguM50s556jdsXg8WwkPsw+/jjyjoLY63W6yDJp4uBY5A+JgUTCQM1Tz1LLm++TFT6OP3VQJWLM6RhGQWntRWLE1PPPJWP+yGIaWy0rrrmK3B1dcefGOIohDfn9JUgMJBoG9q5fTz3I3ed2Oqnho48SbXhRH09Qj3094gc5p70uJehl0RsUc2FmE1nmX6K5zfxZh1HG4bPgs1UtQoQ03xjhhV5MkNSyspBb6dy6bcg9+pRkygijnSGNBPiDdSLWXbvgHbNvn8ry87cLcEtIh7gKlQ354Rz4uJDY0o3svG5Ys70Dbi96k5lMqSlktFjIlJ1FJqQPTy0EZ68R2jdsGMz1xhtGEuZitEO9uuvqMHaEsPmlMc+eOjXoCLvgG8hcOIMXOdLNmZlRH1fQAWg4Wbv4NeizIUmlG6np1dep/KKLKAnjjCbw++F3HC7oTEahiuEMzEaEE0YCQamTkX3FOAdXnIDFwuRTTyTz+PGae2QElF17FW245T/IWAQdXpxAcIxjQ4uf5MW49a9/GzJCL3KtTb/nXhCy6Kb/6UDdgqoH7idDui9YXp+ZQUc88tCQvkP9o6+5mdrRbg9nLkGeOGd/P7lsVnLbfcTLA8IOe4cAPSy3BmxIeiQEYNWEAYQiCY7KSRXllAExPPvgg4MurM13343MvL736e7socLLLqLKBZcNtB6dr8YPPqROhNXpMYe4GI2BcfTYw0Ebr3ryabLXN8KoY0Q6dRvlnn06Tf7ZdUHviefJ7rp6av1gKenZKAcXT1tNLbUgRVbpmWdGdRji/eQWIJIHESxhgJD0kpCsFNKUuayUMjEfRAhfGMQ2KBEzlIyNLxHr7oVCf76IkQwFL0XHH081M2eQrbHJl0kjlJvDvNbb108pBXiJIYAXnGb79z/47hhwIPZae2nHw4/QwX/5r4h3JP+hWFtaqB1xnoY8jBHckTFX3Ujif1+g351bttKeL76gnh/WUR+KuPSDmLm7EDEBQsWTUThDY8EIUByjFUdkRDQI7gyTnTkeYz4SUqZYqPSG66ji/HmBuhPHOlZ8Q8ZSH2F3d3RT+pwjVa8N90TPzp3U8f2Pwo3Hi/FpwVEnEiHYtu3APDMjc0sfmacmll609o03ECrYh41jYPMCN1z37AtUcuqpQzjOcHGm3Lf300/JPHEqIlcijFgB3nnzaPv6G2r58GMac+H5VAQ9dygQnIjl55PXZidd+PNf81i82M3NR8ym5BnTVe9xWa0BFzqzymXQjW3+3d1kyI1Bmp4AI/I64McGp9tQgcVHAVzJiSEliVo+/5KqUAdg8s03+Y5F438QF70l3RdjinoDw6MetHTBImnd4tepfeW31F1dRa62dqgWkrEY0HYauBeoGrzgxjhQXoeMvRySpYgYHifK66FfIXoxN89xtxgTE78ecHFMQIKCKQkikU9c0afDUs7EMgYgngf96DTiiPGoT7PgeZEcAKDjDC4JAvy+dj3/POlhGFOAE5J2rfmB9oKDzoPqJZrA70fZu8S7ttk0N8/zhcDNssO41+2ivpoa6t2xg3p27CRWVZTOPVtzW0GJmA7sP6ejiQsgS0Ta1ZeTHixmIOCMGi2bt1DJ2WcFOk1jTjmZqkrHkhP5zhgxMQVwGfqCvOhkr2DOBeOte/5FyjpoBhXOmRPToWttvKe+gaoffYz2fPMt6n92QjyBjiXDIgiXa/deMpePpbQZE4U+yMwFWaD3Yk7LMKDfYNHZzeImHJLte9upH1l+WUdn3YF4Uyu4OEXu1Doged2IGGhetpycSI9lgqM6ExUGXgvs71nz8stRJ2LKgLivZBgBM1jnqpEzY/1pb2M92TZtI312psj+zPrwXugcd/ztPsqYOJEyNVr/gxIxIxw5dUjhHHPAgxsmVVLKMUerdtUH/UX1F8toDArlKgvF/+Jk+JSVXnE57fivv5KxOLa6MX5pqTNmRG0X5l3d1dtH2+9/iFLA3WVUVPg/Wtx/s1l+63//b2pbvRpcFrgriCQsknpY3J8xjfLmzaSMQw+ilHGllFxQCKW9ZdBfTo/rFfCAkPHHCYuzA2KoHUkFrDV11L1hHSa9diW/0p78VseAG1JK3UsvkzEP0hPmp3nAuu9AwlK9JYXaPl9G3TU1MZlbbOSyTJlElTffCCKmbXfyYIOz7dlD1rXrqfqdt4VRiAmuHsWwbY2NVLtkCR189x/UH9jvzL4Z53dQ+WmCZUmXbvFR1xix89yXd28nWW69BbJxYAuKG5yA7e0PqKeuhlqhUypCptVAUDrvPKqD4tUNohhLboy5jJQopa0W1l8WwzDRemC53HbPfXTYffcEJNSBnjnax3gxbLvvAWpd8bWYUKzv4kXBvG3JJRdRwWmnUhZE/mREdIwEBlbug7PmeZSKwsY0ZQp5jzmGrC2nCGPASPfL89oxwOuid8MmMoAIuJEJecw1VwouuPG5F8UaZqJR+9ZbNPP227U3qvVK6D1NqFOROWGC1jvEddmQPDxHHkl6GOS2/r/7fOoDzDdWCe157wNy/OqXZEa7I0FQRQPL+zr2mhfltkdqKszzTHCQbtpy+mmqDdhWfkNuiCLMEVQ9+g/V63ihFMOCxbUsYwoQsVPBhUQKTMDYYZatXAxMyFq/XEZVi16JtOmw7697731q/gjWLSwGfwJWeeMNNOEXNwmlqxYCpjYAnlOWMWOIq0tJiB4Gal58CXpP6JkAXls/jTv/fCqBRdLL9S5Y/QFuuXnR62SDwSeRQJ+eRuPgApKBfIFeO6JvGMCRsQW4t77e9/cI/wclYnyvIcqm/+Hj8UJnknrJBarOrWw16n35VdJhgbNs37nqXzDzrxvezODfZRdfCLcCKDbx4mIFwkcsDKX+8PG4ob8oufRiSps+lTyYeEw0dGxNgn5s1xdfDr885n9bwd6zWwbrJoTFETjkRcDhXeULrxDEJ+aDkB2EjIGu7Tuo/cvlYn3wPMo5fg6lIUUU65S4aDQTB1ZZOFv3UuMnn4Tcfqxv4NC9/FNPIuYWFcBKIJ6PWmBEImaaPHHQuU9LgyFdw1wYrF2Wiy5Qvc2OF+T8cT0sGQOWKuwoVc8+D4tGYIMDl1sbA49/1t/ECnw+YqFbJoePxwtrDiswJ//HryE+pvjENtaPgZPcfu8DxJMznsDm+f6mZuEDxf0yDovOOpMqrlw4qPOK53hkX9owUIf3JjYdfmfQP5Zj02Fg/7xx0BMrCURZTGt4cRG5Q7Aiiobi8F8aOHPBNQ70xVZV1qVqgRGJmLEEixVuFrEAHnTKGafB2a1Mtfne15b4OIOBK3RwSWiDgr8dFZfUoBwvTuEk1K6J6Dh0RCms44kCsOK7EAaN8T+/gVzNu0SL/IzWqp20/cGHyQGP8niAE75FTfDuNrJfGYD1YIasDJoAMZJ1WhISEwM98I3c/fa7wteK3VmSK8opH3UfFBgDn6ukEp+1UmcykA3W4ZZVMNgkGDAHydyXAvwsRjA4WmBEImbgUBEVrkdLB8Gu8cKJ0XL5ZapWPueuZur/GOyv/8OwohkLv+qpp1WbzoTHf94Zp8YmTQ/rF+CHk6RBsa06wAAnyi+7lIqQWsi9p12c5T6EfuzFFwNcHf1DXdu3k6MRYUqY6Axcgq/ovHOJcSkhcTHQ9PHH5GzDnIEeiTmu4ksuHLLpJEGnPQbH+H3yxs66sVpYMdUkmdF60s5t24Q4LPpnVRCktHSNxrMRiZgxhHi3UBDgRaxd0lGoFDRpkuptVniJE7O+wyyj7GjZ9tkXxA+uBuMXLvSdirZuDPg1ZGVGx0fMb/AcWzjpzjsp/ZCZ0I+B82X9GMSB+pdeocalS/2ujM3PFrhTiPxx6FfoE5HiaBysvRISFwMOOIU2Pb+I9JiP/M6Yjxl33v7vbNwFF2A6+d4rO6h2fPMdtW9Sl2Ti/cT8HG3//BSqJbjyAJgLsxw6k7Smfh+RiBFbJ2MBHLZz489UuTCW2/teWTKUC1PGwS8EULPoVeXIft9svs057lgfQdjvbPgHOISGfXBY3xBtYBP1lN/fQQaIk8KtAVyRB3jY8dCjQQl2NMbRtWEj0YCjMfedhHg2TjwpIXExsBtuMLbaOsE9e+AsnnfW6ZQWwOCUUV5GOSceN7g5MsGrfXn0LOD+GGWOsOaVVwefg8+5Wzvg87lAJA3wv1bt94hEjOOaiFNEg72LFjAXZpo5nVIOn63apA0Vxl2s2B7GhSk36MAWt3z0MXVV1yiHhnwzkRl/1ZVQdPb5OIshZ8P/g0VZAyLvYxVuUnD0UVSBgGI2k4vdFRZZnqjsCNvf1hb+wIPcyRPJBidUJZSGnzH94INiQqiDDEOeCgEDvMnXvfgyYmPZBQqOyJjnFVdfpdoCW5fdbR3ivG/tLKUejS4Mqo1GeII5sGq4htSDoPKYGDitVs4xR9HYM07X3PqIRIyzRBjGQC8WRV8xbyc8v0egtNZXFsNJD75KKsDOrG54ude9/rrKFUS5hx1GmbMPg9XDqXpNyCfgI5aGnS2WUAHDRNGZp+OF+pT6Qnxe/lVQq2wk4+EF4YA5W4gcaIiziVgkFxYJSmN+b8emzdT941oRr8riVxockHPga6UGeVgLlsmThKjGa4etmE1xUFMEGg9vmq3/WkPbH3qEqp57gVzQ17Fw5W7poHREwky6646Q0r6PSMSY49CPKQo0lvCOgaMzIMYxFb4samBH/JT9m1VDrJKBrmXq3fzqG9TT0BDotOAkyq//GdhoH1cT8KIQD7KPWHoQPV6IzQW8nPVjlb/8BV7odBgnMHa8YX7WhteXUCMUudEGTqnjZgdhn5QuMpckI/hfQuJioG4xNnkTAm4wN1ihX7pwQcDkCMoTMDMy9porROYNPsZ6tKaXXqP+vXuVS2L2zUSLuS42HvH83fKXv9CORx6l+tdeJ44QwbYpRN38k0+kyXfcRkxwQ4ERiRg3pudsFlz5Ogrghe9RKqwlwfLn9737gWCR1URJZRi8ozgRklT/zrvKof2+2X3BgsDUqI0fzrkpXAkqxsDxk5PwQo0Q53ns/Kyc82rHI/+gjiDuJeEMi9082OlYbIfcAMSTQPGp4bQt74k+BnjTbvnoE1Shh16W3xUkluJTThmxo7FnnCGuFWoKdreAKqZ5+fIR74vkAs5lxiIjuwttf/AR2vH4k1QN7quTuUjkmnO3tlDK+AoqQ2WzyeDACo89JuTuNBEx4SsGDiRiABemww6QNu9c1aZcu/eQbTEU9uAA2Y9s6AeLjdO/+H3YFaEJbgi9KtyYGd775dddTa6W3ap9hnLCixChlDhxKUVzjoV+7FqfJzMmK6e66a9voO1/+zvZWltDGfaI1/Ju6Q96o8/Vwv+Y/J0YGKh9dTF5kLqKNx2uvVow90xNczINSU7zz4DrEUsmAEN+NtU98YTINhKrJ2ta+k/aCcJVD/UQuwzx/DXkILEEUhpZJlfSuMsuoYkIHJ/4q1soE47f4UDQAHClQUNJifIzom9WVqfCL8xUAgdaFbBXV6NcWzGyeubtd0WWx7XfMT7g7minrh07KE3Fr4R3qW14gR7maLADRQRY3KlxzMDA/mPdsBw2v/UmGQuLkHLYQm0rVlLV08/S1Nvg6R8lK6l/imbGz3CiFhHO5M1RwwBvXrveeFOkr2GOivVhZZdeqrl9vrb55cWCi+Pwsp6166gdOfnzjzhCcxuhXMjO2qy75nnLwFJFSkUZFZ98EqVPn065s2cRMxqRgCYiZmTv9GE7dcidsnUTO0caYhuDgRHZUjNVUnBU4qWpgYmtqCrASCq74Xqq+vuDEGMDZ8pQuXXoYfTPaZ6Tke89XsDe8pWI5u/dupmsjQgJgghhKMiGfuwNssDAUIFMuJECp8/hnZEXhRAp8Z6cnV2RNjt4PxPEWug/BPeAo7zwMg+eSflHxmbhDHb8E/zRhNhHF0oaGnIyRUxkBgxX2VOnaH5SvpaNXb01taImhSG/iOpeW4JcY7NiYnFPhctHGwehI/ZZABsIMc9KLrk4pJoLwR5QExFjl4JIkyMyF5YEZX5S5YRg4wl6fgANQe9XO1kGh7/Gl15FXnhb2Gl6hP8UjBKxcq9QG3smdAZT7v4jrb/rbpF3zMdNemnnY49TJlulDlK3Sqm16X/cBG5OEHfeI1i5D6IWzWwHTMR2PvUMrFA9gka6IQKNQ3pqScT838LIvznhZ8Orr4msunw1u1WUzkd9Vr/ap33IBdcDqUSxNAdqNQ0O1T2QePhV6zmM77MvkGusljJHWJuB2hrpWMnpp9Pud98fnLdsjLBu30m1yNQy9de3RmUtaSJieiZikYIDVj3kOBot4Hz4Yy67mGofekzsYmGNA4p1y7SpYd0a6U2Fc3z6se33IsuEESmiMRmcsCxtv+9BmvF//jugk6PWPnkRmBGZ4RA1CmEJRfAtV4+KKjAnr3B6zJWPBNCJDl4/0rX/JudbEfNo3brdt+HAIdkM3SzPC3+oRyql1k/h/W7wpeXxP6f89ricPs6bD7B1E9ZptnbO/OPdyiVR+86G28f4G6+nbTxvvVDBoz+WJpgYZ6E4SDEyMkcKmhT7BqQfJq6eomXyBRqR00Hmww6h5EMPCXQ2bseYG9NjgWrNPjl8YGxkYBFutKAC+rFCBMx7kPSOgfUMe1k/9j+PR6ScZc4yBc/F1k8G1o/1Qg/HkzuaILgDnsRMoEYArkA/mMIa9zDuYwogsMP1gjHtL8TGhUiOmEclNIxrFRSed84Qfyq+puHZZ6l381bq3bJF9WNlUVJxp8E4OKdXE6JjYuVuwSXjijBvXbBEMgg/NRgKt9//IJzVI98stREx7NR6VmazPBsGePtRiu3qKzRN3jCa13xLGgwKRRfM81Xq0XzXvgu9yAvOMv5oAXNME2/9JWVAhFQSKbJupPGNt6nhfbilRACZCNPiYi0MPMk4GLyntlb8PRr/GXNz9nWLFReLbB5uTvVi8C0BDiczZESmYN434Oj/Yh+rTlSvUtwqmMCPu+D8IR11gyD0b0HOejb2cL1RtQ9XoGKXKXBzDPy+3dCBNn3y6ZD2ovUHz9vKX9xMqeXlKCzj24zYqNAHrnLHAw8j5Q6iaiIATeIkt29ALJ1rfWfoXYF7M5SPoxSE0yQCjL/mapG6RLxAvLxQgMNxkrl4yigCZ0Sd9Nvbae1td4iCtRwqxBN75z8epzTozlhBGw7kIQSsBkSa2IrE27TJRE2ffkZZU7QrjcPpV+0etmD1bYVuB24lTGj6kdk3msBci7159z7uCws7CRlnExVqIH4JgstcKRIEZB9/LFwSKocM18WhRzfdJBxZ+fmCgR7vl62SPRs2gbszw1iUAxFvMVXMnYusvtEn5mLe/v53tPHu//QRT6w93oD3fPgx1R91BE3g9FlhgmYiZoSbheuHtUCk5lvEkLwQfSy33BQ0V7YVFXW8CD0YwuMGeKBOb/AX4+sQQ8ROVISCIoGAlZcF55yFHN4fDpp9A12ndiwVVV1GG0R85fXX0k5O1Q09A+vHHC2ttO3/3kvJD/wdriahu8RkwUfHVFQANxQnEOgr2NC85C2qgEk+dRQId8a0adS7bqMgYizmWXdWo1CvLWrJGe0dHWRvaBx0uWEuNL1yKFEY7fes9N8HAr4Hui4dV5ICx8hJAcq4PuswsTxr8mTK+l9/Um4L+s2l5xrhw7X+179BHQSU28McYs6oZdUqKkIdhVjA2NNOow44udY9/gTchSDZgSDrkZq+Gn5kGYiCycdGGg5opkimcSVkg3Jep1JSLWDn4MLYKJCmUmaN73GjVl4XspiKnYM5gCCwzaNBLwKJV4d+s6BQVMsFPx6Bsrvffk9MiJEI5+BwWGcCFjhRwnHGX76AerbvoF1LkMgwv0Dk5+9ctYaqMCGm//EucBgj650Gnw0/uCADi9oNjz8jnCBZxLAPVJ2Z9stb/C+Ny+/MmTOp8ennxUbDY3G1tomwlVwog6MBnOLchbnHxXwZWFWQGeNwsnDHXYcCHxwWZsjLEe4pZnZaDeCe4m+l1NJX4XFziNsSVmMQMRZDd6LQbiF8uIYTSC3tjXQNt1mJ5AadK1eK2qNcU4LfrbO9g7b+7V5KffTBsFKga9KJ8eB0sISE6ivmRYXklMsuAvLV/ar6/7WGnD+sJw8CkD2wjgX72Jv3QAQY4YN2+qDYbF62TBWn2djls+ccIyau6kXDT0B9wBWiTQN1FYefjvffHBbEXs7pyKM+qB8ryqXGN9+iRmT3UJTooYyr/NJLYK7Hbj+gK9HDoNMIMYZ353hD7iGH+BYSNg+x0WABNCCDaTRAKMDhG6VX3iX64GSBmeBkEg3sCKtrZOdUNq4B2KhTOO+coJKN1mfgjYvbUgxFOnBknQgT6oRRIFbAXgJT/vPPojqSYkhiYta9+nuqevIpwW2H2rdmIsZOqMTByFoB3BCb6tOwuweDXvhu6XLhgMopd0b4MNXW8uGkhfUoLhJMYVj58+t91jheJFoA17EbAgdnJwpw5sspf/7zQHwlohmYPcduWvX0M9QOJXBIXDMeiuM1RZAwK7zxvIIDghVsK0q4tf3wQ1wfOx0iccaRhwvOgzvmib7n449o71qoNCKEPd98Q23LvgIRgwIcwFk7so4+EplEQxfDIxzKiLfvXrGCHKy7w9wX7wS6rPILgzuMj9io3wXclpCCeB3w/AFh5/xeI+nU/JoI+Wf+4YdT+c+u9cXrDqw/AzbgBqRHb/rnJyG3p5mI6aEL8kL5qRnAnieffSYqRZep3uKETsK+bEXIi021wYETrAzugf6u7Xv1hZc/ezZloqw7T2AtwC81GXrBRIPCY+E/hjz4g/nH8OxcMLUFvkLKIg1lzOOvvEJYP93t3eI2boN1U9seepSaPl5KzBnEA1j0KLvych+XMLDA3L022v7AQxEFwLetQQqYhx+FMQSu06y+QNucBaIMTqOxEKEiwRXrAOsXLRaZhLkdFnlzTjo+qgVweePKhhM6t80gygZ+8hmqczeJv2P1XwUCvnPh4zZY0GdgA2Y9b6gJDjQTMR3CbXSwJmjyFQMXxovecvmlQXHQ+847vuK8Qa8K4yQjBH5GtS+8CK+QwISXlcUVcL71cPaGgd0gWE8cKpMCF41EhEpYdgpPH6gpgGcRuzYPlBdpiMA1ITl7hgVVozzdPtO3PjONurAhbLn/Aap+7AlqQR1QrhKuhBGF2IXmy8eccAJlwb9wcBzgxjq+Wy2I0G6UtGPlvFawgbA3QczeCiLYu3kLNk6fMyi3nQPLecHRR2ttash1wTzjh1wYxh/tGzZQN5KDCgst3isHbpdj8UcbRJIBtC3WAeYMV9uqfw864xgCpwaaDCt7MlyWFEaCn5ONLewYy+9LK2hW7JshRumh2/L2sqPlCLQPVN18xGxKDqJj8ECpan3nA9SThA4mBsAcRPvyFdSN3GRq0fEFqEZtmTqFbA0NQmkfdBhwrxhNH7FgY2OCPOWu35ENVqxu9hPCYg+HgCl9FKAqs+vuO6kKaX96sOA5Uwjj04k6mVWPP0Uta79HvN50Sp84QXCnZqQwN6VjfkCU5UXNPle8iXGaJBdCZRx720VxFwqRprLoPvkPv6f1t98pstpyiAyPZS8SRFpRGYq50Cw4UCcj350JBiQj9HlKAVkPjFAum5UcUBqze0b7mh9o95dfkBNWXJ8jLYgCwp+4kvuUP90VNBeXgpf9vqH+cPX1Um9TU1TEL3Mmajfgo0DNE0/7pBTGKW+iE1AABxJEtCF/9ixKhsTkQAQIWynZxaIJap7Kq64cMp5o95uFJI2Vt/2KNt71JxjjIM5CZOb32/b5MqpetIim3gx3EQ2GRM1EjBeKHjohtyBiwR9HcGFXX7nPByfA5VbobDxNqK6TnRXgbBQO4cXroD+oQ8T/zLt+H7BB3g3KrruGNt95FxlMCCDHPWrAHuNcGy9RwcdB/YbW3/kHcnKMoik06+Tw5yo+9RQyQtld9+iT1NlQg8XfJha/cUweWXdUU+/36+Dnk0XmsWMoGWXekqF4ZnwKL3ugkXOU9be2QvzsQDWevXDdgNgeBL/D+1f+zoPIP+H2X1Pd089R77btQgHPE70feqKaJ5+hpAkVlFZRLqzGTMQMmKcMbjhmMwG1IrVTH5xAHXUNwpwvCBgWjAeZFdJQyani1lsoZ8YMcU+o/7G1uhcW4uonnxbPG+r9/td7bH1UfMGFVASLIQPHMrZ8uJRMpT7fNTeCvsciUabAsf+NUfjNm8VYJGaogpcA16ZkTt5Rj1JwX35JZagkHksoPessEXWy6533UXYO+mbMEZ5j9S+8LKzFJUE8G5RxaSZifIOhGESsaqdyb+BvxGUZp06i5MPVnS5ZxOtFfiFCwdhYAnN5u995jybecP2Q8Az/PjklSDV0XQ6k8+FJqQaevh4sVnUrq9p98TxecNRRVH7DtbTj7w+AmIBbDoNo+I+X22OxsvHd96gdustecD/O5hb4KyXDdcaXNcQOz357bT11gvMS4giHLg24d/DGhxXhc/cAYRPWKFzn6QktQ0bZuedSUkYmNTz/EnVi/okxpIFggYg629upo6VFcHrsBMq55hj0FijtMQ4xBoyDr2WdrqfLilRQYygPrholVy2kohOO93/kkH7zYrej2HAjfNgiBfee3ZQxax+XVbv4NUQQ+BY1W4sN5iQqQSHjWEEpyvNV3XO/7x1i3hgKc1HabRGNRQB3LAin8hz8fibffptwuu1Fzv9BKcLjpm0PPkwZU6dCB1iuXB7wOzQixhZKnqRBHF65lmTKby8O+uCOauzs36JEGPxeYgk8yZx7WuFysJQmYsIGAmbfy6+9irb+5a9BuTEvRA+1fGWB2lU7xrnPBDCBAXfCXGs0gePUutdvQP6xt/cRMYh3ipgVal8W5HabDLa+A/qpPdiZbat/JKvdSv0gHsyVu+FGI0JJjCCa7Hxp2qdqELUNXNBJskc4IgEM2enCd8+cZAT3Mz2koTCxSZ9YCTeLd6j7awRCW7ux8XSIcBkmXgQdlw6boj7d179ihPJa7fBIx/OD4+cUSimp6ZR5/DFUgsSc4TgueziVN7hLvQGxxNEEToXE1nkAO7c2L1kCdhb/OnrI47ZTITgifhexAm475+QTqB3vWKfHWDBnuuFuwYV2i086MWC3PDav14mNwxkRJ5oKCW/i7+6g9b/9HdIMDawP9GhduwthSQ/QNFjgU4IwECERMeO4UhHyoGq658UCfzKu6h0M+lhpyC8tDqAHoax/5nmqALustqOUn3MOVT32P74XAW/1/QDPZSwsHlKUdL9rNBzQYZIWoJKLPyTDYBJN4GeccvtvyNOyZ4hRw4i8UZFA9rSpxB/3gg5qBzfUs7OKbNg5nRDXHLv3QnwDBwTC7MEOqoAeXJhBZyQzzOcmxN6mgKvj+gQZiJrw1/0o14/0zQttyi2/oD7EDLavXSfExP7qWrggtJJbBy7L7ePCuB3eHJh7MYAj5f6ToU9KAxHMAQcWDvFSxpYDJ1wLuECdPrpShMcN/dxAZIQNvo4506eijwEXEE+/8NBXxhCr7wk3/pz04JKVZ/N6bMTcUSAovvhiMT4vxsaQhRTwkcAYRNh0XXs19Xz7zZBmPNj0ucpXMCKms9lsGh2liHqXLaeOG25R56AQumEBV5N+/XWkZ6vgAJehOLV5McG9iO9qufEW8kJJrOw8Q0Yd5I+Nbm3uEMObcNY302GvPEeFfhYof6sSE5cN990PZeYrg7mahrQBMcSECXbKRx8MORzOH3YYNPzBjKSHQuTxPxiF31yYYbhlNhzCEWwoHEvqxjvnvlgPx8p0f0JihBuDCQkpOSmlAQraWDwnxwty/3bMJ9a7ibCpgUEbUy2UBA6M+zcCz9EAtsrGApjomuB8ymMN9O5iNU/8n4Xfpy1AWcBARH/4PGZdZKQ45v4dAYLBeX0yXtQgNE4sB+LfQLqWQA2CYSEdJnIPHE31LEa4EYcHUEqmcaUgT3cXvPNbfSlFAjUSg2PGojyqfuY5sm3dOtj6oDgAMYgXmBEftgAFAg+U+kksSkcBok1I1IYU7KWr3RPqcSZKRmXywo9wNIAXDn8CLbRYjCce/cTj3QXCDb9Prc8Xi3nM/YfTbmhEDHFWeny8sKQIcXCY4phzHfVA+bqfZz/rShRg3QWsXvEEYUXasIm2fPH5YLcKq86+KZykjS2Zhqxh1B5UmUN6uOJ3wUknDN4rf0gMSAwkDgZCEieZ3et+bQk5l39N9poa6F3AUYEARGoF04qOcMVJTe0LNnJAHzZAvDhlc8bYUso/72wqZQuZnw+PpjblRRIDEgMxx0BIREwZjYuDrJEFov/Lr8gFs7sXDn9kgqJ+GGemXB+t75gSMR4kiBdb2vSwcqWislDOcbBiwdrHOe4lSAxIDCQmBsIiYsqj2HfuJOvb75N99SpyVddAUQ+xEXJtrCBmRIyJF5T3HH9ogQNkNqrBFCNwPQ+ZFCRIDEgMJDYGIiJiyqPZVsNv5/U3yVFVQ27koBIQA2IWCyImLKcwViQjLjKjaAwVXwMHSIQjxcKSpuBLfksMSAxEDwNRIWLKcPo++5ys735ATvgQuTl9CBcXiaKIGVUixnqvHisllRQTp87NP3culc09WxIv5WXKb4mBAwQDUSVi/MwiXm3pJ9SP4G7n7mb4g3WIfO3RIGZRIWJMvJAXzQSLY1pmLuVfMo9Kz5lLSQggliAxIDFw4GEg6kRMQYEbQb89i18nBwK9nYjy96CaSqScWUREjPVedqdwZk3NzqO8M06lcfDij2Uoh4IL+S0xIDEQOwzEjIgpQ3bAFaPvzXfI/tVKX905OI6GG3IUFhFj4gUnVtZxpSBGKxsZPEvmzUPV7PAyFyjPJb8lBiQGEgMDMSdiymPaUJhBKP/XbSA34voEBAkkV+7z/w6ViHk5agBRAilw0OVo+LGXXYLQo6P8m5S/JQYkBg5wDMSNiDGe2FnW+tXX1Acx01VbR+7WNiR90+5fppWICXcJpJ1OQrxjGlscF86nktNOk0r7A3yyyuFLDATCQFyJmDIAVv73ffAR2d96D2WzOsGZwfNfAzEbkYix6Ii0LKa8XLLkQe8FX6+KeechuR/yMkmQGJAY+EliYFSImIJJFyLm+1CGq3/pp8S/PcjtHYyYqRIxJl4IPBee9lDa58+bS1x+LBlpkyVIDEgM/LQxMKpETEGta1czdb/wEjlWrkLCOeRjR+I54fk/zMdsPyImiJcLlWuSKTkrm7KQ17/syoWUNbFSaVp+SwxIDPzEMZAQREzBsR2pcnpfgVsGKuu4OW+TAZku/ZT/g0SMiRcr7ZFHPTk7h7IQJjT20oupAPXsJEgMSAz8e2EgoYiYgnrr119T73MvEXNoHlRgEYB0PkzEvG4kLUPyOzNSDaeVlNDYq66gsSeh7HoMwpyU8chviQGJgcTFQEISMUYXV8vpg+d/H1L/uFHIk51lN9j7oLTPJwtSYI9ZcBkqscwjvSReiTu75MgkBuKAgYQlYsqzc0EKOyoW2Za8S1t726hg/nwav2CBKDihXCO/JQYkBv59MZDwREx5NU7UqLRBjORgbQkSAxIDEgMKBg4YIqYMWH5LDEgMSAz4Y8BX6M7/iPwtMSAxIDFwAGFAErED6GXJoUoMSAzsjwFJxPbHiTwiMSAxcABhQBKxA+hlyaFKDEgM7I+B/w8OgJxX7N9tGwAAAABJRU5ErkJggg==;" vertex="1" parent="1">
          <mxGeometry x="-149.14" y="-175" width="154.14" height="47" as="geometry" />
        </mxCell>
        <mxCell id="uvx7ZhkvkHeKNGqRu8Pl-4" value="Spring Boot &amp;amp; Microservices" style="rounded=1;whiteSpace=wrap;html=1;fillColor=#d5e8d4;gradientColor=#97d077;strokeColor=#82b366;fontSize=14;fontStyle=1" vertex="1" parent="1">
          <mxGeometry x="-180" y="-105" width="535" height="25" as="geometry" />
        </mxCell>
        <mxCell id="uvx7ZhkvkHeKNGqRu8Pl-5" value="Spring Cloud API Gateway" style="rounded=1;whiteSpace=wrap;html=1;fillColor=#dae8fc;gradientColor=#7ea6e0;strokeColor=#6c8ebf;fontStyle=1" vertex="1" parent="1">
          <mxGeometry x="-173" y="-73" width="120" height="60" as="geometry" />
        </mxCell>
        <mxCell id="uvx7ZhkvkHeKNGqRu8Pl-6" value="Spring Cloud Config" style="rounded=1;whiteSpace=wrap;html=1;fillColor=#dae8fc;gradientColor=#7ea6e0;strokeColor=#6c8ebf;fontStyle=1" vertex="1" parent="1">
          <mxGeometry x="-38" y="-73" width="120" height="60" as="geometry" />
        </mxCell>
        <mxCell id="uvx7ZhkvkHeKNGqRu8Pl-7" value="Netflix EUREKA" style="rounded=1;whiteSpace=wrap;html=1;fillColor=#dae8fc;gradientColor=#7ea6e0;strokeColor=#6c8ebf;fontStyle=1" vertex="1" parent="1">
          <mxGeometry x="97" y="-71" width="120" height="60" as="geometry" />
        </mxCell>
        <mxCell id="qlS8aJKs9CrE4myQX3xX-1" value="Apache Kafka" style="rounded=1;whiteSpace=wrap;html=1;fillColor=#dae8fc;gradientColor=#7ea6e0;strokeColor=#6c8ebf;" vertex="1" parent="1">
          <mxGeometry x="232.86" y="-71" width="98.14" height="60" as="geometry" />
        </mxCell>
        <mxCell id="qlS8aJKs9CrE4myQX3xX-2" value="GitHub" style="rounded=1;whiteSpace=wrap;html=1;fillColor=#dae8fc;gradientColor=#7ea6e0;strokeColor=#6c8ebf;" vertex="1" parent="1">
          <mxGeometry x="185" y="6.5" width="80" height="60" as="geometry" />
        </mxCell>
        <mxCell id="qlS8aJKs9CrE4myQX3xX-4" value="MongoDB" style="shape=cylinder3;whiteSpace=wrap;html=1;boundedLbl=1;backgroundOutline=1;size=15;fillColor=#fff2cc;gradientColor=#ffd966;strokeColor=#d6b656;" vertex="1" parent="1">
          <mxGeometry x="-71" y="4" width="100" height="65" as="geometry" />
        </mxCell>
        <mxCell id="4nn8FX5WJTodDfUbeIrR-2" value="Chart.js" style="text;html=1;align=center;verticalAlign=middle;resizable=0;points=[];autosize=1;strokeColor=none;fillColor=none;rotation=-15;" vertex="1" parent="1">
          <mxGeometry x="14" y="-171.98" width="59" height="26" as="geometry" />
        </mxCell>
      </root>
    </mxGraphModel>
  </diagram>
  <diagram id="XwVUIRPAMJ1x9UDXZ0vp" name="Layers">
    <mxGraphModel dx="1834" dy="1254" grid="0" gridSize="10" guides="1" tooltips="1" connect="1" arrows="1" fold="1" page="0" pageScale="1" pageWidth="850" pageHeight="1100" math="0" shadow="0">
      <root>
        <mxCell id="0" />
        <mxCell id="1" parent="0" />
        <mxCell id="PufqcfkgENdnon7e39rP-14" value="" style="rounded=0;whiteSpace=wrap;html=1;labelPosition=center;verticalLabelPosition=top;align=center;verticalAlign=bottom;" vertex="1" parent="1">
          <mxGeometry x="356" y="-70" width="178" height="434" as="geometry" />
        </mxCell>
        <mxCell id="PufqcfkgENdnon7e39rP-1" value="Presentation layer" style="rounded=0;whiteSpace=wrap;html=1;labelPosition=center;verticalLabelPosition=top;align=center;verticalAlign=bottom;" vertex="1" parent="1">
          <mxGeometry x="-373" y="-70" width="178" height="434" as="geometry" />
        </mxCell>
        <mxCell id="PufqcfkgENdnon7e39rP-2" value="ReportController" style="rounded=1;whiteSpace=wrap;html=1;fillColor=#fff2cc;gradientColor=#ffd966;strokeColor=#d6b656;" vertex="1" parent="1">
          <mxGeometry x="-347" y="-14" width="120" height="47" as="geometry" />
        </mxCell>
        <mxCell id="PufqcfkgENdnon7e39rP-4" value="Service layer" style="rounded=0;whiteSpace=wrap;html=1;labelPosition=center;verticalLabelPosition=top;align=center;verticalAlign=bottom;" vertex="1" parent="1">
          <mxGeometry x="-192" y="-70" width="178" height="434" as="geometry" />
        </mxCell>
        <mxCell id="PufqcfkgENdnon7e39rP-5" value="SensitivityIndexService" style="rounded=1;whiteSpace=wrap;html=1;fillColor=#fff2cc;gradientColor=#ffd966;strokeColor=#d6b656;" vertex="1" parent="1">
          <mxGeometry x="-172.5" y="-8" width="139" height="47" as="geometry" />
        </mxCell>
        <mxCell id="PufqcfkgENdnon7e39rP-6" value="Business layer" style="rounded=0;whiteSpace=wrap;html=1;labelPosition=center;verticalLabelPosition=top;align=center;verticalAlign=bottom;" vertex="1" parent="1">
          <mxGeometry x="-10" y="-70" width="178" height="434" as="geometry" />
        </mxCell>
        <mxCell id="PufqcfkgENdnon7e39rP-7" value="DataAccess layer" style="rounded=0;whiteSpace=wrap;html=1;labelPosition=center;verticalLabelPosition=top;align=center;verticalAlign=bottom;" vertex="1" parent="1">
          <mxGeometry x="173" y="-70" width="178" height="434" as="geometry" />
        </mxCell>
        <mxCell id="PufqcfkgENdnon7e39rP-8" value="SensitivityRepository" style="rounded=1;whiteSpace=wrap;html=1;fillColor=#fff2cc;gradientColor=#ffd966;strokeColor=#d6b656;" vertex="1" parent="1">
          <mxGeometry x="195" y="-28" width="139" height="47" as="geometry" />
        </mxCell>
        <mxCell id="PufqcfkgENdnon7e39rP-9" value="SensitivityValue" style="rounded=1;whiteSpace=wrap;html=1;fillColor=#fff2cc;gradientColor=#ffd966;strokeColor=#d6b656;" vertex="1" parent="1">
          <mxGeometry x="9.5" y="-12" width="139" height="47" as="geometry" />
        </mxCell>
        <mxCell id="PufqcfkgENdnon7e39rP-10" value="Topic&lt;br&gt;(from kafka SS..)" style="rounded=1;whiteSpace=wrap;html=1;fillColor=#fff2cc;gradientColor=#ffd966;strokeColor=#d6b656;" vertex="1" parent="1">
          <mxGeometry x="9.5" y="62" width="139" height="47" as="geometry" />
        </mxCell>
        <mxCell id="PufqcfkgENdnon7e39rP-11" value="SensitivityReceiverService" style="rounded=1;whiteSpace=wrap;html=1;fillColor=#fff2cc;gradientColor=#ffd966;strokeColor=#d6b656;" vertex="1" parent="1">
          <mxGeometry x="-176.25" y="137" width="146.5" height="47" as="geometry" />
        </mxCell>
        <mxCell id="PufqcfkgENdnon7e39rP-12" value="MongoDB" style="shape=cylinder3;whiteSpace=wrap;html=1;boundedLbl=1;backgroundOutline=1;size=15;" vertex="1" parent="1">
          <mxGeometry x="397" y="77" width="95" height="80" as="geometry" />
        </mxCell>
        <mxCell id="PufqcfkgENdnon7e39rP-13" value="Kafka" style="shape=parallelogram;perimeter=parallelogramPerimeter;whiteSpace=wrap;html=1;fixedSize=1;" vertex="1" parent="1">
          <mxGeometry x="389" y="267" width="120" height="60" as="geometry" />
        </mxCell>
        <mxCell id="PufqcfkgENdnon7e39rP-15" value="DTO_Objects" style="rounded=1;whiteSpace=wrap;html=1;" vertex="1" parent="1">
          <mxGeometry x="-301" y="258" width="106" height="35" as="geometry" />
        </mxCell>
      </root>
    </mxGraphModel>
  </diagram>
</mxfile>
